<?xml version="1.0" encoding="utf-8"?>
<!-- Generator: Adobe Illustrator 27.9.0, SVG Export Plug-In . SVG Version: 6.00 Build 0)  -->
<svg version="1.1" id="Layer_1" xmlns="http://www.w3.org/2000/svg" xmlns:xlink="http://www.w3.org/1999/xlink" x="0px" y="0px"
	 viewBox="0 0 512 512" style="enable-background:new 0 0 512 512;" xml:space="preserve">
<style type="text/css">
	.st0{fill:#F3B51A;}
	.st1{fill:#50489C;}
</style>
<g>
	<path class="st0" d="M222.8,267.6c7.3,9.5,11.7,21.1,12.2,32.9c0.7,15.9-5.6,32-16.9,43.4c-24.4,24.5-70.1,27.9-101.5,16.2
		c-13.4-5-26.6-12.4-32.4-25.5c14.2,19.4,39.4,27.2,63.8,27.2c10.3,0,20.7-1.3,30.1-5.4c11.5-5.1,20.6-14.5,22.8-26.9
		c1.4-8,0.2-16.3-2.3-24.1c-3.4-10.8-9.4-20.9-18-28.4c-10.3-8.8-23.6-13.4-36.4-18.1c-17.5-6.5-39.1-14.8-51.4-29.1
		c-11.8-13.8-13.3-34.9-6.1-51c8.1-18.1,26-31,45.5-36c12.1-3.1,24.8-3.7,37.1-2.1c11.9,1.6,24.4,4.8,34.2,11.9
		c6.2,4.5,11.6,10.1,16.1,16.2c2.5,3.4,4.6,6.9,6.5,10.7c1.8,3.7,2.6,7.9,4.4,11.5c-10.5-20.6-30.2-41.3-54-45
		c-17.4-2.7-38.2,1-52.5,11.6c-9.6,7.1-15.3,17.8-14.9,29.9c0.4,14.7,10.7,27.8,23.3,35.8c12.6,8,27.4,12.1,41.7,16.4
		s29,9.4,40.4,19C217.4,261.4,220.3,264.4,222.8,267.6z"/>
	<g>
		<g>
			<path class="st1" d="M41.8,259.3h18.5L92,316.9l27.7-52.7h18.5L92,351.8L41.8,259.3z"/>
			<path class="st1" d="M152.5,345.8h-16.3v-70.7l16.3-5.4V345.8z"/>
			<path class="st1" d="M265.3,345.8H249v-70.7l16.3-5.4V345.8z"/>
			<path class="st1" d="M309.5,286v59.8h-16.3V286h-21.8l5.4-16.3h49V286H309.5z"/>
			<path class="st1" d="M363.9,345.8c-10.5,0-19.5-3.7-26.9-11.2c-7.4-7.4-11.2-16.4-11.2-26.9c0-10.5,3.7-19.5,11.2-26.9
				c7.4-7.4,16.4-11.2,26.9-11.2c10.5,0,19.5,3.7,26.9,11.2c7.4,7.4,11.2,16.4,11.2,26.9c0,10.5-3.7,19.5-11.2,26.9
				C383.4,342.1,374.4,345.8,363.9,345.8z M363.9,329.5c6,0,11.2-2.1,15.4-6.4c4.2-4.2,6.4-9.4,6.4-15.4c0-6-2.1-11.2-6.4-15.4
				c-4.2-4.2-9.4-6.4-15.4-6.4c-6,0-11.2,2.1-15.4,6.4c-4.2,4.2-6.4,9.4-6.4,15.4c0,6,2.1,11.2,6.4,15.4
				C352.7,327.4,357.9,329.5,363.9,329.5z"/>
			<path class="st1" d="M427.1,315.9v24.5l-16.3,5.4v-76.2h31.3c15.4,0,23.1,7.7,23.1,23.1c0,12.2-4.8,19.5-14.4,22.1l19.3,31h-19.3
				l-18.7-29.9H427.1z M427.1,299.6h15c4.5,0,6.8-2.3,6.8-6.8c0-4.5-2.3-6.8-6.8-6.8h-15V299.6z"/>
		</g>
		<g>
			<path class="st1" d="M213.9,211.9h27.8l-4.1,12.3h-23.7c0.9,3.1,2.6,5.9,5.1,8.3c4,4,8.8,6,14.5,6h16.4l-4.1,12.3h-12.3
				c-9,0-16.8-3.2-23.1-9.6c-4.9-4.9-7.9-10.6-9.1-17h-4.6l4.1-12.3h0.5c1.1-6.4,4.2-12.1,9.1-17c6.4-6.4,14.1-9.6,23.1-9.6h16.4
				l-4.1,12.3h-12.3c-5.7,0-10.5,2-14.5,6C216.5,206,214.8,208.8,213.9,211.9z"/>
			<path class="st1" d="M299.8,229.4l10.2,6.8c-1.2,1.7-2.6,3.4-4.1,5c-6.4,6.4-14.1,9.6-23.2,9.6s-16.8-3.2-23.2-9.6
				c-6.4-6.4-9.6-14.1-9.6-23.2c0-9,3.2-16.8,9.6-23.2c6.4-6.4,14.1-9.6,23.2-9.6s16.8,3.2,23.2,9.6c1.6,1.6,2.9,3.3,4.1,5
				l-10.2,6.8c-0.7-1.1-1.6-2.1-2.6-3.1c-4-4-8.9-6-14.5-6s-10.5,2-14.5,6c-4,4-6,8.8-6,14.5c0,5.7,2,10.5,6,14.5c4,4,8.8,6,14.5,6
				s10.5-2,14.5-6C298.2,231.5,299.1,230.5,299.8,229.4z"/>
			<path class="st1" d="M327.7,224.2v26.6h-12.3v-26.6h-4.1l4.1-12.3v-26.6h29.7c13,0,19.5,6.5,19.5,19.5c0,11.9-5.4,18.4-16.3,19.3
				l26.8,26.8h-17.4L331,224.2H327.7z M327.7,211.9h17.4c4.8,0,7.2-2.4,7.2-7.2c0-4.8-2.4-7.2-7.2-7.2h-17.4V211.9z"/>
			<path class="st1" d="M385.1,211.9h27.8l-4.1,12.3h-23.7c0.9,3.1,2.6,5.9,5.1,8.3c4,4,8.8,6,14.5,6h16.4l-4.1,12.3h-12.3
				c-9,0-16.8-3.2-23.1-9.6c-4.9-4.9-7.9-10.6-9.1-17h-4.6l4.1-12.3h0.5c1.1-6.4,4.2-12.1,9.1-17c6.4-6.4,14.1-9.6,23.1-9.6h16.4
				l-4.1,12.3h-12.3c-5.7,0-10.5,2-14.5,6C387.8,206,386.1,208.8,385.1,211.9z"/>
			<path class="st1" d="M453.9,197.5v53.3h-12.3v-53.3h-20.5l4.1-12.3h45.1v12.3H453.9z"/>
		</g>
	</g>
</g>
</svg>
