<svg width="211" height="62" viewBox="0 0 211 62" fill="none" xmlns="http://www.w3.org/2000/svg">
<path d="M62.558 22.8887L57.8853 26.7508C57.3989 27.1561 57.1152 27.7583 57.121 28.3952L57.1673 33.4674H0.423246C0.0526726 33.4674 -0.138404 33.9133 0.116365 34.1854L10.174 44.6252C29.0037 44.8626 49.4779 45.071 56.4262 44.602L56.8141 44.5731L61.7821 39.6051C62.5406 38.8465 62.9633 37.8217 62.9633 36.7447V23.0798C62.9633 22.8656 62.7143 22.7498 62.5464 22.8829L62.558 22.8887Z" fill="#0F4CE8"/>
<path d="M206.549 23.7572C204.829 21.8349 202.733 20.2484 200.481 19.2814C199.329 18.7834 197.985 19.044 197.111 19.9357C194.639 22.4544 192.155 26.0212 190.603 29.1885C190.261 29.8833 190.128 30.6534 190.197 31.4235L190.406 33.7222L184.795 33.6238C185.004 31.9967 185.033 30.856 185.033 30.856C185.033 30.856 184.87 24.9095 182.803 21.169C181.848 19.4435 180.065 18.3318 178.096 18.1986C169.399 17.6138 138.225 18.1813 127.964 18.3839C135.138 13.7228 147.5 6.9193 156.151 8.80112C154.651 7.14512 153.256 5.58176 153.024 5.32699C152.7 4.97379 150.17 2.16554 148.224 0C140.292 2.6635 129.655 8.41318 123.031 20.7984C122.313 21.916 121.497 23.3288 120.865 24.7995C120.124 26.525 121.404 28.4473 123.28 28.4473H176.585C177.308 28.4994 177.998 28.8295 178.449 29.4085C178.669 29.6922 178.854 30.0396 178.93 30.4739C178.993 30.8329 178.976 31.1977 178.883 31.5509C178.577 32.7031 177.488 33.4732 176.295 33.4732H171.125H114.595V27.0924C114.595 26.7624 114.23 26.5655 113.952 26.745L107.502 30.9139V33.479H104.462H92.1055H87.647C86.8596 25.9633 84.0282 18.8529 78.6838 18.8529C72.8415 18.8529 67.4566 26.496 67.4566 33.2648C67.4566 39.2866 67.4566 43.6814 70.7975 44.7062C71.2086 44.8336 71.6371 44.8799 72.0656 44.8799H79.3728C75.7713 49.0489 70.0506 50.3517 63.6871 51.2144C63.6466 51.2144 63.6177 51.2607 63.635 51.3013L63.8782 51.8919C65.0073 53.1078 66.1248 54.3238 67.2481 55.5455C68.9389 57.3868 70.6296 59.2339 72.2972 61.0925C72.1756 60.9594 72.5693 61.3705 73.0441 61.88C79.5755 59.0891 84.5203 51.9498 87.1954 44.8741C88.8572 44.8626 90.6464 44.8394 92.5977 44.8162C96.4829 44.7699 100.988 44.7062 106.309 44.6367L109.818 40.9947C110.287 40.7689 110.964 40.6241 111.717 41.0063L115.214 44.6367C134.044 44.8741 170.563 45.0826 177.517 44.6136C177.772 44.5962 178.003 44.4804 178.183 44.3067L181.593 40.8963C182.08 40.7284 182.722 40.6878 183.411 41.1163L186.196 44.0114C186.59 44.4167 187.129 44.6483 187.69 44.6599C191.506 44.712 194.216 44.7583 196.185 44.7989L201.066 46.5475C203.191 47.306 205.542 46.3333 206.509 44.3009L208.749 39.5819C211.239 34.3475 210.411 28.1057 206.549 23.7862V23.7572ZM75.6266 26.4381C78.0179 25.8475 81.5963 28.4357 82.8296 33.4616H82.8064L72.5809 29.8891C72.8357 29.2 73.7795 26.8897 75.6266 26.4323V26.4381ZM194.32 31.8867C194.575 31.1977 195.519 28.8874 197.366 28.4299C199.757 27.8393 203.341 30.4334 204.575 35.465L194.32 31.8867Z" fill="#0F4CE8"/>
<path d="M34.1282 12.2373L29.4443 16.9212C28.931 17.4345 28.931 18.2667 29.4443 18.78L34.1282 23.4639C34.6415 23.9772 35.4737 23.9772 35.987 23.4639L40.6709 18.78C41.1842 18.2667 41.1842 17.4345 40.6709 16.9212L35.987 12.2373C35.4737 11.724 34.6415 11.724 34.1282 12.2373Z" fill="#0F4CE8"/>
<path d="M97.3994 12.2358L92.7155 16.9197C92.2022 17.433 92.2022 18.2652 92.7155 18.7785L97.3994 23.4624C97.9127 23.9757 98.7449 23.9757 99.2582 23.4624L103.942 18.7785C104.455 18.2652 104.455 17.433 103.942 16.9197L99.2582 12.2358C98.7449 11.7225 97.9127 11.7225 97.3994 12.2358Z" fill="#0F4CE8"/>
</svg>
