<svg width="149" height="38" viewBox="0 0 149 38" fill="none" xmlns="http://www.w3.org/2000/svg">
<rect width="39.9022" height="38" rx="3.0444" fill="#3734CA"/>
<path d="M13.5117 20.308C15.6404 22.9052 11.977 26.1177 9.52589 23.7978C7.85581 22.2575 8.91346 19.2652 11.1812 19.1622C11.7047 19.0486 13.5766 19.6321 12.9832 20.3087C12.8463 20.4075 12.6756 20.3856 12.5493 20.3306C10.9448 19.4931 9.21826 21.5159 10.5102 22.7867C11.8373 24.0539 13.7932 22.357 12.9387 20.7201C12.7503 20.3736 13.1998 19.9418 13.5117 20.308ZM29.8689 20.7243C30.7212 22.3944 28.8084 24.056 27.4488 22.7726C26.1428 21.4722 27.8439 19.4811 29.4766 20.3327C29.8181 20.5119 30.2583 20.0949 29.8886 19.7598C27.2703 17.6269 24.0684 21.3706 26.4603 23.7794C28.9234 26.1268 32.5867 22.925 30.4411 20.3115C30.1285 19.9461 29.6791 20.3779 29.8689 20.7243ZM18.1529 22.1912C16.8807 31.2754 4.2447 30.9551 3.10309 21.9125C2.51959 17.5443 6.3727 13.3779 10.7515 13.5254C10.9137 13.5282 11.0612 13.5959 11.1677 13.7025C13.3035 15.846 15.3998 18.01 17.4311 20.1556C17.9123 20.6862 18.0089 20.9536 17.9024 21.0298C18.0717 21.0319 18.2129 21.4884 18.1529 22.1912ZM17.8791 21.0411C17.7091 21.1067 17.2229 20.864 16.7918 20.4519C14.6476 18.5462 12.5655 16.6567 10.5186 14.7502C4.94392 15.0607 2.40387 21.9802 6.50817 25.8488C10.1362 29.5256 16.6797 27.1069 17.4551 22.0882C17.5835 21.42 17.7373 21.075 17.8791 21.0411ZM34.4071 26.7858C30.0191 31.1145 22.3687 28.2563 21.7492 22.1933C21.6941 21.444 21.807 21.0764 21.9658 21.0707C21.8635 20.9783 22.0088 20.6326 22.4646 20.1443C24.4903 17.9789 26.5802 15.7952 28.7096 13.6326C28.8218 13.519 28.9686 13.4598 29.1167 13.4555C36.1541 13.3074 39.4886 22.0261 34.4071 26.7858ZM35.4323 21.6853C35.857 18.1334 32.9247 14.7961 29.3637 14.679C27.3218 16.6059 25.2446 18.5152 23.1046 20.4414C22.5549 20.943 22.0991 21.1737 21.9714 21.0729C22.1259 21.0757 22.3207 21.4136 22.447 22.086C23.9886 29.5968 34.5157 29.3386 35.4323 21.6853ZM29.3771 10.085C29.95 9.47047 29.6007 8.97375 28.8782 9.58618C25.7603 12.2652 22.7814 15.0833 19.8406 17.9394C16.8031 15.1948 14.1565 12.1516 11.1543 9.4359C10.9053 9.20377 10.6245 9.081 10.4728 9.15367C10.2879 9.24187 10.3634 9.58548 10.6414 9.91992C13.3663 13.107 16.0065 16.3977 19.1393 19.2024C19.4829 19.4924 20.029 19.7922 20.3994 19.3611C23.4679 16.3441 26.4984 13.2911 29.3771 10.085Z" fill="white"/>
<path d="M73.6053 11.3927V27.5H70.9632V16.4682L66.0499 27.5H64.219L59.2825 16.4682V27.5H56.6404V11.3927H59.4911L65.146 24.0236L70.7778 11.3927H73.6053ZM89.0135 11.3927L83.683 21.6597V27.5H81.0409V21.6597L75.6873 11.3927H78.6306L82.362 19.2957L86.0933 11.3927H89.0135ZM96.4175 27.6622C95.3359 27.6622 94.3625 27.4768 93.4973 27.106C92.6321 26.7197 91.9522 26.179 91.4578 25.4837C90.9634 24.7884 90.7162 23.9773 90.7162 23.0502H93.5437C93.6055 23.7455 93.8758 24.3172 94.3548 24.7652C94.8492 25.2133 95.5368 25.4373 96.4175 25.4373C97.3291 25.4373 98.0398 25.221 98.5497 24.7884C99.0595 24.3403 99.3145 23.7687 99.3145 23.0734C99.3145 22.5326 99.1522 22.0923 98.8278 21.7524C98.5188 21.4124 98.1248 21.1498 97.6458 20.9644C97.1823 20.779 96.5334 20.5781 95.699 20.3618C94.6484 20.0837 93.7909 19.8056 93.1265 19.5275C92.4776 19.2339 91.9213 18.7858 91.4578 18.1833C90.9943 17.5807 90.7625 16.7773 90.7625 15.773C90.7625 14.8459 90.9943 14.0348 91.4578 13.3395C91.9213 12.6442 92.5703 12.1112 93.4046 11.7403C94.2389 11.3695 95.2046 11.1841 96.3016 11.1841C97.8621 11.1841 99.1368 11.5781 100.126 12.3661C101.13 13.1386 101.686 14.2047 101.794 15.5644H98.8741C98.8278 14.9773 98.5497 14.4751 98.0398 14.0579C97.5299 13.6408 96.8578 13.4322 96.0235 13.4322C95.2664 13.4322 94.6484 13.6253 94.1694 14.0116C93.6904 14.3979 93.4509 14.9541 93.4509 15.6803C93.4509 16.1747 93.5977 16.5841 93.8913 16.9086C94.2003 17.2176 94.5866 17.4648 95.0501 17.6502C95.5136 17.8356 96.1471 18.0365 96.9505 18.2528C98.0166 18.5464 98.8819 18.8399 99.5462 19.1335C100.226 19.427 100.798 19.8828 101.261 20.5009C101.74 21.1034 101.98 21.9146 101.98 22.9343C101.98 23.7532 101.756 24.5258 101.308 25.2519C100.875 25.9781 100.234 26.5652 99.384 27.0133C98.5497 27.4459 97.5608 27.6622 96.4175 27.6622ZM108.18 16.8854V23.9541C108.18 24.433 108.288 24.7807 108.504 24.997C108.736 25.1979 109.122 25.2983 109.663 25.2983H111.285V27.5H109.199C108.01 27.5 107.098 27.2219 106.465 26.6657C105.831 26.1094 105.514 25.2056 105.514 23.9541V16.8854H104.008V14.73H105.514V11.5549H108.18V14.73H111.285V16.8854H108.18ZM125.424 20.8021C125.424 21.2811 125.393 21.7137 125.331 22.1H115.574C115.652 23.1197 116.03 23.9386 116.71 24.5567C117.39 25.1747 118.224 25.4837 119.213 25.4837C120.634 25.4837 121.639 24.8888 122.226 23.6991H125.077C124.69 24.8734 123.987 25.8391 122.968 26.5961C121.963 27.3378 120.712 27.7086 119.213 27.7086C117.992 27.7086 116.895 27.4382 115.922 26.8974C114.964 26.3412 114.207 25.5687 113.651 24.5798C113.11 23.5755 112.84 22.4167 112.84 21.1034C112.84 19.7901 113.102 18.6391 113.628 17.6502C114.168 16.6459 114.918 15.8734 115.876 15.3326C116.849 14.7918 117.962 14.5215 119.213 14.5215C120.418 14.5215 121.492 14.7841 122.434 15.3094C123.377 15.8348 124.111 16.5764 124.636 17.5343C125.162 18.4768 125.424 19.5661 125.424 20.8021ZM122.666 19.9678C122.651 18.9944 122.303 18.2142 121.623 17.627C120.943 17.0399 120.101 16.7464 119.097 16.7464C118.186 16.7464 117.405 17.0399 116.756 17.627C116.107 18.1987 115.721 18.979 115.598 19.9678H122.666ZM130.666 16.5841C131.053 15.9352 131.562 15.433 132.196 15.0777C132.845 14.7069 133.61 14.5215 134.49 14.5215V17.2562H133.818C132.783 17.2562 131.995 17.5189 131.454 18.0442C130.929 18.5695 130.666 19.4811 130.666 20.779V27.5H128.024V14.73H130.666V16.5841ZM148.414 14.73L140.581 33.5026H137.846L140.442 27.2914L135.412 14.73H138.356L141.948 24.4639L145.679 14.73H148.414Z" fill="#3734CA"/>
</svg>
