<?xml version="1.0" encoding="utf-8"?>
<!-- Generator: Adobe Illustrator 27.9.0, SVG Export Plug-In . SVG Version: 6.00 Build 0)  -->
<svg version="1.1" id="Layer_1" xmlns="http://www.w3.org/2000/svg" xmlns:xlink="http://www.w3.org/1999/xlink" x="0px" y="0px"
	 viewBox="0 0 1024 512" style="enable-background:new 0 0 1024 512;" xml:space="preserve">
<style type="text/css">
	.st0{fill:#F3B51A;}
	.st1{fill:#FFFFFF;}
</style>
<g>
	<path class="st0" d="M459.1,286.8c13.6,17.6,21.8,39.3,22.7,61.4c1.3,29.6-10.4,59.6-31.5,80.8c-45.5,45.7-130.7,51.9-189.2,30.2
		c-25-9.3-49.6-23.2-60.5-47.5c26.5,36.1,73.4,50.7,118.8,50.7c19.1,0,38.6-2.4,56-10.1c21.5-9.5,38.4-27,42.4-50.2
		c2.6-15,0.3-30.4-4.3-44.9c-6.4-20.1-17.5-39-33.6-52.9c-19.2-16.5-44-24.9-67.8-33.7c-32.6-12.1-72.8-27.5-95.8-54.3
		c-22-25.7-24.7-65-11.3-95.1C220.3,87.4,253.6,63.3,290,54c22.5-5.8,46.2-6.9,69.2-3.9C381.3,53,404.6,59,423,72.2
		c11.6,8.3,21.6,18.8,30,30.3c4.6,6.3,8.7,13,12.1,19.9c3.4,6.8,4.8,14.7,8.2,21.4c-19.6-38.3-56.3-76.9-100.7-83.8
		c-32.5-5-71.2,1.9-97.8,21.7c-17.9,13.3-28.5,33.2-27.8,55.7c0.8,27.4,20,51.7,43.5,66.7c23.5,15,51,22.5,77.8,30.6
		c26.8,8.1,54,17.6,75.2,35.5C449.2,275.2,454.5,280.8,459.1,286.8z"/>
	<g>
		<g>
			<path class="st1" d="M121.9,271.3h34.5l59.1,107.3l51.7-98.3h34.5l-86.2,163.3L121.9,271.3z"/>
			<path class="st1" d="M328.3,432.5h-30.4V300.7l30.4-10.1V432.5z"/>
			<path class="st1" d="M538.5,432.5h-30.4V300.7l30.4-10.1V432.5z"/>
			<path class="st1" d="M620.9,320.9v111.5h-30.4V320.9h-40.6l10.1-30.4h91.3v30.4H620.9z"/>
			<path class="st1" d="M722.2,432.5c-19.6,0-36.3-6.9-50.2-20.8c-13.9-13.9-20.8-30.6-20.8-50.2c0-19.6,6.9-36.3,20.8-50.2
				c13.9-13.9,30.6-20.8,50.2-20.8c19.6,0,36.3,6.9,50.2,20.8c13.9,13.9,20.8,30.6,20.8,50.2c0,19.6-6.9,36.3-20.8,50.2
				C758.5,425.6,741.8,432.5,722.2,432.5z M722.2,402.1c11.2,0,20.8-4,28.7-11.9c7.9-7.9,11.9-17.5,11.9-28.7
				c0-11.2-4-20.8-11.9-28.7s-17.5-11.9-28.7-11.9c-11.2,0-20.8,4-28.7,11.9c-7.9,7.9-11.9,17.5-11.9,28.7c0,11.2,4,20.8,11.9,28.7
				C701.4,398.1,711,402.1,722.2,402.1z"/>
			<path class="st1" d="M840.1,376.7v45.6l-30.4,10.1v-142H868c28.7,0,43.1,14.4,43.1,43.1c0,22.6-8.9,36.4-26.8,41.2l36,57.7h-35.9
				l-34.8-55.8H840.1z M840.1,346.3H868c8.5,0,12.7-4.2,12.7-12.7c0-8.5-4.2-12.7-12.7-12.7h-27.9V346.3z"/>
		</g>
		<g>
			<path class="st1" d="M442.6,182.9h51.8l-7.6,22.9h-44.1c1.7,5.8,4.9,10.9,9.5,15.5c7.4,7.5,16.4,11.2,27,11.2h30.5l-7.6,22.9
				h-22.9c-16.9,0-31.2-6-43.1-17.9c-9.2-9.1-14.8-19.7-17-31.7h-8.6l7.6-22.9h1c2.1-12,7.8-22.6,17-31.8
				c11.9-11.9,26.3-17.9,43.1-17.9h30.5l-7.6,22.9h-22.9c-10.5,0-19.5,3.7-27,11.1C447.5,171.9,444.3,177.1,442.6,182.9z"/>
			<path class="st1" d="M602.8,215.5l19.1,12.7c-2.2,3.3-4.8,6.3-7.7,9.2c-12,12-26.4,17.9-43.2,17.9c-16.8,0-31.2-6-43.2-17.9
				c-11.9-11.9-17.9-26.3-17.9-43.2c0-16.8,6-31.2,17.9-43.2c11.9-11.9,26.3-17.9,43.2-17.9c16.8,0,31.3,6,43.2,17.9
				c2.9,3,5.5,6.1,7.7,9.3l-19.1,12.7c-1.4-2-3-3.9-4.8-5.8c-7.5-7.4-16.5-11.1-27-11.1c-10.5,0-19.5,3.7-27,11.2
				c-7.5,7.5-11.2,16.5-11.2,27c0,10.5,3.7,19.5,11.2,27c7.5,7.5,16.5,11.2,27,11.2c10.5,0,19.5-3.7,27-11.2
				C599.8,219.4,601.4,217.5,602.8,215.5z"/>
			<path class="st1" d="M654.7,205.8v49.6h-22.9v-49.6h-7.6l7.6-22.9v-49.6h55.4c24.2,0,36.3,12.1,36.3,36.3
				c0,22.2-10.2,34.2-30.5,36l49.9,49.9h-32.4l-49.6-49.6H654.7z M654.7,182.9h32.5c8.9,0,13.4-4.5,13.4-13.4
				c0-8.9-4.5-13.4-13.4-13.4h-32.5V182.9z"/>
			<path class="st1" d="M761.8,182.9h51.8l-7.6,22.9h-44.1c1.7,5.8,4.9,10.9,9.5,15.5c7.4,7.5,16.4,11.2,27,11.2h30.5l-7.6,22.9
				h-22.9c-16.8,0-31.2-6-43.1-17.9c-9.2-9.1-14.8-19.7-17-31.7h-8.6l7.6-22.9h1c2.1-12,7.8-22.6,17-31.8
				c11.9-11.9,26.3-17.9,43.1-17.9h30.5l-7.6,22.9h-22.9c-10.5,0-19.5,3.7-27,11.1C766.7,171.9,763.5,177.1,761.8,182.9z"/>
			<path class="st1" d="M889.9,156.1v99.3H867v-99.3h-38.2l7.6-22.9h84v22.9H889.9z"/>
		</g>
	</g>
</g>
</svg>
