<svg width="149" height="38" viewBox="0 0 149 38" fill="none" xmlns="http://www.w3.org/2000/svg">
<rect width="39.9022" height="38" rx="3.0444" fill="#3734CA"/>
<path d="M13.5116 20.3083C15.6403 22.9055 11.977 26.1179 9.52583 23.798C7.85575 22.2577 8.91339 19.2654 11.1811 19.1624C11.7046 19.0488 13.5765 19.6323 12.9831 20.309C12.8462 20.4077 12.6755 20.3859 12.5492 20.3308C10.9447 19.4933 9.2182 21.5162 10.5101 22.7869C11.8373 24.0541 13.7931 22.3572 12.9387 20.7203C12.7503 20.3739 13.1997 19.9421 13.5116 20.3083ZM29.8688 20.7245C30.7211 22.3946 28.8083 24.0562 27.4487 22.7728C26.1427 21.4724 27.8438 19.4813 29.4765 20.333C29.818 20.5122 30.2583 20.0952 29.8886 19.76C27.2702 17.6271 24.0683 21.3708 26.4602 23.7797C28.9233 26.1271 32.5867 22.9252 30.441 20.3118C30.1285 19.9463 29.679 20.3781 29.8688 20.7245ZM18.1528 22.1914C16.8807 31.2756 4.24464 30.9553 3.10303 21.9127C2.51953 17.5445 6.37264 13.3782 10.7514 13.5256C10.9137 13.5284 11.0611 13.5962 11.1677 13.7027C13.3034 15.8462 15.3997 18.0102 17.431 20.1559C17.9122 20.6864 18.0089 20.9539 17.9023 21.0301C18.0717 21.0322 18.2128 21.4887 18.1528 22.1914ZM17.8791 21.0413C17.709 21.107 17.2229 20.8642 16.7918 20.4522C14.6476 18.5465 12.5654 16.6569 10.5186 14.7505C4.94386 15.0609 2.40381 21.9805 6.50811 25.8491C10.1361 29.5258 16.6796 27.1071 17.455 22.0884C17.5834 21.4202 17.7372 21.0752 17.8791 21.0413ZM34.407 26.7861C30.0191 31.1148 22.3686 28.2565 21.7491 22.1935C21.6941 21.4442 21.807 21.0766 21.9657 21.071C21.8634 20.9785 22.0088 20.6328 22.4646 20.1446C24.4902 17.9792 26.5801 15.7954 28.7096 13.6329C28.8217 13.5193 28.9685 13.46 29.1167 13.4558C36.154 13.3076 39.4885 22.0263 34.407 26.7861ZM35.4322 21.6855C35.857 18.1337 32.9246 14.7964 29.3636 14.6792C27.3217 16.6061 25.2445 18.5154 23.1045 20.4416C22.5549 20.9433 22.0991 21.174 21.9714 21.0731C22.1259 21.0759 22.3206 21.4139 22.4469 22.0863C23.9886 29.5971 34.5157 29.3388 35.4322 21.6855ZM29.377 10.0853C29.9499 9.47071 29.6007 8.97399 28.8782 9.58643C25.7603 12.2655 22.7814 15.0835 19.8405 17.9397C16.8031 15.195 14.1565 12.1519 11.1543 9.43614C10.9052 9.20401 10.6244 9.08124 10.4727 9.15391C10.2878 9.24211 10.3633 9.58572 10.6413 9.92016C13.3662 13.1072 16.0065 16.398 19.1392 19.2026C19.4828 19.4926 20.0289 19.7925 20.3994 19.3614C23.4679 16.3444 26.4983 13.2914 29.377 10.0853Z" fill="white"/>
<path d="M73.6052 11.3927V27.5H70.9632V16.4682L66.0499 27.5H64.219L59.2825 16.4682V27.5H56.6404V11.3927H59.4911L65.146 24.0236L70.7778 11.3927H73.6052ZM89.0134 11.3927L83.683 21.6597V27.5H81.0409V21.6597L75.6873 11.3927H78.6306L82.3619 19.2957L86.0933 11.3927H89.0134ZM96.4174 27.6622C95.3359 27.6622 94.3625 27.4768 93.4973 27.106C92.632 26.7197 91.9522 26.179 91.4578 25.4837C90.9634 24.7884 90.7162 23.9773 90.7162 23.0502H93.5436C93.6054 23.7455 93.8758 24.3172 94.3548 24.7652C94.8492 25.2133 95.5368 25.4373 96.4174 25.4373C97.329 25.4373 98.0398 25.221 98.5496 24.7884C99.0595 24.3403 99.3144 23.7687 99.3144 23.0734C99.3144 22.5326 99.1522 22.0923 98.8277 21.7524C98.5187 21.4124 98.1247 21.1498 97.6458 20.9644C97.1823 20.779 96.5333 20.5781 95.699 20.3618C94.6483 20.0837 93.7908 19.8056 93.1265 19.5275C92.4775 19.2339 91.9213 18.7858 91.4578 18.1833C90.9943 17.5807 90.7625 16.7773 90.7625 15.773C90.7625 14.8459 90.9943 14.0348 91.4578 13.3395C91.9213 12.6442 92.5702 12.1112 93.4046 11.7403C94.2389 11.3695 95.2046 11.1841 96.3016 11.1841C97.8621 11.1841 99.1368 11.5781 100.126 12.3661C101.13 13.1386 101.686 14.2047 101.794 15.5644H98.8741C98.8277 14.9773 98.5496 14.4751 98.0398 14.0579C97.5299 13.6408 96.8578 13.4322 96.0235 13.4322C95.2664 13.4322 94.6483 13.6253 94.1694 14.0116C93.6904 14.3979 93.4509 14.9541 93.4509 15.6803C93.4509 16.1747 93.5977 16.5841 93.8913 16.9086C94.2003 17.2176 94.5865 17.4648 95.0501 17.6502C95.5136 17.8356 96.1471 18.0365 96.9505 18.2528C98.0166 18.5464 98.8818 18.8399 99.5462 19.1335C100.226 19.427 100.798 19.8828 101.261 20.5009C101.74 21.1034 101.98 21.9146 101.98 22.9343C101.98 23.7532 101.756 24.5258 101.308 25.2519C100.875 25.9781 100.234 26.5652 99.384 27.0133C98.5496 27.4459 97.5608 27.6622 96.4174 27.6622ZM108.18 16.8854V23.9541C108.18 24.433 108.288 24.7807 108.504 24.997C108.736 25.1979 109.122 25.2983 109.663 25.2983H111.285V27.5H109.199C108.01 27.5 107.098 27.2219 106.465 26.6657C105.831 26.1094 105.514 25.2056 105.514 23.9541V16.8854H104.008V14.73H105.514V11.5549H108.18V14.73H111.285V16.8854H108.18ZM125.424 20.8021C125.424 21.2811 125.393 21.7137 125.331 22.1H115.574C115.652 23.1197 116.03 23.9386 116.71 24.5567C117.39 25.1747 118.224 25.4837 119.213 25.4837C120.634 25.4837 121.639 24.8888 122.226 23.6991H125.077C124.69 24.8734 123.987 25.8391 122.968 26.5961C121.963 27.3378 120.712 27.7086 119.213 27.7086C117.992 27.7086 116.895 27.4382 115.922 26.8974C114.964 26.3412 114.207 25.5687 113.651 24.5798C113.11 23.5755 112.84 22.4167 112.84 21.1034C112.84 19.7901 113.102 18.6391 113.628 17.6502C114.168 16.6459 114.918 15.8734 115.876 15.3326C116.849 14.7918 117.961 14.5215 119.213 14.5215C120.418 14.5215 121.492 14.7841 122.434 15.3094C123.377 15.8348 124.111 16.5764 124.636 17.5343C125.161 18.4768 125.424 19.5661 125.424 20.8021ZM122.666 19.9678C122.651 18.9944 122.303 18.2142 121.623 17.627C120.943 17.0399 120.101 16.7464 119.097 16.7464C118.186 16.7464 117.405 17.0399 116.756 17.627C116.107 18.1987 115.721 18.979 115.598 19.9678H122.666ZM130.666 16.5841C131.053 15.9352 131.562 15.433 132.196 15.0777C132.845 14.7069 133.61 14.5215 134.49 14.5215V17.2562H133.818C132.783 17.2562 131.995 17.5189 131.454 18.0442C130.929 18.5695 130.666 19.4811 130.666 20.779V27.5H128.024V14.73H130.666V16.5841ZM148.414 14.73L140.581 33.5026H137.846L140.442 27.2914L135.412 14.73H138.356L141.948 24.4639L145.679 14.73H148.414Z" fill="#3734CA"/>
</svg>
