<svg width="21" height="21" viewBox="0 0 21 21" fill="none" xmlns="http://www.w3.org/2000/svg">
<path d="M10.5001 14.483C11.8999 14.483 13.0347 13.3483 13.0347 11.9485C13.0347 10.5488 11.8999 9.41406 10.5001 9.41406C9.10038 9.41406 7.96564 10.5488 7.96564 11.9485C7.96564 13.3483 9.10038 14.483 10.5001 14.483Z" fill="white"/>
<path d="M18.1055 5.79351H15.7311C15.579 5.79354 15.4308 5.74572 15.3075 5.65682C15.1841 5.56792 15.0919 5.44245 15.0438 5.2982L14.815 4.61099C14.7188 4.32262 14.5343 4.07184 14.2876 3.89417C14.0409 3.71651 13.7446 3.62097 13.4406 3.62109H7.56271C7.25874 3.62117 6.9625 3.71689 6.71596 3.89468C6.46941 4.07247 6.28506 4.32333 6.189 4.61171L5.96017 5.2982C5.91213 5.44245 5.81989 5.56792 5.69655 5.65682C5.5732 5.74572 5.425 5.79354 5.27296 5.79351H2.89849C2.51438 5.79351 2.146 5.94609 1.87439 6.2177C1.60278 6.4893 1.4502 6.85768 1.4502 7.24178V15.9314C1.4502 16.3155 1.60278 16.6839 1.87439 16.9555C2.146 17.2271 2.51438 17.3797 2.89849 17.3797H18.1055C18.4896 17.3797 18.858 17.2271 19.1296 16.9555C19.4012 16.6839 19.5538 16.3155 19.5538 15.9314V7.24178C19.5538 6.85768 19.4012 6.4893 19.1296 6.2177C18.858 5.94609 18.4896 5.79351 18.1055 5.79351ZM10.502 15.9314C8.3064 15.9314 6.51921 14.1443 6.51921 11.9487C6.51921 9.75309 8.3064 7.96592 10.502 7.96592C12.6976 7.96592 14.4848 9.75309 14.4848 11.9487C14.4848 14.1443 12.6976 15.9314 10.502 15.9314ZM14.8469 8.69006C14.6548 8.69006 14.4706 8.61377 14.3348 8.47796C14.199 8.34216 14.1227 8.15798 14.1227 7.96592C14.1227 7.77387 14.199 7.58968 14.3348 7.45388C14.4706 7.31808 14.6548 7.24178 14.8469 7.24178C15.0389 7.24178 15.2231 7.31808 15.3589 7.45388C15.4947 7.58968 15.571 7.77387 15.571 7.96592C15.571 8.15798 15.4947 8.34216 15.3589 8.47796C15.2231 8.61377 15.0389 8.69006 14.8469 8.69006Z" fill="white"/>
<path d="M3.98425 5.06984H2.53596C2.43993 5.06984 2.34784 5.03169 2.27994 4.96379C2.21204 4.89589 2.17389 4.8038 2.17389 4.70777C2.17389 4.61175 2.21204 4.51965 2.27994 4.45175C2.34784 4.38385 2.43993 4.3457 2.53596 4.3457H3.98425C4.08028 4.3457 4.17237 4.38385 4.24028 4.45175C4.30818 4.51965 4.34632 4.61175 4.34632 4.70777C4.34632 4.8038 4.30818 4.89589 4.24028 4.96379C4.17237 5.03169 4.08028 5.06984 3.98425 5.06984Z" fill="white"/>
</svg>
