<svg width="19" height="20" viewBox="0 0 19 20" fill="none" xmlns="http://www.w3.org/2000/svg">
<path fill-rule="evenodd" clip-rule="evenodd" d="M2.28125 8.6875C2.28125 4.72341 5.43699 1.90625 9.5 1.90625C13.563 1.90625 16.7188 4.72341 16.7188 8.6875C16.7188 11.9083 15.2886 14.2601 13.6426 15.8185C12.8171 16.6 11.9418 17.1768 11.1773 17.5558C10.3911 17.9454 9.78811 18.0936 9.5 18.0936C9.21189 18.0936 8.60886 17.9454 7.82269 17.5558C7.05823 17.1768 6.18293 16.6 5.35742 15.8185C3.71135 14.2601 2.28125 11.9083 2.28125 8.6875ZM9.5 0.59375C4.81301 0.59375 0.96875 3.90159 0.96875 8.6875C0.96875 12.337 2.60115 15.0164 4.45508 16.7716C5.37957 17.6469 6.36364 18.2974 7.23981 18.7317C8.09427 19.1552 8.91311 19.4061 9.5 19.4061C10.0869 19.4061 10.9057 19.1552 11.7602 18.7317C12.6364 18.2974 13.6204 17.6469 14.5449 16.7716C16.3989 15.0164 18.0312 12.337 18.0312 8.6875C18.0312 3.90159 14.187 0.59375 9.5 0.59375ZM7.53125 9.125C7.53125 8.03769 8.41269 7.15625 9.5 7.15625C10.5873 7.15625 11.4688 8.03769 11.4688 9.125C11.4688 10.2123 10.5873 11.0938 9.5 11.0938C8.41269 11.0938 7.53125 10.2123 7.53125 9.125ZM9.5 5.84375C7.68782 5.84375 6.21875 7.31282 6.21875 9.125C6.21875 10.9372 7.68782 12.4062 9.5 12.4062C11.3122 12.4062 12.7812 10.9372 12.7812 9.125C12.7812 7.31282 11.3122 5.84375 9.5 5.84375Z" fill="#8E8E93"/>
</svg>
