<svg width="72" height="72" viewBox="0 0 72 72" fill="none" xmlns="http://www.w3.org/2000/svg">
<path d="M36.0003 49.6573C40.7995 49.6573 44.69 45.7668 44.69 40.9676C44.69 36.1684 40.7995 32.278 36.0003 32.278C31.2011 32.278 27.3105 36.1684 27.3105 40.9676C27.3105 45.7668 31.2011 49.6573 36.0003 49.6573Z" fill="#DCDCDC"/>
<path d="M62.0757 19.8644H53.9347C53.4134 19.8645 52.9052 19.7006 52.4823 19.3958C52.0594 19.091 51.7432 18.6608 51.5785 18.1662L50.7939 15.8101C50.464 14.8214 49.8314 13.9615 48.9857 13.3524C48.1399 12.7433 47.1239 12.4157 46.0816 12.4161H25.9289C24.8867 12.4164 23.871 12.7446 23.0257 13.3541C22.1804 13.9637 21.5483 14.8238 21.219 15.8126L20.4345 18.1662C20.2697 18.6608 19.9535 19.091 19.5306 19.3958C19.1077 19.7006 18.5996 19.8645 18.0783 19.8644H9.93725C8.6203 19.8644 7.35728 20.3876 6.42606 21.3188C5.49484 22.25 4.97168 23.513 4.97168 24.8299V54.623C4.97168 55.94 5.49484 57.203 6.42606 58.1342C7.35728 59.0654 8.6203 59.5886 9.93725 59.5886H62.0757C63.3927 59.5886 64.6557 59.0654 65.5869 58.1342C66.5181 57.203 67.0413 55.94 67.0413 54.623V24.8299C67.0413 23.513 66.5181 22.25 65.5869 21.3188C64.6557 20.3876 63.3927 19.8644 62.0757 19.8644ZM36.0065 54.623C28.4787 54.623 22.3512 48.4956 22.3512 40.9679C22.3512 33.4401 28.4787 27.3127 36.0065 27.3127C43.5343 27.3127 49.6618 33.4401 49.6618 40.9679C49.6618 48.4956 43.5343 54.623 36.0065 54.623ZM50.9032 29.7954C50.2447 29.7954 49.6132 29.5339 49.1476 29.0683C48.682 28.6027 48.4204 27.9712 48.4204 27.3127C48.4204 26.6542 48.682 26.0227 49.1476 25.5571C49.6132 25.0915 50.2447 24.8299 50.9032 24.8299C51.5616 24.8299 52.1932 25.0915 52.6588 25.5571C53.1244 26.0227 53.386 26.6542 53.386 27.3127C53.386 27.9712 53.1244 28.6027 52.6588 29.0683C52.1932 29.5339 51.5616 29.7954 50.9032 29.7954Z" fill="#DCDCDC"/>
<path d="M13.6601 17.3817H8.69452C8.36528 17.3817 8.04953 17.2509 7.81672 17.0181C7.58391 16.7853 7.45312 16.4695 7.45312 16.1403C7.45312 15.8111 7.58391 15.4953 7.81672 15.2625C8.04953 15.0297 8.36528 14.8989 8.69452 14.8989H13.6601C13.9893 14.8989 14.3051 15.0297 14.5379 15.2625C14.7707 15.4953 14.9015 15.8111 14.9015 16.1403C14.9015 16.4695 14.7707 16.7853 14.5379 17.0181C14.3051 17.2509 13.9893 17.3817 13.6601 17.3817Z" fill="#DCDCDC"/>
</svg>
