<svg width="60" height="57" viewBox="0 0 60 57" fill="none" xmlns="http://www.w3.org/2000/svg">
<g opacity="0.2">
<path d="M5.64825 20.0219C5.944 20.8434 6.35375 21.5634 6.811 22.2316L6.399 25.2296C5.968 28.2961 5.7495 31.4746 5.7495 34.6754C5.7495 38.3814 6.04625 42.0851 6.63075 45.6691C7.3315 50.0709 10.719 53.4596 15.0622 54.0994C19.1895 54.7049 23.3435 55.0051 27.4987 55.0051C31.6552 55.0051 35.8117 54.7024 39.9402 54.0994C44.2809 53.4596 47.6684 50.0711 48.3692 45.6691C49.4234 39.1146 49.5097 32.4554 48.6629 25.8456C51.3229 24.7904 53.4142 22.7076 54.3444 20.0394C54.7789 18.8621 54.9999 17.5879 54.9999 16.2499C54.9999 14.9119 54.7789 13.6376 54.3602 12.5024C53.1322 8.97938 49.8399 6.40363 45.9727 5.94238C35.5602 4.69238 24.4382 4.69238 14.0282 5.94238C10.16 6.40363 6.86775 8.97938 5.6555 12.4609C5.221 13.6376 5 14.9119 5 16.2499C5 17.5879 5.221 18.8621 5.64825 20.0219ZM43.4314 44.8779L43.4302 44.8829C43.0812 47.0826 41.3452 48.8379 39.2127 49.1529C31.4442 50.2906 23.561 50.2906 15.79 49.1529C13.655 48.8379 11.9192 47.0826 11.5675 44.8731C11.0255 41.5454 10.7497 38.1129 10.7497 34.6754C10.7497 31.7066 10.9525 28.7624 11.3515 25.9181L11.3565 25.8791C11.5402 25.9531 11.7345 26.0006 11.9227 26.0639C12.078 26.1159 12.23 26.1709 12.388 26.2156C12.9247 26.3681 13.4707 26.4926 14.0322 26.5576C16.5885 26.8589 19.1535 27.0801 21.7227 27.2361C22.629 27.2911 23.5367 27.2954 24.444 27.3324C26.1125 27.4001 27.78 27.4724 29.4497 27.4791C29.6327 27.4796 29.8162 27.4949 30 27.4949C30.8732 27.4949 31.7452 27.4349 32.6185 27.4181C34.1432 27.3889 35.667 27.3644 37.19 27.2841C38.2922 27.2261 39.3897 27.1254 40.4902 27.0406C41.5812 26.9566 42.6749 26.9094 43.7634 26.7991C44.5067 32.8174 44.3944 38.8964 43.4314 44.8779ZM30 9.99988C35.1927 9.99988 40.3675 10.3051 45.3784 10.9081C47.3632 11.1449 49.0357 12.4169 49.6544 14.1894C49.8864 14.8216 49.9999 15.4954 49.9999 16.2499C49.9999 17.0044 49.8864 17.6781 49.6399 18.3494C49.0539 20.0241 47.4487 21.2816 45.5494 21.5501C45.4689 21.5624 45.3784 21.5794 45.2919 21.6014C40.2037 22.1994 35.0795 22.4959 29.9555 22.4936C25.9462 22.4919 21.9425 22.2521 17.9507 21.8856C19.3287 19.7636 19.708 17.7676 19.7155 16.2401C19.725 14.2744 19.129 12.3784 18.0027 10.6064C21.9527 10.2401 25.9587 9.99988 30 9.99988ZM10.3612 14.1479C10.725 13.1039 11.5052 12.2639 12.481 11.6801C13.6632 12.8509 14.725 14.4044 14.7155 16.2156C14.707 18.0459 13.6055 19.6109 12.3875 20.7876C11.9747 20.5304 11.585 20.2359 11.2585 19.8754C10.8862 19.4726 10.5725 18.9379 10.3455 18.3104C10.1135 17.6781 9.99999 17.0044 9.99999 16.2499C9.99999 15.4954 10.1135 14.8216 10.3612 14.1479Z" fill="white"/>
<path d="M29.7558 32.7581L24.4894 38.5818C24.4894 38.5818 24.4894 38.5818 22.7033 41.548C22.1053 42.5409 21.9399 43.2845 22.7033 44.2L22.8085 44.39C22.9829 44.5971 23.201 44.7909 23.4477 44.9433C24.6907 45.7124 26.3553 45.3796 27.166 44.2L27.2407 44.091L33.2959 35.2777C33.8957 34.4068 33.7369 33.2276 32.8826 32.5315C31.9533 31.7748 30.5534 31.8762 29.7558 32.7581Z" fill="white"/>
<path d="M22.6668 35.3855L26.9291 41.9798C26.9291 41.9798 26.9291 41.9798 29.3319 44.4727C30.1362 45.3073 30.8117 45.6595 31.8936 45.1591L32.1043 45.1067C32.3494 44.9918 32.5931 44.8313 32.8042 44.6324C33.8688 43.6308 33.9782 41.9369 33.0486 40.8485L32.9627 40.7481L26.0169 32.6182C25.3308 31.8133 24.1507 31.6616 23.2573 32.3066C22.2858 33.0084 22.0214 34.3868 22.6668 35.3855Z" fill="white"/>
</g>
</svg>
