<svg width="20" height="20" viewBox="0 0 20 20" fill="none" xmlns="http://www.w3.org/2000/svg">
<path d="M13.094 13.9776L6.0229 6.90651C5.78131 6.66492 5.78131 6.26423 6.0229 6.02263C6.2645 5.78104 6.66519 5.78104 6.90679 6.02263L13.9779 13.0937C14.2194 13.3353 14.2194 13.736 13.9779 13.9776C13.7363 14.2192 13.3356 14.2192 13.094 13.9776Z" fill="#1F1F1F"/>
<path d="M6.02215 13.9776C5.78055 13.736 5.78055 13.3353 6.02215 13.0937L13.0932 6.02263C13.3348 5.78104 13.7355 5.78104 13.9771 6.02263C14.2187 6.26423 14.2187 6.66492 13.9771 6.90651L6.90603 13.9776C6.66444 14.2192 6.26374 14.2192 6.02215 13.9776Z" fill="#1F1F1F"/>
</svg>
