<svg width="30" height="29" viewBox="0 0 30 29" fill="none" xmlns="http://www.w3.org/2000/svg">
<path fill-rule="evenodd" clip-rule="evenodd" d="M4.42632 27.721L4.59067 28.7074C5.43811 28.5662 6.16329 28.1918 6.6969 27.9162C6.82806 27.8485 6.94765 27.7867 7.05464 27.7359C7.62134 27.4666 8.09552 27.3258 8.80522 27.4927C8.9525 27.5274 9.4406 27.6998 10.6317 28.1259C11.9629 28.6021 13.3814 28.8334 15.0001 28.8334C22.9162 28.8334 29.3335 22.4162 29.3335 14.5001C29.3335 6.58399 22.9162 0.166743 15.0001 0.166743C7.08404 0.166743 0.666789 6.58399 0.666789 14.5001C0.666789 16.647 1.13989 18.6861 1.98795 20.5168L2.019 20.5838C2.65661 21.9598 3.02075 22.7456 2.71175 23.8209L3.37089 24.0103L2.71175 23.8209C2.65143 24.0308 2.55906 24.2308 2.43139 24.5074L2.43138 24.5074C2.39379 24.5888 2.35315 24.6768 2.30936 24.7737C2.14107 25.146 1.92805 25.6505 1.8817 26.2148C1.75728 27.7297 3.09135 28.9572 4.59066 28.7074L4.42632 27.721ZM9.66695 10.8334C9.11467 10.8334 8.66695 11.2811 8.66695 11.8334C8.66695 12.3857 9.11467 12.8334 9.66695 12.8334H20.3336C20.8859 12.8334 21.3336 12.3857 21.3336 11.8334C21.3336 11.2811 20.8859 10.8334 20.3336 10.8334H9.66695ZM8.66695 17.1667C8.66695 16.6145 9.11467 16.1667 9.66695 16.1667H15.0003C15.5526 16.1667 16.0003 16.6145 16.0003 17.1667C16.0003 17.719 15.5526 18.1667 15.0003 18.1667H9.66695C9.11467 18.1667 8.66695 17.719 8.66695 17.1667Z" fill="#27AE60"/>
</svg>
