<svg width="24" height="23" viewBox="0 0 24 23" fill="none" xmlns="http://www.w3.org/2000/svg">
<path fill-rule="evenodd" clip-rule="evenodd" d="M4.53028 0.469751C4.82317 0.762645 4.82317 1.23752 4.53028 1.53041L1.53028 4.53041C1.23739 4.8233 0.762512 4.8233 0.469619 4.53041C0.176726 4.23752 0.176726 3.76264 0.469619 3.46975L3.46962 0.469751C3.76251 0.176858 4.23739 0.176858 4.53028 0.469751ZM2.74995 12.0001C2.74995 6.89145 6.89131 2.75008 11.9999 2.75008C17.1086 2.75008 21.2499 6.89145 21.2499 12.0001C21.2499 17.1087 17.1086 21.2501 11.9999 21.2501C6.89131 21.2501 2.74995 17.1087 2.74995 12.0001ZM11.9999 1.25008C6.06289 1.25008 1.24995 6.06302 1.24995 12.0001C1.24995 17.9371 6.06289 22.7501 11.9999 22.7501C17.937 22.7501 22.7499 17.9371 22.7499 12.0001C22.7499 6.06302 17.937 1.25008 11.9999 1.25008ZM12.7499 8.00008C12.7499 7.58587 12.4142 7.25008 11.9999 7.25008C11.5857 7.25008 11.2499 7.58587 11.2499 8.00008V12.0001C11.2499 12.2508 11.3753 12.485 11.5839 12.6241L14.5839 14.6241C14.9286 14.8539 15.3942 14.7608 15.624 14.4161C15.8538 14.0715 15.7606 13.6058 15.416 13.376L12.7499 11.5987V8.00008ZM19.4696 1.53041C19.1767 1.23752 19.1767 0.762645 19.4696 0.469751C19.7625 0.176858 20.2374 0.176858 20.5303 0.469751L23.5303 3.46975C23.8232 3.76264 23.8232 4.23752 23.5303 4.53041C23.2374 4.8233 22.7625 4.8233 22.4696 4.53041L19.4696 1.53041Z" fill="#A5A5A5"/>
</svg>
