<svg width="24" height="24" viewBox="0 0 24 24" fill="none" xmlns="http://www.w3.org/2000/svg">
<g clip-path="url(#clip0_240_3024)">
<path d="M6.76933 19.3847H16.0001C16.5722 19.383 17.1203 19.1545 17.5241 18.7492C17.9279 18.3439 18.1544 17.7949 18.1539 17.2228V12.5847C18.1539 12.4214 18.0891 12.2649 17.9737 12.1495C17.8583 12.0341 17.7018 11.9693 17.5386 11.9693C17.3753 11.9693 17.2188 12.0341 17.1034 12.1495C16.988 12.2649 16.9232 12.4214 16.9232 12.5847V17.2228C16.924 17.4686 16.8273 17.7047 16.6542 17.8793C16.4811 18.0538 16.2459 18.1526 16.0001 18.1539H6.76933C6.52352 18.1526 6.28828 18.0538 6.11522 17.8793C5.94216 17.7047 5.84543 17.4686 5.84625 17.2228V8.00804C5.84543 7.76223 5.94216 7.52615 6.11522 7.35159C6.28828 7.17703 6.52352 7.07826 6.76933 7.07696H11.3847C11.5479 7.07696 11.7044 7.01213 11.8199 6.89672C11.9353 6.78131 12.0001 6.62479 12.0001 6.46158C12.0001 6.29837 11.9353 6.14184 11.8199 6.02643C11.7044 5.91103 11.5479 5.84619 11.3847 5.84619H6.76933C6.1972 5.84782 5.6491 6.07636 5.2453 6.48167C4.8415 6.88697 4.61499 7.43591 4.61548 8.00804V17.2228C4.61499 17.7949 4.8415 18.3439 5.2453 18.7492C5.6491 19.1545 6.1972 19.383 6.76933 19.3847Z" fill="#455A64"/>
<path d="M10.6535 11.1041L10.1679 13.3281C10.1459 13.429 10.1497 13.5338 10.1788 13.6328C10.208 13.7319 10.2616 13.822 10.3347 13.8949C10.4088 13.9659 10.499 14.0181 10.5975 14.0469C10.6961 14.0757 10.8001 14.0804 10.9008 14.0604L13.1199 13.5737C13.2351 13.5484 13.3407 13.4905 13.4239 13.4069L19.0325 7.79827C19.204 7.62683 19.34 7.4233 19.4328 7.19929C19.5256 6.97529 19.5734 6.7352 19.5734 6.49273C19.5734 6.25026 19.5256 6.01017 19.4328 5.78617C19.34 5.56216 19.204 5.35863 19.0325 5.18719C18.681 4.85128 18.2135 4.66382 17.7273 4.66382C17.2411 4.66382 16.7736 4.85128 16.4221 5.18719L10.8221 10.8013C10.738 10.884 10.6795 10.9891 10.6535 11.1041ZM17.2922 6.05796C17.4093 5.9458 17.5652 5.88319 17.7273 5.88319C17.8894 5.88319 18.0453 5.9458 18.1624 6.05796C18.2762 6.17404 18.34 6.33014 18.34 6.49273C18.34 6.65532 18.2762 6.81142 18.1624 6.9275L17.7273 7.36258L16.8571 6.49242L17.2922 6.05796ZM11.8153 11.5435L15.9839 7.36442L16.8455 8.23027L12.675 12.4106L11.5704 12.653L11.8153 11.5435Z" fill="#455A64"/>
</g>
<defs>
<clipPath id="clip0_240_3024">
<rect width="14.7692" height="14.7692" fill="white" transform="translate(4.61548 4.61548)"/>
</clipPath>
</defs>
</svg>
