<svg width="34" height="34" viewBox="0 0 34 34" fill="none" xmlns="http://www.w3.org/2000/svg">
<rect width="34" height="34" rx="5" fill="#27AE60"/>
<g clip-path="url(#clip0_2270_7242)">
<path d="M11.771 24.3845H21.0018C21.5739 24.3829 22.122 24.1544 22.5258 23.7491C22.9296 23.3438 23.1561 22.7948 23.1557 22.2227V17.5845C23.1557 17.4213 23.0908 17.2648 22.9754 17.1494C22.86 17.034 22.7035 16.9691 22.5403 16.9691C22.3771 16.9691 22.2205 17.034 22.1051 17.1494C21.9897 17.2648 21.9249 17.4213 21.9249 17.5845V22.2227C21.9257 22.4685 21.829 22.7046 21.6559 22.8791C21.4828 23.0537 21.2476 23.1525 21.0018 23.1538H11.771C11.5252 23.1525 11.29 23.0537 11.1169 22.8791C10.9439 22.7046 10.8471 22.4685 10.848 22.2227V13.0079C10.8471 12.7621 10.9439 12.526 11.1169 12.3515C11.29 12.1769 11.5252 12.0781 11.771 12.0768H16.3864C16.5496 12.0768 16.7062 12.012 16.8216 11.8966C16.937 11.7812 17.0018 11.6247 17.0018 11.4615C17.0018 11.2982 16.937 11.1417 16.8216 11.0263C16.7062 10.9109 16.5496 10.8461 16.3864 10.8461H11.771C11.1989 10.8477 10.6508 11.0762 10.247 11.4815C9.84321 11.8868 9.6167 12.4358 9.61719 13.0079V22.2227C9.6167 22.7948 9.84321 23.3438 10.247 23.7491C10.6508 24.1544 11.1989 24.3829 11.771 24.3845Z" fill="white"/>
<path d="M15.6559 16.104L15.1704 18.328C15.1484 18.4289 15.1521 18.5337 15.1813 18.6327C15.2104 18.7317 15.264 18.8219 15.3371 18.8948C15.4112 18.9658 15.5014 19.018 15.5999 19.0468C15.6985 19.0756 15.8026 19.0802 15.9033 19.0603L18.1224 18.5735C18.2376 18.5482 18.3431 18.4903 18.4264 18.4068L24.035 12.7981C24.2064 12.6267 24.3424 12.4232 24.4352 12.1992C24.528 11.9752 24.5758 11.7351 24.5758 11.4926C24.5758 11.2501 24.528 11.01 24.4352 10.786C24.3424 10.562 24.2064 10.3585 24.035 10.1871C23.6835 9.85115 23.216 9.6637 22.7297 9.6637C22.2435 9.6637 21.776 9.85115 21.4245 10.1871L15.8245 15.8012C15.7405 15.8839 15.6819 15.989 15.6559 16.104ZM22.2947 11.0578C22.4117 10.9457 22.5676 10.8831 22.7297 10.8831C22.8919 10.8831 23.0477 10.9457 23.1648 11.0578C23.2787 11.1739 23.3424 11.33 23.3424 11.4926C23.3424 11.6552 23.2787 11.8113 23.1648 11.9274L22.7297 12.3625L21.8596 11.4923L22.2947 11.0578ZM16.8177 16.5434L20.9864 12.3643L21.8479 13.2301L17.6774 17.4105L16.5728 17.6529L16.8177 16.5434Z" fill="white"/>
</g>
<defs>
<clipPath id="clip0_2270_7242">
<rect width="14.7692" height="14.7692" fill="white" transform="translate(9.61719 9.61536)"/>
</clipPath>
</defs>
</svg>
