<svg width="24" height="24" viewBox="0 0 24 24" fill="none" xmlns="http://www.w3.org/2000/svg">
<g clip-path="url(#clip0_194_8777)">
<path d="M6.76923 19.3842H16C16.5721 19.3825 17.1202 19.154 17.524 18.7487C17.9278 18.3434 18.1543 17.7944 18.1539 17.2223V12.5842C18.1539 12.421 18.089 12.2644 17.9736 12.149C17.8582 12.0336 17.7017 11.9688 17.5385 11.9688C17.3753 11.9688 17.2187 12.0336 17.1033 12.149C16.9879 12.2644 16.9231 12.421 16.9231 12.5842V17.2223C16.9239 17.4681 16.8272 17.7042 16.6541 17.8788C16.481 18.0533 16.2458 18.1521 16 18.1534H6.76923C6.52343 18.1521 6.28819 18.0533 6.11513 17.8788C5.94207 17.7042 5.84534 17.4681 5.84616 17.2223V8.00755C5.84534 7.76175 5.94207 7.52566 6.11513 7.3511C6.28819 7.17654 6.52343 7.07778 6.76923 7.07647H11.3846C11.5478 7.07647 11.7044 7.01164 11.8198 6.89623C11.9352 6.78082 12 6.6243 12 6.46109C12 6.29788 11.9352 6.14135 11.8198 6.02595C11.7044 5.91054 11.5478 5.8457 11.3846 5.8457H6.76923C6.19711 5.84733 5.64901 6.07588 5.24521 6.48118C4.84141 6.88648 4.6149 7.43543 4.61539 8.00755V17.2223C4.6149 17.7944 4.84141 18.3434 5.24521 18.7487C5.64901 19.154 6.19711 19.3825 6.76923 19.3842Z" fill="white"/>
<path d="M10.6535 11.1044L10.1679 13.3284C10.146 13.4292 10.1497 13.534 10.1789 13.6331C10.208 13.7321 10.2616 13.8222 10.3347 13.8951C10.4088 13.9662 10.499 14.0183 10.5975 14.0472C10.6961 14.076 10.8001 14.0806 10.9009 14.0607L13.1199 13.5739C13.2352 13.5486 13.3407 13.4907 13.4239 13.4071L19.0326 7.79851C19.204 7.62708 19.34 7.42355 19.4328 7.19954C19.5256 6.97553 19.5734 6.73544 19.5734 6.49297C19.5734 6.25051 19.5256 6.01042 19.4328 5.78641C19.34 5.5624 19.204 5.35887 19.0326 5.18744C18.681 4.85152 18.2135 4.66406 17.7273 4.66406C17.2411 4.66406 16.7736 4.85152 16.4221 5.18744L10.8221 10.8016C10.738 10.8843 10.6795 10.9894 10.6535 11.1044ZM17.2923 6.05821C17.4093 5.94605 17.5652 5.88343 17.7273 5.88343C17.8895 5.88343 18.0453 5.94605 18.1624 6.05821C18.2762 6.17428 18.34 6.33039 18.34 6.49297C18.34 6.65556 18.2762 6.81166 18.1624 6.92774L17.7273 7.36282L16.8572 6.49267L17.2923 6.05821ZM11.8153 11.5437L15.9839 7.36467L16.8455 8.23051L12.675 12.4108L11.5704 12.6533L11.8153 11.5437Z" fill="white"/>
</g>
<defs>
<clipPath id="clip0_194_8777">
<rect width="14.7692" height="14.7692" fill="white" transform="translate(4.61539 4.61523)"/>
</clipPath>
</defs>
</svg>
