<svg width="16" height="16" viewBox="0 0 16 16" fill="none" xmlns="http://www.w3.org/2000/svg">
<g clip-path="url(#clip0_200_9379)">
<path d="M2.76923 15.3842H12C12.5721 15.3825 13.1202 15.154 13.524 14.7487C13.9278 14.3434 14.1543 13.7944 14.1539 13.2223V8.58416C14.1539 8.42095 14.089 8.26443 13.9736 8.14902C13.8582 8.03362 13.7017 7.96878 13.5385 7.96878C13.3753 7.96878 13.2187 8.03362 13.1033 8.14902C12.9879 8.26443 12.9231 8.42095 12.9231 8.58416V13.2223C12.9239 13.4681 12.8272 13.7042 12.6541 13.8788C12.481 14.0533 12.2458 14.1521 12 14.1534H2.76923C2.52343 14.1521 2.28819 14.0533 2.11513 13.8788C1.94207 13.7042 1.84534 13.4681 1.84616 13.2223V4.00755C1.84534 3.76175 1.94207 3.52566 2.11513 3.3511C2.28819 3.17654 2.52343 3.07778 2.76923 3.07647H7.38462C7.54783 3.07647 7.70435 3.01164 7.81976 2.89623C7.93517 2.78082 8 2.6243 8 2.46109C8 2.29788 7.93517 2.14135 7.81976 2.02595C7.70435 1.91054 7.54783 1.8457 7.38462 1.8457H2.76923C2.19711 1.84733 1.64901 2.07588 1.24521 2.48118C0.841406 2.88648 0.614896 3.43543 0.615388 4.00755V13.2223C0.614896 13.7944 0.841406 14.3434 1.24521 14.7487C1.64901 15.154 2.19711 15.3825 2.76923 15.3842Z" fill="#27AE60"/>
<path d="M6.65348 7.10436L6.16794 9.32836C6.14597 9.42924 6.14972 9.53402 6.17887 9.63307C6.20801 9.73211 6.2616 9.82223 6.33471 9.89513C6.40883 9.96619 6.49898 10.0183 6.59754 10.0472C6.69609 10.076 6.80014 10.0806 6.90087 10.0607L9.11994 9.5739C9.23517 9.54859 9.34069 9.49071 9.42394 9.40713L15.0326 3.79851C15.204 3.62708 15.34 3.42355 15.4328 3.19954C15.5256 2.97553 15.5734 2.73544 15.5734 2.49297C15.5734 2.25051 15.5256 2.01042 15.4328 1.78641C15.34 1.5624 15.204 1.35887 15.0326 1.18744C14.681 0.85152 14.2135 0.664063 13.7273 0.664062C13.2411 0.664062 12.7736 0.85152 12.4221 1.18744L6.8221 6.80159C6.73805 6.88428 6.67952 6.98937 6.65348 7.10436ZM13.2923 2.05821C13.4093 1.94605 13.5652 1.88343 13.7273 1.88343C13.8895 1.88343 14.0453 1.94605 14.1624 2.05821C14.2762 2.17428 14.34 2.33039 14.34 2.49297C14.34 2.65556 14.2762 2.81166 14.1624 2.92774L13.7273 3.36282L12.8572 2.49267L13.2923 2.05821ZM7.81533 7.54374L11.9839 3.36467L12.8455 4.23051L8.67502 8.41082L7.5704 8.65328L7.81533 7.54374Z" fill="#27AE60"/>
</g>
<defs>
<clipPath id="clip0_200_9379">
<rect width="14.7692" height="14.7692" fill="white" transform="translate(0.615387 0.615234)"/>
</clipPath>
</defs>
</svg>
