<svg width="34" height="34" viewBox="0 0 34 34" fill="none" xmlns="http://www.w3.org/2000/svg">
<rect width="34" height="34" rx="5" fill="#27AE60"/>
<g clip-path="url(#clip0_1_7901)">
<path d="M11.771 24.3847H21.0018C21.5739 24.383 22.122 24.1545 22.5258 23.7492C22.9296 23.3439 23.1561 22.7949 23.1557 22.2228V17.5847C23.1557 17.4214 23.0908 17.2649 22.9754 17.1495C22.86 17.0341 22.7035 16.9693 22.5403 16.9693C22.3771 16.9693 22.2205 17.0341 22.1051 17.1495C21.9897 17.2649 21.9249 17.4214 21.9249 17.5847V22.2228C21.9257 22.4686 21.829 22.7047 21.6559 22.8793C21.4828 23.0538 21.2476 23.1526 21.0018 23.1539H11.771C11.5252 23.1526 11.29 23.0538 11.1169 22.8793C10.9439 22.7047 10.8471 22.4686 10.848 22.2228V13.008C10.8471 12.7622 10.9439 12.5261 11.1169 12.3516C11.29 12.177 11.5252 12.0783 11.771 12.077H16.3864C16.5496 12.077 16.7062 12.0121 16.8216 11.8967C16.937 11.7813 17.0018 11.6248 17.0018 11.4616C17.0018 11.2984 16.937 11.1418 16.8216 11.0264C16.7062 10.911 16.5496 10.8462 16.3864 10.8462H11.771C11.1989 10.8478 10.6508 11.0764 10.247 11.4817C9.84321 11.887 9.6167 12.4359 9.61719 13.008V22.2228C9.6167 22.7949 9.84321 23.3439 10.247 23.7492C10.6508 24.1545 11.1989 24.383 11.771 24.3847Z" fill="white"/>
<path d="M15.6559 16.1039L15.1704 18.3279C15.1484 18.4287 15.1521 18.5335 15.1813 18.6326C15.2104 18.7316 15.264 18.8217 15.3371 18.8946C15.4112 18.9657 15.5014 19.0179 15.5999 19.0467C15.6985 19.0755 15.8026 19.0801 15.9033 19.0602L18.1224 18.5734C18.2376 18.5481 18.3431 18.4902 18.4264 18.4066L24.035 12.798C24.2064 12.6266 24.3424 12.4231 24.4352 12.1991C24.528 11.975 24.5758 11.735 24.5758 11.4925C24.5758 11.25 24.528 11.0099 24.4352 10.7859C24.3424 10.5619 24.2064 10.3584 24.035 10.1869C23.6835 9.85103 23.216 9.66357 22.7297 9.66357C22.2435 9.66357 21.776 9.85103 21.4245 10.1869L15.8245 15.8011C15.7405 15.8838 15.6819 15.9889 15.6559 16.1039ZM22.2947 11.0577C22.4117 10.9456 22.5676 10.8829 22.7297 10.8829C22.8919 10.8829 23.0477 10.9456 23.1648 11.0577C23.2787 11.1738 23.3424 11.3299 23.3424 11.4925C23.3424 11.6551 23.2787 11.8112 23.1648 11.9273L22.7297 12.3623L21.8596 11.4922L22.2947 11.0577ZM16.8177 16.5433L20.9864 12.3642L21.8479 13.23L17.6774 17.4103L16.5728 17.6528L16.8177 16.5433Z" fill="white"/>
</g>
<defs>
<clipPath id="clip0_1_7901">
<rect width="14.7692" height="14.7692" fill="white" transform="translate(9.61719 9.61523)"/>
</clipPath>
</defs>
</svg>
