<svg width="50" height="50" viewBox="0 0 50 50" fill="none" xmlns="http://www.w3.org/2000/svg">
<path d="M0.64825 15.0221C0.944 15.8436 1.35375 16.5636 1.811 17.2319L1.399 20.2299C0.968 23.2964 0.7495 26.4749 0.7495 29.6756C0.7495 33.3816 1.04625 37.0854 1.63075 40.6694C2.3315 45.0711 5.719 48.4599 10.0623 49.0996C14.1895 49.7051 18.3435 50.0054 22.4988 50.0054C26.6553 50.0054 30.8118 49.7026 34.9403 49.0996C39.281 48.4599 42.6685 45.0714 43.3693 40.6694C44.4235 34.1149 44.5098 27.4556 43.663 20.8459C46.323 19.7906 48.4143 17.7079 49.3445 15.0396C49.779 13.8624 50 12.5881 50 11.2501C50 9.91213 49.779 8.63788 49.3603 7.50263C48.1323 3.97963 44.84 1.40388 40.9727 0.942627C30.5602 -0.307373 19.4382 -0.307373 9.02825 0.942627C5.16 1.40388 1.86775 3.97963 0.6555 7.46113C0.221 8.63788 0 9.91213 0 11.2501C0 12.5881 0.221 13.8624 0.64825 15.0221ZM38.4315 39.8781L38.4303 39.8831C38.0813 42.0829 36.3452 43.8381 34.2127 44.1531C26.4442 45.2909 18.561 45.2909 10.79 44.1531C8.655 43.8381 6.91925 42.0829 6.5675 39.8734C6.0255 36.5456 5.74975 33.1131 5.74975 29.6756C5.74975 26.7069 5.9525 23.7626 6.3515 20.9184L6.3565 20.8794C6.54025 20.9534 6.7345 21.0009 6.92275 21.0641C7.078 21.1161 7.23 21.1711 7.388 21.2159C7.92475 21.3684 8.47075 21.4929 9.03225 21.5579C11.5885 21.8591 14.1535 22.0804 16.7228 22.2364C17.629 22.2914 18.5368 22.2956 19.444 22.3326C21.1125 22.4004 22.78 22.4726 24.4497 22.4794C24.6327 22.4799 24.8162 22.4951 25 22.4951C25.8732 22.4951 26.7453 22.4351 27.6185 22.4184C29.1433 22.3891 30.667 22.3646 32.19 22.2844C33.2923 22.2264 34.3898 22.1256 35.4902 22.0409C36.5812 21.9569 37.675 21.9096 38.7635 21.7994C39.5067 27.8176 39.3945 33.8966 38.4315 39.8781ZM25 5.00013C30.1928 5.00013 35.3675 5.30538 40.3785 5.90838C42.3633 6.14513 44.0357 7.41713 44.6545 9.18963C44.8865 9.82188 45 10.4956 45 11.2501C45 12.0046 44.8865 12.6784 44.64 13.3496C44.054 15.0244 42.4488 16.2819 40.5495 16.5504C40.469 16.5626 40.3785 16.5796 40.292 16.6016C35.2038 17.1996 30.0795 17.4961 24.9555 17.4939C20.9462 17.4921 16.9425 17.2524 12.9508 16.8859C14.3288 14.7639 14.708 12.7679 14.7155 11.2404C14.725 9.27462 14.129 7.37863 13.0027 5.60663C16.9527 5.24038 20.9587 5.00013 25 5.00013ZM5.36125 9.14813C5.725 8.10413 6.50525 7.26413 7.481 6.68038C8.66325 7.85113 9.725 9.40462 9.7155 11.2159C9.707 13.0461 8.6055 14.6111 7.3875 15.7879C6.97475 15.5306 6.585 15.2361 6.2585 14.8756C5.88625 14.4729 5.5725 13.9381 5.3455 13.3106C5.1135 12.6784 5 12.0046 5 11.2501C5 10.4956 5.1135 9.82188 5.36125 9.14813Z" fill="white"/>
</svg>
