<svg width="104" height="104" viewBox="0 0 104 104" fill="none" xmlns="http://www.w3.org/2000/svg">
<path fill-rule="evenodd" clip-rule="evenodd" d="M57.4166 12.014C55.9471 11.9229 54.0173 11.9167 51.0387 11.9167C45.3748 11.9167 41.3079 11.9189 38.1077 12.1612C34.9415 12.401 32.889 12.8622 31.2157 13.6427C27.2924 15.4724 24.139 18.6258 22.3092 22.5491C21.5288 24.2225 21.0676 26.2749 20.8278 29.4412C20.5854 32.6413 20.5833 36.7083 20.5833 42.3721V60.6667C20.5833 66.7876 20.5858 71.1827 20.8677 74.6327C21.1464 78.0446 21.6821 80.2448 22.5906 82.0277C24.3562 85.493 27.1736 88.3104 30.6389 90.076C32.4218 90.9845 34.622 91.5202 38.0339 91.799C41.4839 92.0808 45.8791 92.0834 51.9999 92.0834C58.1208 92.0834 62.516 92.0808 65.9659 91.799C69.3779 91.5202 71.5781 90.9845 73.3609 90.076C76.8262 88.3104 79.6436 85.493 81.4093 82.0277C82.3177 80.2448 82.8534 78.0446 83.1322 74.6327C83.4141 71.1827 83.4166 66.7875 83.4166 60.6667V44.6928C83.4166 41.5499 83.4097 39.4885 83.3104 37.9168H74.5333H74.4014C72.0867 37.9169 70.1547 37.9169 68.5764 37.7879C66.9302 37.6534 65.3847 37.3626 63.9232 36.618C61.6809 35.4755 59.8579 33.6525 58.7154 31.4102C57.9708 29.9487 57.68 28.4032 57.5455 26.757C57.4165 25.1787 57.4165 23.2467 57.4166 20.932L57.4166 20.8001V12.014ZM81.6403 31.4168C81.3593 30.8242 81.0464 30.2461 80.7027 29.6853C79.6105 27.903 78.0715 26.3345 74.2149 22.4778L72.5739 20.8369C69.0034 17.2663 67.5516 15.8399 65.9201 14.8006C65.2747 14.3895 64.6055 14.0197 63.9166 13.693V20.8001C63.9166 23.2807 63.9191 24.9456 64.0239 26.2277C64.1255 27.4719 64.307 28.0668 64.507 28.4593C65.0263 29.4785 65.8549 30.3071 66.8741 30.8264C67.2666 31.0264 67.8615 31.2079 69.1057 31.3095C70.3878 31.4143 72.0527 31.4168 74.5333 31.4168H81.6403ZM61.419 6.00747C58.7509 5.41587 55.9637 5.41617 51.436 5.41665L51.0387 5.41668L50.9043 5.41668L50.9043 5.41668C45.4037 5.41666 41.0912 5.41665 37.6169 5.67978C34.0804 5.94762 31.1488 6.5017 28.4683 7.75183C23.1603 10.2274 18.894 14.4937 16.4184 19.8017C15.1683 22.4822 14.6142 25.4138 14.3464 28.9503C14.0832 32.4246 14.0832 36.7372 14.0833 42.2377L14.0833 42.2377L14.0833 42.3721V60.6667L14.0833 60.8121C14.0832 66.7562 14.0832 71.4165 14.3892 75.162C14.7008 78.9759 15.3459 82.1267 16.799 84.9786C19.1879 89.667 22.9996 93.4788 27.688 95.8676C30.5399 97.3207 33.6907 97.9658 37.5046 98.2774C41.2502 98.5834 45.9104 98.5834 51.8546 98.5834H51.9999H52.1452C58.0894 98.5834 62.7497 98.5834 66.4952 98.2774C70.3091 97.9658 73.46 97.3207 76.3119 95.8676C81.0002 93.4788 84.812 89.667 87.2008 84.9786C88.6539 82.1267 89.299 78.9759 89.6106 75.162C89.9166 71.4164 89.9166 66.7562 89.9166 60.812V60.6667V44.6928L89.9166 44.2636V44.2635C89.9172 39.3736 89.9175 36.3628 89.2281 33.4913C88.6178 30.9489 87.611 28.5184 86.2449 26.2891C84.7019 23.7711 82.5726 21.6424 79.1145 18.1851L78.8111 17.8816L77.1701 16.2407L76.8892 15.9597L76.8891 15.9596C73.6879 12.7578 71.7173 10.7868 69.4124 9.31843C66.9614 7.75709 64.2561 6.63655 61.419 6.00747ZM38.9999 48.75C37.205 48.75 35.7499 50.2051 35.7499 52C35.7499 53.7949 37.205 55.25 38.9999 55.25H64.9999C66.7948 55.25 68.2499 53.7949 68.2499 52C68.2499 50.2051 66.7948 48.75 64.9999 48.75H38.9999ZM38.9999 66.0834C37.205 66.0834 35.7499 67.5384 35.7499 69.3334C35.7499 71.1283 37.205 72.5834 38.9999 72.5834H56.3333C58.1282 72.5834 59.5833 71.1283 59.5833 69.3334C59.5833 67.5384 58.1282 66.0834 56.3333 66.0834H38.9999Z" fill="#DCDCDC"/>
</svg>
