<svg width="24" height="25" viewBox="0 0 24 25" fill="none" xmlns="http://www.w3.org/2000/svg">
<path d="M19.296 12.5529V10.4841C19.2941 10.2324 19.2066 9.98872 19.0478 9.79331C18.889 9.5979 18.6685 9.46234 18.4224 9.40894L17.7216 9.26494V4.41214C17.7216 4.07478 17.5876 3.75124 17.349 3.5127C17.1105 3.27415 16.787 3.14014 16.4496 3.14014C16.1122 3.14014 15.7887 3.27415 15.5502 3.5127C15.3116 3.75124 15.1776 4.07478 15.1776 4.41214V19.4601C15.1776 19.7975 15.3116 20.121 15.5502 20.3596C15.7887 20.5981 16.1122 20.7321 16.4496 20.7321C16.787 20.7321 17.1105 20.5981 17.349 20.3596C17.5876 20.121 17.7216 19.7975 17.7216 19.4601V13.7673L18.4224 13.6233C18.6681 13.5709 18.8885 13.4363 19.0473 13.2417C19.2062 13.0471 19.2939 12.8041 19.296 12.5529ZM5.8272 16.3401H2.6976L3.36 20.5593C3.40667 20.8509 3.53587 21.123 3.73233 21.3434C3.92878 21.5638 4.18427 21.7234 4.46855 21.8032C4.75284 21.8829 5.05403 21.8796 5.33649 21.7936C5.61894 21.7076 5.87085 21.5424 6.0624 21.3177C6.20631 21.1467 6.31202 20.9468 6.37245 20.7316C6.43288 20.5164 6.44664 20.2907 6.4128 20.0697L5.8272 16.3401Z" fill="#3734CA"/>
<path d="M1.79519 8.52536C1.62247 8.52536 1.45145 8.55937 1.29188 8.62547C1.13231 8.69156 0.987327 8.78844 0.865199 8.91057C0.743071 9.0327 0.646195 9.17768 0.5801 9.33725C0.514005 9.49682 0.479986 9.66784 0.479986 9.84056V14.0406C0.476797 14.2153 0.50846 14.3889 0.573126 14.5512C0.637792 14.7136 0.734163 14.8614 0.85661 14.9861C0.979056 15.1108 1.12512 15.2098 1.28627 15.2774C1.44743 15.345 1.62043 15.3798 1.79519 15.3798H6.18719C10.1616 15.9654 12.7104 17.367 14.2176 18.5334V5.36696C12.7008 6.53816 10.1328 7.94456 6.11519 8.52536H1.79519ZM23.04 11.0598H21.3072C21.1799 11.0598 21.0578 11.1103 20.9678 11.2003C20.8778 11.2904 20.8272 11.4125 20.8272 11.5398C20.8272 11.6671 20.8778 11.7892 20.9678 11.8792C21.0578 11.9692 21.1799 12.0198 21.3072 12.0198H23.04C23.1673 12.0198 23.2894 11.9692 23.3794 11.8792C23.4694 11.7892 23.52 11.6671 23.52 11.5398C23.52 11.4125 23.4694 11.2904 23.3794 11.2003C23.2894 11.1103 23.1673 11.0598 23.04 11.0598ZM19.68 15.9654C19.5901 15.876 19.4684 15.8258 19.3416 15.8258C19.2148 15.8258 19.0931 15.876 19.0032 15.9654C18.9582 16.01 18.9225 16.0631 18.8981 16.1216C18.8738 16.1801 18.8612 16.2428 18.8612 16.3062C18.8612 16.3695 18.8738 16.4323 18.8981 16.4908C18.9225 16.5492 18.9582 16.6023 19.0032 16.647L20.5584 18.2022C20.6031 18.2466 20.6562 18.2818 20.7146 18.3057C20.7729 18.3296 20.8354 18.3418 20.8985 18.3416C20.9616 18.3414 21.024 18.3288 21.0821 18.3044C21.1403 18.2801 21.1931 18.2445 21.2376 18.1998C21.282 18.155 21.3172 18.1019 21.3411 18.0436C21.3651 17.9852 21.3773 17.9227 21.3771 17.8597C21.3768 17.7966 21.3642 17.7342 21.3398 17.676C21.3155 17.6178 21.2799 17.565 21.2352 17.5206L19.68 15.9654ZM19.32 7.21976C19.3835 7.21949 19.4463 7.20663 19.5048 7.18191C19.5633 7.15719 19.6163 7.12111 19.6608 7.07576L21.216 5.52536C21.2647 5.48041 21.3036 5.42586 21.3302 5.36514C21.3568 5.30442 21.3705 5.23884 21.3705 5.17256C21.3705 5.10627 21.3568 5.0407 21.3302 4.97998C21.3036 4.91926 21.2647 4.8647 21.216 4.81976C21.1261 4.73036 21.0044 4.68018 20.8776 4.68018C20.7508 4.68018 20.6291 4.73036 20.5392 4.81976L18.984 6.37496C18.8946 6.46489 18.8444 6.58655 18.8444 6.71336C18.8444 6.84017 18.8946 6.96182 18.984 7.05176C19.0258 7.10091 19.0771 7.14113 19.1349 7.16999C19.1926 7.19886 19.2556 7.21578 19.32 7.21976ZM20.376 9.17816C20.4113 9.26671 20.4721 9.34276 20.5507 9.39662C20.6294 9.45047 20.7223 9.47969 20.8176 9.48056C20.8803 9.4798 20.9423 9.46675 21 9.44216L22.2768 8.93336C22.3952 8.88562 22.4898 8.7928 22.5397 8.67533C22.5897 8.55786 22.5909 8.42535 22.5432 8.30696C22.4954 8.18856 22.4026 8.09398 22.2852 8.04402C22.1677 7.99406 22.0352 7.99282 21.9168 8.04056L20.64 8.55416C20.5224 8.60209 20.4286 8.69467 20.3791 8.81162C20.3296 8.92858 20.3285 9.06038 20.376 9.17816ZM22.344 14.3382L20.9472 13.7382C20.8301 13.6886 20.6981 13.6876 20.5802 13.7353C20.4623 13.783 20.3681 13.8755 20.3184 13.9926C20.2688 14.1097 20.2678 14.2417 20.3155 14.3596C20.3632 14.4775 20.4557 14.5716 20.5728 14.6214L21.9648 15.2166C22.0248 15.2451 22.0904 15.2598 22.1568 15.2598C22.2673 15.2595 22.3744 15.2212 22.46 15.1511C22.5455 15.0811 22.6043 14.9837 22.6263 14.8753C22.6483 14.767 22.6322 14.6543 22.5808 14.5565C22.5293 14.4586 22.4457 14.3815 22.344 14.3382Z" fill="#3734CA"/>
</svg>
