<svg width="135" height="135" viewBox="0 0 135 135" fill="none" xmlns="http://www.w3.org/2000/svg">
<g opacity="0.4">
<path fill-rule="evenodd" clip-rule="evenodd" d="M97.0355 35.8594C97.0355 33.0622 95.9243 30.3795 93.9464 28.4016C91.9684 26.4237 89.2858 25.3125 86.4886 25.3125H48.5198C47.1345 25.3119 45.7625 25.5843 44.4824 26.1141C43.2023 26.6439 42.0392 27.4207 41.0594 28.4001C40.0795 29.3795 39.3023 30.5424 38.772 31.8223C38.2417 33.1022 37.9687 34.474 37.9688 35.8594V40.0781C37.9688 41.4632 38.2416 42.8346 38.7716 44.1142C39.3016 45.3938 40.0785 46.5565 41.0579 47.5359C43.0358 49.5138 45.7184 50.625 48.5156 50.625H86.4844C87.8694 50.625 89.2409 50.3522 90.5205 49.8222C91.8001 49.2921 92.9628 48.5153 93.9421 47.5359C94.9215 46.5565 95.6984 45.3938 96.2284 44.1142C96.7584 42.8346 97.0312 41.4632 97.0312 40.0781L97.0355 35.8594ZM88.598 35.8594V40.0781C88.598 40.6376 88.3757 41.1741 87.9801 41.5697C87.5846 41.9653 87.048 42.1875 86.4886 42.1875H48.5198C47.9611 42.1853 47.4258 41.9623 47.0307 41.5672C46.6356 41.1721 46.4127 40.6369 46.4105 40.0781V35.8594C46.4105 35.2999 46.6327 34.7634 47.0283 34.3678C47.4239 33.9722 47.9604 33.75 48.5198 33.75H86.4886C87.0473 33.7522 87.5826 33.9752 87.9777 34.3703C88.3728 34.7654 88.5957 35.3006 88.598 35.8594Z" fill="#8E8E93"/>
<path fill-rule="evenodd" clip-rule="evenodd" d="M59.0625 29.5312V18.9844C59.0625 18.4233 59.2861 17.8875 59.6784 17.4909C60.0758 17.0971 60.6124 16.8758 61.1719 16.875H73.8281C74.3892 16.875 74.925 17.0986 75.3216 17.4909C75.7154 17.8883 75.9367 18.4249 75.9375 18.9844V29.5312C75.9375 30.6501 76.382 31.7232 77.1731 32.5144C77.9643 33.3055 79.0374 33.75 80.1562 33.75C81.2751 33.75 82.3482 33.3055 83.1394 32.5144C83.9305 31.7232 84.375 30.6501 84.375 29.5312V18.9844C84.375 16.1872 83.2638 13.5045 81.2859 11.5266C79.308 9.54869 76.6253 8.4375 73.8281 8.4375H61.1719C58.3747 8.4375 55.692 9.54869 53.7141 11.5266C51.7362 13.5045 50.625 16.1872 50.625 18.9844V29.5312C50.625 30.6501 51.0695 31.7232 51.8606 32.5144C52.6518 33.3055 53.7249 33.75 54.8438 33.75C55.9626 33.75 57.0357 33.3055 57.8269 32.5144C58.618 31.7232 59.0625 30.6501 59.0625 29.5312Z" fill="#8E8E93"/>
<path fill-rule="evenodd" clip-rule="evenodd" d="M109.468 42.1833L109.688 42.1875H109.696C112.025 42.1875 113.91 44.0733 113.91 46.3978V113.906C113.91 115.024 113.463 116.1 112.67 116.889C112.279 117.281 111.814 117.592 111.302 117.805C110.79 118.017 110.242 118.126 109.688 118.125H25.3125C24.7584 118.126 24.2097 118.017 23.6978 117.805C23.186 117.592 22.7211 117.281 22.3298 116.889C21.9375 116.498 21.6263 116.033 21.4142 115.521C21.2021 115.009 21.0932 114.46 21.0938 113.906V46.4063C21.0921 45.8518 21.2001 45.3024 21.4115 44.7898C21.6229 44.2772 21.9336 43.8115 22.3257 43.4194C22.7177 43.0273 23.1835 42.7167 23.6961 42.5052C24.2087 42.2938 24.758 42.1858 25.3125 42.1875C25.3125 42.1875 25.2619 36.9563 25.3125 33.75C23.6501 33.7489 22.0039 34.0755 20.4679 34.7111C18.9318 35.3468 17.5362 36.279 16.3607 37.4545C15.1852 38.6299 14.253 40.0256 13.6174 41.5616C12.9818 43.0976 12.6551 44.7439 12.6563 46.4063V113.906C12.6563 117.264 13.9894 120.483 16.3688 122.854C17.5429 124.029 18.9372 124.962 20.4717 125.598C22.0063 126.234 23.6512 126.562 25.3125 126.562H109.688C111.35 126.564 112.996 126.237 114.532 125.601C116.068 124.966 117.464 124.034 118.639 122.858C119.815 121.683 120.747 120.287 121.383 118.751C122.018 117.215 122.345 115.569 122.344 113.906V46.3978C122.344 43.0434 121.011 39.8264 118.639 37.4545C116.267 35.0825 113.05 33.75 109.696 33.75C107.587 33.75 107.068 34.9439 107.232 36.4331C106.165 35.2983 105.469 36.5513 105.469 37.9688C105.469 40.2258 107.245 42.0694 109.477 42.1833H109.468Z" fill="#8E8E93"/>
<path fill-rule="evenodd" clip-rule="evenodd" d="M37.9688 71.7188H97.0312C98.1501 71.7188 99.2232 71.2743 100.014 70.4831C100.806 69.6919 101.25 68.6189 101.25 67.5C101.25 66.3811 100.806 65.3081 100.014 64.5169C99.2232 63.7257 98.1501 63.2812 97.0312 63.2812H37.9688C36.8499 63.2812 35.7768 63.7257 34.9856 64.5169C34.1945 65.3081 33.75 66.3811 33.75 67.5C33.75 68.6189 34.1945 69.6919 34.9856 70.4831C35.7768 71.2743 36.8499 71.7188 37.9688 71.7188ZM37.9688 88.5938H97.0312C98.1501 88.5938 99.2232 88.1493 100.014 87.3581C100.806 86.5669 101.25 85.4939 101.25 84.375C101.25 83.2561 100.806 82.1831 100.014 81.3919C99.2232 80.6007 98.1501 80.1562 97.0312 80.1562H37.9688C36.8499 80.1562 35.7768 80.6007 34.9856 81.3919C34.1945 82.1831 33.75 83.2561 33.75 84.375C33.75 85.4939 34.1945 86.5669 34.9856 87.3581C35.7768 88.1493 36.8499 88.5938 37.9688 88.5938ZM37.9688 105.469H97.0312C98.1501 105.469 99.2232 105.024 100.014 104.233C100.806 103.442 101.25 102.369 101.25 101.25C101.25 100.131 100.806 99.0581 100.014 98.2669C99.2232 97.4757 98.1501 97.0312 97.0312 97.0312H37.9688C36.8499 97.0312 35.7768 97.4757 34.9856 98.2669C34.1945 99.0581 33.75 100.131 33.75 101.25C33.75 102.369 34.1945 103.442 34.9856 104.233C35.7768 105.024 36.8499 105.469 37.9688 105.469Z" fill="#8E8E93"/>
<path d="M25.3125 42.1875C27.6425 42.1875 29.5312 40.2987 29.5312 37.9688C29.5312 35.6388 27.6425 33.75 25.3125 33.75C22.9825 33.75 21.0938 35.6388 21.0938 37.9688C21.0938 40.2987 22.9825 42.1875 25.3125 42.1875Z" fill="#8E8E93"/>
<path d="M109.688 42.1875C112.017 42.1875 113.906 40.2987 113.906 37.9688C113.906 35.6388 112.017 33.75 109.688 33.75C107.358 33.75 105.469 35.6388 105.469 37.9688C105.469 40.2987 107.358 42.1875 109.688 42.1875Z" fill="#8E8E93"/>
</g>
</svg>
