<svg width="83" height="173" viewBox="0 0 83 173" fill="none" xmlns="http://www.w3.org/2000/svg">
<path d="M12.0269 63.3476L10.1788 62.2718L6.78589 54.6309L8.63405 55.7067L12.0269 63.3476Z" fill="#FB6762"/>
<path d="M19.3918 32.7011L21.24 33.7769C20.7159 33.4735 19.9987 33.5287 19.1988 33.97L17.3506 32.8942C18.1505 32.4529 18.8677 32.3977 19.3918 32.7011Z" fill="#FB6762"/>
<path d="M19.1988 33.97L17.3506 32.8942C18.1505 32.4529 18.8677 32.3977 19.3918 32.7011L21.24 33.7769C20.7159 33.4735 19.9987 33.5287 19.1988 33.97Z" fill="#FB6762"/>
<path d="M2.73087 58.134L0.882709 57.0582C0.358604 56.7548 0.0275879 56.1204 0.0275879 55.2101L1.87575 56.2859C1.87575 57.1962 2.20676 57.8306 2.73087 58.134Z" fill="#FB6762"/>
<path d="M2.73087 58.134L0.882709 57.0582C0.358604 56.7548 0.0275879 56.1204 0.0275879 55.2101L1.87575 56.2859C1.87575 57.1962 2.20676 57.8306 2.73087 58.134Z" fill="#FB6762"/>
<path d="M1.87574 56.2859L0.027582 55.2101L0 46.2175L1.84816 47.2933L1.87574 56.2859Z" fill="#FB6762"/>
<path d="M4.71706 42.3282L2.8689 41.2524L17.3508 32.8943L19.1989 33.9701L4.71706 42.3282Z" fill="#FB6762"/>
<path d="M1.84816 47.2933L0 46.2175C0 44.397 1.29647 42.1902 2.86879 41.2523L4.71695 42.3281C3.14463 43.266 1.84816 45.4728 1.84816 47.2933Z" fill="#FB6762"/>
<path d="M1.84816 47.2933L0 46.2175C0 44.397 1.29647 42.1902 2.86879 41.2523L4.71695 42.3281C3.14463 43.266 1.84816 45.4728 1.84816 47.2933Z" fill="#FB6762"/>
<path d="M19.1988 33.97C20.7987 33.0598 22.0952 33.8045 22.0952 35.6251L22.1227 44.6177C22.1227 46.4382 20.8263 48.6726 19.254 49.5829L15.3645 51.8172L12.0268 63.3475L8.63393 55.7066L4.7721 57.941C3.1722 58.8513 1.90331 58.1341 1.87573 56.2859L1.84814 47.2934C1.84814 45.4728 3.14461 43.266 4.71693 42.3282L19.1988 33.97Z" fill="#FA433D"/>
<path d="M13.682 40.3421C14.4268 39.9008 15.1716 39.7904 15.6681 40.0111C17.3507 40.7007 17.3507 44.9487 11.4201 52.562C5.48941 51.7897 5.43424 47.5693 7.1169 44.9487C7.61342 44.1488 8.3582 43.404 9.10298 42.9626C9.98569 42.4661 10.8684 42.3834 11.3925 43.1557C11.9166 41.8041 12.7993 40.8386 13.682 40.3421Z" fill="#F0F1F6"/>
<path d="M23.8606 45.7762L24.3019 155.038L53.7346 172.168L53.2933 62.8786L23.8606 45.7762Z" fill="#FA433D"/>
<path d="M52.7415 62.8786L53.1828 172.168L82.8086 155.038L82.3672 45.7762L52.7415 62.8786Z" fill="#E1312A"/>
<path d="M23.3088 45.7762L52.7415 62.8786L82.3673 45.7762L52.9346 28.6738L23.3088 45.7762Z" fill="#FB6762"/>
<path d="M73.8987 8.6474L67.3061 4.81316C67.0854 4.70282 66.8095 4.67524 66.4785 4.78557L73.0988 8.61982C73.4022 8.50948 73.6781 8.53707 73.8987 8.6474Z" fill="#FBB400"/>
<path d="M73.8987 8.6474L67.3061 4.81316C67.0854 4.70282 66.8095 4.67524 66.4785 4.78557L73.0988 8.61982C73.4022 8.50948 73.6781 8.53707 73.8987 8.6474Z" fill="#FBB400"/>
<path d="M35.4737 50.5759L42.0663 54.4101C41.7353 54.217 41.5422 53.8033 41.5974 53.1688L35.0047 49.3346C34.9495 49.969 35.1426 50.3828 35.4737 50.5759Z" fill="#FBB400"/>
<path d="M41.5974 53.1688L35.0047 49.3346C34.9495 49.969 35.1426 50.3828 35.4737 50.5759L42.0663 54.4101C41.7353 54.217 41.5422 53.8033 41.5974 53.1688Z" fill="#FBB400"/>
<path d="M73.0989 8.61989L66.4787 4.78564L55.6931 8.53714L62.2858 12.3714L73.0989 8.61989Z" fill="#FBB400"/>
<path d="M54.8655 8.48193L61.4582 12.3162C61.6788 12.4541 61.9547 12.4541 62.2857 12.3713L55.693 8.5371C55.362 8.61986 55.0862 8.61986 54.8655 8.48193Z" fill="#FBB400"/>
<path d="M62.2857 12.3713L55.693 8.5371C55.362 8.61986 55.0862 8.61986 54.8655 8.48193L61.4582 12.3162C61.6788 12.4541 61.9547 12.4541 62.2857 12.3713Z" fill="#FBB400"/>
<path d="M42.8386 39.8731L36.2459 36.0388L35.0046 49.3345L41.5973 53.1688L42.8386 39.8731Z" fill="#FBB400"/>
<path d="M42.425 38.6594L35.8323 34.8252C36.1357 35.0459 36.3012 35.4872 36.246 36.0389L42.8387 39.8732C42.8939 39.3215 42.7284 38.8801 42.425 38.6594Z" fill="#FBB400"/>
<path d="M42.425 38.6594L35.8323 34.8252C36.1357 35.0459 36.3012 35.4872 36.246 36.0389L42.8387 39.8732C42.8939 39.3215 42.7284 38.8801 42.425 38.6594Z" fill="#FBB400"/>
<path d="M47.6385 19.9295L41.0458 16.0952C40.8251 16.6745 40.4389 17.2262 39.9976 17.5848L46.5903 21.419C47.0316 21.0604 47.4178 20.5087 47.6385 19.9295Z" fill="#FBB400"/>
<path d="M47.6385 19.9295L41.0458 16.0952C40.8251 16.6745 40.4389 17.2262 39.9976 17.5848L46.5903 21.419C47.0316 21.0604 47.4178 20.5087 47.6385 19.9295Z" fill="#FBB400"/>
<path d="M55.5 3.93048L48.9073 0.096233C48.6039 -0.069274 48.1901 -0.0141046 47.804 0.206571L54.3966 4.04082C54.8104 3.82014 55.1966 3.76497 55.5 3.93048Z" fill="#FBB400"/>
<path d="M55.5 3.93048L48.9073 0.096233C48.6039 -0.069274 48.1901 -0.0141046 47.804 0.206571L54.3966 4.04082C54.8104 3.82014 55.1966 3.76497 55.5 3.93048Z" fill="#FBB400"/>
<path d="M53.0173 5.7787L46.4246 1.94446L41.0457 16.0953L47.6383 19.9296L53.0173 5.7787Z" fill="#FBB400"/>
<path d="M54.3967 4.04091L47.804 0.206665C47.2523 0.537679 46.7282 1.14454 46.4248 1.94449L53.0175 5.77873C53.3209 4.97878 53.845 4.37193 54.3967 4.04091Z" fill="#FBB400"/>
<path d="M54.3967 4.04091L47.804 0.206665C47.2523 0.537679 46.7282 1.14454 46.4248 1.94449L53.0175 5.77873C53.3209 4.97878 53.845 4.37193 54.3967 4.04091Z" fill="#FBB400"/>
<path d="M34.9496 33.6666L28.3569 29.8324L35.8323 34.8252L42.425 38.6594L34.9496 33.6666Z" fill="#FBB400"/>
<path d="M46.5901 21.4191L39.9975 17.5848L29.1843 26.3291L35.777 30.1634L46.5901 21.4191Z" fill="#FBB400"/>
<path d="M54.3967 4.04087C53.845 4.37188 53.3209 4.97874 53.0174 5.77869L47.6384 19.9295C47.4178 20.5088 47.0316 21.0605 46.5902 21.4191L35.7771 30.1634C34.591 31.1288 34.122 33.0873 34.9496 33.6666L42.425 38.6594C42.7284 38.8801 42.8939 39.3214 42.8387 39.8731L41.5974 53.1689C41.4871 54.3826 42.2871 54.8239 43.1698 54.2998C43.3904 54.1711 43.6111 53.9872 43.8318 53.7481L53.845 42.6867C54.0381 42.4661 54.2863 42.273 54.507 42.1626C54.7277 42.0247 54.9483 41.942 55.169 41.942L65.1822 41.4179C65.4029 41.4179 65.6235 41.3351 65.8442 41.2248C66.7545 40.7007 67.5269 39.349 67.4165 38.2732L66.1201 26.4395C66.0649 25.943 66.2028 25.3361 66.5063 24.7568L73.9541 11.1301C74.7816 9.61293 74.2851 8.20612 73.0989 8.61989L62.2858 12.3714C61.8169 12.5093 61.4307 12.4266 61.21 12.0955L55.7759 4.17879C55.4724 3.73744 54.9208 3.73744 54.3967 4.04087Z" fill="#FBD037"/>
<path d="M35.7771 30.1635L29.1844 26.3292C27.9982 27.2947 27.5017 29.2532 28.3568 29.8325L34.9495 33.6667C34.122 33.0874 34.5909 31.1289 35.7771 30.1635Z" fill="#FBB400"/>
<path d="M35.7771 30.1635L29.1844 26.3292C27.9982 27.2947 27.5017 29.2532 28.3568 29.8325L34.9495 33.6667C34.122 33.0874 34.5909 31.1289 35.7771 30.1635Z" fill="#FBB400"/>
</svg>
