<svg width="24" height="24" viewBox="0 0 24 24" fill="none" xmlns="http://www.w3.org/2000/svg">
<path fill-rule="evenodd" clip-rule="evenodd" d="M14.25 20C14.25 21.5187 15.4812 22.75 17 22.75C20.1756 22.75 22.75 20.1756 22.75 17V11.845L22.75 11.7298C22.7502 10.4279 22.7503 9.62658 22.5435 8.87593C22.3606 8.21185 22.0598 7.58604 21.6555 7.02834C21.1985 6.39792 20.5727 5.89742 19.556 5.08425L19.4661 5.01235L17.4661 3.41235L17.4432 3.39402C16.5708 2.6961 15.8841 2.14674 15.2918 1.74022C14.6866 1.32479 14.1387 1.02877 13.5331 0.861235C12.5299 0.58369 11.4701 0.58369 10.4669 0.861235C9.86128 1.02877 9.31341 1.32479 8.70819 1.74022C8.11594 2.14673 7.42924 2.6961 6.55685 3.39401L6.53393 3.41235L4.53393 5.01235L4.44403 5.08426L4.44402 5.08427C3.42729 5.89743 2.8015 6.39793 2.34452 7.02834C1.94024 7.58604 1.63946 8.21185 1.45652 8.87593C1.24973 9.62659 1.24983 10.4279 1.25 11.7298L1.25001 11.845V17C1.25001 20.1756 3.82438 22.75 7.00001 22.75C8.5188 22.75 9.75001 21.5187 9.75001 20V15.9999C9.75001 14.7573 10.7574 13.7499 12 13.7499C13.2427 13.7499 14.25 14.7573 14.25 15.9999V20Z" fill="#3734CA"/>
</svg>
