<svg width="24" height="24" viewBox="0 0 24 24" fill="none" xmlns="http://www.w3.org/2000/svg">
<path fill-rule="evenodd" clip-rule="evenodd" d="M3.74998 10.5C3.74998 5.96961 7.35654 2.75 12 2.75C16.6434 2.75 20.25 5.96961 20.25 10.5C20.25 14.1809 18.6156 16.8687 16.7344 18.6497C15.7909 19.5429 14.7906 20.2021 13.9169 20.6352C13.0184 21.0805 12.3293 21.2498 12 21.2498C11.6707 21.2498 10.9815 21.0805 10.0831 20.6352C9.2094 20.2021 8.20905 19.5429 7.26561 18.6497C5.38439 16.8687 3.74998 14.1809 3.74998 10.5ZM12 1.25C6.64342 1.25 2.24998 5.03039 2.24998 10.5C2.24998 14.6709 4.11558 17.7331 6.23436 19.739C7.29092 20.7393 8.41557 21.4828 9.41691 21.9791C10.3934 22.4631 11.3293 22.7498 12 22.7498C12.6707 22.7498 13.6065 22.4631 14.5831 21.9791C15.5844 21.4828 16.709 20.7393 17.7656 19.739C19.8844 17.7331 21.75 14.6709 21.75 10.5C21.75 5.03039 17.3565 1.25 12 1.25ZM9.74998 11C9.74998 9.75736 10.7573 8.75 12 8.75C13.2426 8.75 14.25 9.75736 14.25 11C14.25 12.2426 13.2426 13.25 12 13.25C10.7573 13.25 9.74998 12.2426 9.74998 11ZM12 7.25C9.92892 7.25 8.24998 8.92893 8.24998 11C8.24998 13.0711 9.92892 14.75 12 14.75C14.0711 14.75 15.75 13.0711 15.75 11C15.75 8.92893 14.0711 7.25 12 7.25Z" fill="#A5A5A5"/>
</svg>
