<svg width="164" height="155" viewBox="0 0 164 155" fill="none" xmlns="http://www.w3.org/2000/svg">
<rect x="0.878418" y="0.331177" width="162.243" height="154.508" rx="12.3785" fill="#3734CA"/>
<path d="M55.8169 82.9053C64.4722 93.4655 49.5771 106.527 39.6108 97.0946C32.8202 90.8319 37.1206 78.6651 46.3411 78.2463C48.4698 77.7844 56.0808 80.1569 53.6681 82.9081C53.1116 83.3098 52.4173 83.2208 51.9038 82.9971C45.38 79.5918 38.3599 87.8167 43.6128 92.9835C49.0091 98.136 56.9616 91.2364 53.4874 84.5807C52.7214 83.1721 54.5489 81.4163 55.8169 82.9053ZM122.325 84.5979C125.791 91.3885 118.014 98.1446 112.485 92.9262C107.175 87.6389 114.092 79.543 120.73 83.0057C122.119 83.7344 123.909 82.0389 122.406 80.6762C111.759 72.0036 98.7406 87.2258 108.466 97.02C118.481 106.565 133.376 93.5458 124.652 82.9196C123.381 81.4336 121.554 83.1893 122.325 84.5979ZM74.6882 90.5622C69.5157 127.499 18.1374 126.196 13.4956 89.429C11.1231 71.668 26.7899 54.7274 44.5939 55.327C45.2538 55.3385 45.8534 55.6139 46.2866 56.0471C54.9706 64.7627 63.4939 73.5614 71.7534 82.2856C73.7099 84.443 74.1029 85.5303 73.6698 85.8401C74.3583 85.8487 74.932 87.7049 74.6882 90.5622ZM73.5751 85.886C72.8837 86.1528 70.907 85.1659 69.1542 83.4905C60.4357 75.7417 51.9698 68.059 43.6472 60.3073C20.9804 61.5696 10.6526 89.7044 27.3407 105.434C42.0923 120.384 68.698 110.55 71.8509 90.1434C72.373 87.4266 72.9984 86.0237 73.5751 85.886ZM140.778 109.244C122.937 126.845 91.8296 115.223 89.3107 90.5708C89.087 87.5241 89.546 86.0295 90.1915 86.0065C89.7755 85.6307 90.3665 84.2249 92.2197 82.2397C100.456 73.4352 108.954 64.5561 117.612 55.7631C118.068 55.3012 118.665 55.0602 119.267 55.043C147.881 54.4405 161.439 89.8909 140.778 109.244ZM144.946 88.5053C146.673 74.0635 134.75 60.4938 120.271 60.0176C111.969 67.8524 103.523 75.6155 94.8218 83.4475C92.587 85.4872 90.7337 86.4254 90.2144 86.0151C90.8427 86.0266 91.6345 87.4008 92.148 90.1348C98.4165 120.674 141.22 119.624 144.946 88.5053ZM120.326 41.3385C122.655 38.8397 121.235 36.82 118.298 39.3102C105.62 50.2032 93.5079 61.6614 81.5505 73.2745C69.2001 62.1147 58.439 49.7414 46.2321 38.6991C45.2194 37.7553 44.0776 37.2561 43.4607 37.5516C42.7091 37.9102 43.0161 39.3073 44.1464 40.6672C55.2259 53.6258 65.9611 67.0061 78.6988 78.4098C80.096 79.5889 82.3165 80.8081 83.8226 79.0553C96.2992 66.7881 108.621 54.3745 120.326 41.3385Z" fill="white"/>
</svg>
