<svg width="374" height="92" viewBox="0 0 374 92" fill="none" xmlns="http://www.w3.org/2000/svg">
<path d="M69.0466 1.33728V66.8297H58.304V21.9745L38.3264 66.8297H30.882L10.8102 21.9745V66.8297H0.0675286V1.33728H11.6583L34.6513 52.6947L57.5501 1.33728H69.0466ZM131.697 1.33728L110.023 43.0828V66.8297H99.2802V43.0828L77.5122 1.33728H89.4799L104.651 33.471L119.823 1.33728H131.697ZM161.801 67.4893C157.404 67.4893 153.446 66.7355 149.928 65.2277C146.41 63.6572 143.646 61.4584 141.635 58.6314C139.625 55.8044 138.62 52.5062 138.62 48.7368H150.116C150.368 51.5639 151.467 53.8883 153.414 55.7101C155.425 57.532 158.22 58.4429 161.801 58.4429C165.508 58.4429 168.398 57.5634 170.471 55.8044C172.544 53.9825 173.58 51.6581 173.58 48.8311C173.58 46.6323 172.921 44.8418 171.602 43.4598C170.345 42.0777 168.743 41.0097 166.796 40.2558C164.911 39.5019 162.272 38.6852 158.88 37.8057C154.608 36.6749 151.121 35.5441 148.42 34.4133C145.782 33.2197 143.52 31.3978 141.635 28.9478C139.751 26.4977 138.808 23.2309 138.808 19.1475C138.808 15.3781 139.751 12.0799 141.635 9.25291C143.52 6.4259 146.158 4.25853 149.551 2.75079C152.943 1.24305 156.87 0.489174 161.33 0.489174C167.675 0.489174 172.858 2.09115 176.879 5.29509C180.962 8.43622 183.224 12.771 183.664 18.2993H171.79C171.602 15.9121 170.471 13.8704 168.398 12.1742C166.325 10.4779 163.592 9.62984 160.199 9.62984C157.121 9.62984 154.608 10.4151 152.661 11.9857C150.713 13.5563 149.739 15.8179 149.739 18.7705C149.739 20.7808 150.336 22.4456 151.53 23.7649C152.786 25.0214 154.357 26.0265 156.241 26.7804C158.126 27.5343 160.702 28.3509 163.969 29.2305C168.303 30.4241 171.821 31.6177 174.523 32.8113C177.287 34.005 179.611 35.8582 181.496 38.3711C183.444 40.8212 184.417 44.1194 184.417 48.2657C184.417 51.5953 183.506 54.7364 181.685 57.689C179.926 60.6417 177.318 63.029 173.863 64.8508C170.471 66.6098 166.45 67.4893 161.801 67.4893ZM209.626 23.6707V52.412C209.626 54.3594 210.066 55.773 210.946 56.6525C211.888 57.4692 213.459 57.8775 215.657 57.8775H222.254V66.8297H213.773C208.935 66.8297 205.229 65.6989 202.653 63.4373C200.077 61.1757 198.789 57.5006 198.789 52.412V23.6707H192.664V14.9069H198.789V1.99692H209.626V14.9069H222.254V23.6707H209.626ZM279.743 39.5962C279.743 41.5437 279.617 43.3027 279.366 44.8733H239.694C240.008 49.0195 241.547 52.3491 244.311 54.862C247.075 57.3749 250.468 58.6314 254.488 58.6314C260.268 58.6314 264.351 56.2127 266.739 51.3754H278.329C276.759 56.1499 273.9 60.0763 269.754 63.1546C265.671 66.1701 260.582 67.6778 254.488 67.6778C249.525 67.6778 245.065 66.5784 241.107 64.3796C237.212 62.118 234.134 58.9769 231.872 54.9563C229.673 50.8728 228.574 46.1611 228.574 40.8212C228.574 35.4813 229.642 30.801 231.778 26.7804C233.977 22.6969 237.024 19.5558 240.919 17.357C244.876 15.1582 249.4 14.0588 254.488 14.0588C259.388 14.0588 263.755 15.1268 267.587 17.2628C271.419 19.3987 274.403 22.4142 276.539 26.3092C278.675 30.1414 279.743 34.5704 279.743 39.5962ZM268.529 36.2038C268.466 32.2459 267.053 29.0734 264.289 26.6861C261.524 24.2989 258.101 23.1053 254.017 23.1053C250.311 23.1053 247.138 24.2989 244.499 26.6861C241.861 29.0106 240.29 32.1831 239.788 36.2038H268.529ZM301.057 22.4456C302.628 19.8071 304.701 17.7654 307.277 16.3204C309.915 14.8127 313.025 14.0588 316.606 14.0588V25.1784H313.873C309.664 25.1784 306.46 26.2464 304.261 28.3824C302.125 30.5183 301.057 34.2248 301.057 39.5019V66.8297H290.315V14.9069H301.057V22.4456ZM373.221 14.9069L341.37 91.2362H330.25L340.804 65.9816L320.355 14.9069H332.323L346.929 54.4851L362.101 14.9069H373.221Z" fill="#3734CA"/>
</svg>
