<svg width="26" height="25" viewBox="0 0 26 25" fill="none" xmlns="http://www.w3.org/2000/svg">
<path d="M13.2642 0C20.108 0 25.7617 5.61271 25.7617 12.3894C25.7524 19.5634 20.3523 25.0026 13.2455 24.9839C6.13868 24.9653 0.747936 19.472 0.783377 12.3241C0.815087 5.5866 6.47443 0 13.2642 0ZM13.2455 21.867C18.3732 21.8819 22.572 17.7838 22.5888 12.755C22.6038 7.25232 18.7015 3.21393 13.35 3.19527C7.99839 3.17662 3.94881 7.20382 3.93575 12.5106C3.92936 13.7373 4.16552 14.9532 4.63065 16.0884C5.09579 17.2235 5.78073 18.2555 6.64608 19.125C7.51143 19.9945 8.54012 20.6844 9.67301 21.1549C10.8059 21.6255 12.0206 21.8675 13.2474 21.867H13.2455Z" fill="#C32B43"/>
<path d="M16.1385 17.0042C15.2767 16.9184 14.6723 16.7338 14.1146 16.8289C13.2453 16.9526 12.4002 17.2099 11.6095 17.5918C10.5556 18.1421 9.67145 18.1514 9.14357 17.3624C8.58397 16.5211 8.85817 15.609 9.90088 14.9505C11.9154 13.6803 14.0736 13.2606 16.3884 13.9321C17.3062 14.1969 17.7203 14.8927 17.5598 15.7638C17.5126 16.1073 17.3426 16.4221 17.0814 16.6501C16.8201 16.8781 16.4852 17.0039 16.1385 17.0042Z" fill="#C32B43"/>
<path d="M10.1121 7.83818C10.5339 7.83505 10.9401 7.99701 11.2441 8.28945C11.548 8.58188 11.7255 8.9816 11.7386 9.40317C11.7124 9.80774 11.542 10.1895 11.2582 10.4791C10.9745 10.7686 10.5963 10.9468 10.1923 10.9812C9.78735 10.9765 9.39904 10.8193 9.10483 10.541C8.81062 10.2627 8.63212 9.88373 8.60493 9.47965C8.58739 9.27097 8.61332 9.06092 8.68107 8.86277C8.74883 8.66462 8.85693 8.48267 8.99856 8.32842C9.1402 8.17416 9.31228 8.05095 9.50394 7.96657C9.69561 7.88219 9.90268 7.83848 10.1121 7.83818Z" fill="#C32B43"/>
<path d="M16.3496 10.9646C15.9274 10.9525 15.5265 10.7762 15.2321 10.4731C14.9378 10.1701 14.7733 9.76424 14.7734 9.3418C14.8084 8.93863 14.9901 8.5623 15.284 8.28416C15.578 8.00602 15.9638 7.84541 16.3683 7.83276C16.578 7.83262 16.7856 7.87479 16.9787 7.95675C17.1718 8.0387 17.3463 8.15877 17.4919 8.30975C17.6375 8.46073 17.7511 8.63954 17.826 8.83546C17.9009 9.03138 17.9355 9.24039 17.9277 9.44999C17.9108 9.85726 17.7372 10.2423 17.4431 10.5245C17.1491 10.8068 16.7572 10.9645 16.3496 10.9646Z" fill="#C32B43"/>
</svg>
