<svg width="25" height="26" viewBox="0 0 25 26" fill="none" xmlns="http://www.w3.org/2000/svg">
<path d="M0 13.3418C0 6.57446 5.67425 0.974816 12.5255 0.984142C19.3115 0.984142 24.9652 6.6043 24.9764 13.3399C24.9895 20.4915 19.567 25.9643 12.4789 25.968C5.39073 25.9717 0 20.5232 0 13.3418ZM12.4509 22.8548C17.5133 22.8809 21.7961 18.7605 21.824 13.8398C21.8539 8.31105 17.9181 4.20552 12.5647 4.18314C7.25043 4.16076 3.28293 8.13571 3.14677 13.3996C3.02179 18.255 7.14411 22.9462 12.4509 22.8511V22.8548Z" fill="#DCDCDC"/>
<path d="M12.4186 18.3351C11.0532 18.3351 9.68782 18.35 8.32428 18.3351C7.26479 18.3202 6.64551 17.7214 6.64551 16.7683C6.64551 15.8151 7.28158 15.1865 8.32428 15.179C11.1148 15.1604 13.9059 15.1604 16.6976 15.179C17.7366 15.179 18.3223 15.8188 18.3074 16.8018C18.2943 17.7438 17.7291 18.3127 16.7088 18.3314C15.2707 18.3612 13.8437 18.3351 12.4186 18.3351Z" fill="#DCDCDC"/>
<path d="M9.23533 11.967C8.82956 11.9609 8.44097 11.8022 8.14685 11.5226C7.85273 11.243 7.67462 10.8629 7.64796 10.458C7.63205 10.2495 7.65933 10.0399 7.72811 9.8424C7.79688 9.6449 7.90566 9.46372 8.04764 9.31018C8.18962 9.15664 8.36176 9.03405 8.55328 8.95006C8.74481 8.86608 8.9516 8.82252 9.16072 8.8221C9.56661 8.81806 9.95888 8.9684 10.2581 9.24269C10.5573 9.51697 10.7411 9.89471 10.7723 10.2994C10.7763 10.7207 10.6195 11.1277 10.334 11.4375C10.0484 11.7473 9.65556 11.9367 9.23533 11.967Z" fill="#DCDCDC"/>
<path d="M15.3742 8.82218C15.5762 8.81217 15.7783 8.84245 15.9686 8.91126C16.1589 8.98007 16.3335 9.08604 16.4825 9.223C16.6314 9.35996 16.7516 9.52517 16.8361 9.70902C16.9206 9.89287 16.9677 10.0917 16.9746 10.2939C16.9895 10.7175 16.8383 11.1301 16.5532 11.4437C16.2681 11.7573 15.8718 11.9472 15.4488 11.9727C14.628 11.9932 13.8129 11.1967 13.8204 10.376C13.8403 9.97031 14.0103 9.58655 14.2975 9.29935C14.5847 9.01216 14.9685 8.84207 15.3742 8.82218Z" fill="#DCDCDC"/>
</svg>
