<svg width="21" height="22" viewBox="0 0 21 22" fill="none" xmlns="http://www.w3.org/2000/svg">
<g clip-path="url(#clip0_188_6440)">
<path fill-rule="evenodd" clip-rule="evenodd" d="M7.65625 1.375C7.65625 1.01256 7.36244 0.71875 7 0.71875C6.63756 0.71875 6.34375 1.01256 6.34375 1.375V1.69608C5.5648 1.77958 4.91229 1.935 4.31862 2.23749C3.20729 2.80374 2.30374 3.70729 1.73749 4.81862C1.39639 5.48807 1.2423 6.23234 1.16746 7.14837C1.09374 8.05057 1.09375 9.17529 1.09375 10.6203V10.65V11.35V11.3797C1.09375 12.8247 1.09374 13.9494 1.16746 14.8516C1.2423 15.7677 1.39639 16.5119 1.73749 17.1814C2.30374 18.2927 3.20729 19.1963 4.31862 19.7625C4.98807 20.1036 5.73234 20.2577 6.64837 20.3325C7.55056 20.4063 8.67527 20.4063 10.1203 20.4062H10.15H10.85H10.8797C12.3247 20.4063 13.4494 20.4063 14.3516 20.3325C15.2677 20.2577 16.0119 20.1036 16.6814 19.7625C17.7927 19.1963 18.6963 18.2927 19.2625 17.1814C19.6036 16.5119 19.7577 15.7677 19.8325 14.8516C19.9063 13.9494 19.9063 12.8247 19.9062 11.3797V11.35V10.65V10.6203C19.9063 9.17527 19.9063 8.05056 19.8325 7.14837C19.7577 6.23234 19.6036 5.48807 19.2625 4.81862C18.6963 3.70729 17.7927 2.80374 16.6814 2.23749C16.0877 1.935 15.4352 1.77958 14.6562 1.69608V1.375C14.6562 1.01256 14.3624 0.71875 14 0.71875C13.6376 0.71875 13.3438 1.01256 13.3438 1.375V1.61474C12.6425 1.59375 11.8304 1.59375 10.8797 1.59375H10.85H10.15H10.1203C9.16959 1.59375 8.35752 1.59375 7.65625 1.61474V1.375ZM13.3438 4V2.92778C12.662 2.90648 11.8492 2.90625 10.85 2.90625H10.15C9.15076 2.90625 8.33804 2.90648 7.65625 2.92778V4C7.65625 4.36244 7.36244 4.65625 7 4.65625C6.63756 4.65625 6.34375 4.36244 6.34375 4V3.01723C5.73098 3.0928 5.28906 3.21608 4.91448 3.40694C4.05011 3.84736 3.34736 4.55011 2.90694 5.41448C2.67583 5.86807 2.54381 6.42038 2.4756 7.25525C2.40676 8.09778 2.40625 9.16903 2.40625 10.65V11.35C2.40625 12.831 2.40676 13.9022 2.4756 14.7448C2.54381 15.5796 2.67583 16.1319 2.90694 16.5855C3.34736 17.4499 4.05011 18.1526 4.91448 18.5931C5.36807 18.8242 5.92038 18.9562 6.75525 19.0244C7.59778 19.0932 8.66903 19.0938 10.15 19.0938H10.85C12.331 19.0938 13.4022 19.0932 14.2448 19.0244C15.0796 18.9562 15.6319 18.8242 16.0855 18.5931C16.9499 18.1526 17.6526 17.4499 18.0931 16.5855C18.3242 16.1319 18.4562 15.5796 18.5244 14.7448C18.5932 13.9022 18.5938 12.831 18.5938 11.35V10.65C18.5938 9.16903 18.5932 8.09778 18.5244 7.25525C18.4562 6.42038 18.3242 5.86807 18.0931 5.41448C17.6526 4.55011 16.9499 3.84736 16.0855 3.40694C15.7109 3.21608 15.269 3.0928 14.6562 3.01723V4C14.6562 4.36244 14.3624 4.65625 14 4.65625C13.6376 4.65625 13.3438 4.36244 13.3438 4ZM6.125 6.84375C5.76256 6.84375 5.46875 7.13756 5.46875 7.5C5.46875 7.86244 5.76256 8.15625 6.125 8.15625H14.875C15.2374 8.15625 15.5312 7.86244 15.5312 7.5C15.5312 7.13756 15.2374 6.84375 14.875 6.84375H6.125ZM7.875 11.875C7.875 12.3582 7.48325 12.75 7 12.75C6.51675 12.75 6.125 12.3582 6.125 11.875C6.125 11.3918 6.51675 11 7 11C7.48325 11 7.875 11.3918 7.875 11.875ZM7 16.25C7.48325 16.25 7.875 15.8582 7.875 15.375C7.875 14.8918 7.48325 14.5 7 14.5C6.51675 14.5 6.125 14.8918 6.125 15.375C6.125 15.8582 6.51675 16.25 7 16.25ZM11.375 15.375C11.375 15.8582 10.9832 16.25 10.5 16.25C10.0168 16.25 9.625 15.8582 9.625 15.375C9.625 14.8918 10.0168 14.5 10.5 14.5C10.9832 14.5 11.375 14.8918 11.375 15.375ZM14 16.25C14.4832 16.25 14.875 15.8582 14.875 15.375C14.875 14.8918 14.4832 14.5 14 14.5C13.5168 14.5 13.125 14.8918 13.125 15.375C13.125 15.8582 13.5168 16.25 14 16.25ZM11.375 11.875C11.375 12.3582 10.9832 12.75 10.5 12.75C10.0168 12.75 9.625 12.3582 9.625 11.875C9.625 11.3918 10.0168 11 10.5 11C10.9832 11 11.375 11.3918 11.375 11.875ZM14 12.75C14.4832 12.75 14.875 12.3582 14.875 11.875C14.875 11.3918 14.4832 11 14 11C13.5168 11 13.125 11.3918 13.125 11.875C13.125 12.3582 13.5168 12.75 14 12.75Z" fill="#8E8E93"/>
</g>
<defs>
<clipPath id="clip0_188_6440">
<rect width="21" height="21" fill="white" transform="translate(0 0.5)"/>
</clipPath>
</defs>
</svg>
