<svg width="60" height="60" viewBox="0 0 60 60" fill="none" xmlns="http://www.w3.org/2000/svg">
<g opacity="0.2">
<path d="M5.64825 20.0221C5.944 20.8436 6.35375 21.5636 6.811 22.2319L6.399 25.2299C5.968 28.2964 5.7495 31.4749 5.7495 34.6756C5.7495 38.3816 6.04625 42.0854 6.63075 45.6694C7.3315 50.0711 10.719 53.4599 15.0623 54.0996C19.1895 54.7051 23.3435 55.0054 27.4988 55.0054C31.6553 55.0054 35.8118 54.7026 39.9403 54.0996C44.281 53.4599 47.6685 50.0714 48.3693 45.6694C49.4235 39.1149 49.5098 32.4556 48.663 25.8459C51.323 24.7906 53.4143 22.7079 54.3445 20.0396C54.779 18.8624 55 17.5881 55 16.2501C55 14.9121 54.779 13.6379 54.3603 12.5026C53.1323 8.97963 49.84 6.40388 45.9727 5.94263C35.5602 4.69263 24.4382 4.69263 14.0282 5.94263C10.16 6.40388 6.86775 8.97963 5.6555 12.4611C5.221 13.6379 5 14.9121 5 16.2501C5 17.5881 5.221 18.8624 5.64825 20.0221ZM43.4315 44.8781L43.4303 44.8831C43.0813 47.0829 41.3452 48.8381 39.2127 49.1531C31.4442 50.2909 23.561 50.2909 15.79 49.1531C13.655 48.8381 11.9192 47.0829 11.5675 44.8734C11.0255 41.5456 10.7498 38.1131 10.7498 34.6756C10.7498 31.7069 10.9525 28.7626 11.3515 25.9184L11.3565 25.8794C11.5403 25.9534 11.7345 26.0009 11.9228 26.0641C12.078 26.1161 12.23 26.1711 12.388 26.2159C12.9248 26.3684 13.4707 26.4929 14.0322 26.5579C16.5885 26.8591 19.1535 27.0804 21.7228 27.2364C22.629 27.2914 23.5368 27.2956 24.444 27.3326C26.1125 27.4004 27.78 27.4726 29.4497 27.4794C29.6327 27.4799 29.8162 27.4951 30 27.4951C30.8732 27.4951 31.7453 27.4351 32.6185 27.4184C34.1433 27.3891 35.667 27.3646 37.19 27.2844C38.2923 27.2264 39.3898 27.1256 40.4902 27.0409C41.5812 26.9569 42.675 26.9096 43.7635 26.7994C44.5067 32.8176 44.3945 38.8966 43.4315 44.8781ZM30 10.0001C35.1928 10.0001 40.3675 10.3054 45.3785 10.9084C47.3633 11.1451 49.0357 12.4171 49.6545 14.1896C49.8865 14.8219 50 15.4956 50 16.2501C50 17.0046 49.8865 17.6784 49.64 18.3496C49.054 20.0244 47.4488 21.2819 45.5495 21.5504C45.469 21.5626 45.3785 21.5796 45.292 21.6016C40.2038 22.1996 35.0795 22.4961 29.9555 22.4939C25.9462 22.4921 21.9425 22.2524 17.9508 21.8859C19.3288 19.7639 19.708 17.7679 19.7155 16.2404C19.725 14.2746 19.129 12.3786 18.0027 10.6066C21.9527 10.2404 25.9587 10.0001 30 10.0001ZM10.3612 14.1481C10.725 13.1041 11.5053 12.2641 12.481 11.6804C13.6632 12.8511 14.725 14.4046 14.7155 16.2159C14.707 18.0461 13.6055 19.6111 12.3875 20.7879C11.9748 20.5306 11.585 20.2361 11.2585 19.8756C10.8862 19.4729 10.5725 18.9381 10.3455 18.3106C10.1135 17.6784 10 17.0046 10 16.2501C10 15.4956 10.1135 14.8219 10.3612 14.1481Z" fill="#A5A5A5"/>
</g>
</svg>
