<svg width="21" height="21" viewBox="0 0 21 21" fill="none" xmlns="http://www.w3.org/2000/svg">
<path fill-rule="evenodd" clip-rule="evenodd" d="M3.96404 0.910961C4.22032 1.16724 4.22032 1.58276 3.96404 1.83904L1.33904 4.46404C1.08276 4.72032 0.667243 4.72032 0.410961 4.46404C0.15468 4.20776 0.15468 3.79224 0.410961 3.53596L3.03596 0.910961C3.29224 0.65468 3.70776 0.65468 3.96404 0.910961ZM2.40625 11C2.40625 6.52995 6.02995 2.90625 10.5 2.90625C14.9701 2.90625 18.5938 6.52995 18.5938 11C18.5938 15.4701 14.9701 19.0938 10.5 19.0938C6.02995 19.0938 2.40625 15.4701 2.40625 11ZM10.5 1.59375C5.30507 1.59375 1.09375 5.80507 1.09375 11C1.09375 16.1949 5.30507 20.4062 10.5 20.4062C15.6949 20.4062 19.9062 16.1949 19.9062 11C19.9062 5.80507 15.6949 1.59375 10.5 1.59375ZM11.1562 7.5C11.1562 7.13756 10.8624 6.84375 10.5 6.84375C10.1376 6.84375 9.84375 7.13756 9.84375 7.5V11C9.84375 11.2194 9.95341 11.4243 10.136 11.546L12.761 13.296C13.0625 13.4971 13.47 13.4156 13.671 13.114C13.8721 12.8125 13.7906 12.405 13.489 12.204L11.1562 10.6488V7.5ZM17.036 1.83904C16.7797 1.58276 16.7797 1.16724 17.036 0.910961C17.2922 0.65468 17.7078 0.65468 17.964 0.910961L20.589 3.53596C20.8453 3.79224 20.8453 4.20776 20.589 4.46404C20.3328 4.72032 19.9172 4.72032 19.661 4.46404L17.036 1.83904Z" fill="#8E8E93"/>
</svg>
