<?xml version="1.0" encoding="UTF-8"?>
<svg version="1.1" xmlns="http://www.w3.org/2000/svg" width="64" height="79">
<path d="M0 0 C1.28218414 -0.03343758 1.28218414 -0.03343758 2.590271 -0.06755066 C3.50697571 -0.0688649 4.42368042 -0.07017914 5.36816406 -0.0715332 C6.79615326 -0.08794609 6.79615326 -0.08794609 8.25299072 -0.10469055 C10.26691276 -0.12054829 12.28094279 -0.12575425 14.29492188 -0.12109375 C17.36024885 -0.12230515 20.42075988 -0.18198829 23.48535156 -0.24536133 C25.44627744 -0.25350697 27.40722145 -0.25817577 29.36816406 -0.2590332 C30.27677185 -0.28261398 31.18537964 -0.30619476 32.121521 -0.33049011 C38.24610477 -0.24306209 41.38858079 1.19117045 45.68579102 5.55809021 C46.65005005 6.5516024 46.65005005 6.5516024 47.63378906 7.56518555 C48.74258423 8.43585411 48.74258423 8.43585411 49.8737793 9.32411194 C53.25551649 12.11596167 55.31300927 14.21705164 56.34509277 18.55456543 C56.62523828 22.17307873 56.6385242 25.70244222 56.55566406 29.33081055 C56.55291473 31.29724518 56.55291473 31.29724518 56.55010986 33.30340576 C56.54388586 36.06439386 56.5110102 38.82328065 56.45703125 41.58374023 C56.38879945 45.11708535 56.37378287 48.64814467 56.37681198 52.18207169 C56.37546225 55.5652897 56.34012168 58.94776105 56.30566406 62.33081055 C56.30121277 63.59749573 56.29676147 64.86418091 56.29217529 66.16925049 C56.26665588 67.34437195 56.24113647 68.51949341 56.21484375 69.73022461 C56.19197296 71.27954681 56.19197296 71.27954681 56.16864014 72.86016846 C55.48343259 76.32561559 54.48331772 77.50747295 51.63378906 79.56518555 C49.05371094 80.07312012 49.05371094 80.07312012 46.10253906 80.08276367 C44.99458984 80.09537231 43.88664062 80.10798096 42.74511719 80.12097168 C41.55337891 80.11287476 40.36164062 80.10477783 39.13378906 80.09643555 C37.29204102 80.1021759 37.29204102 80.1021759 35.41308594 80.10803223 C32.81737447 80.11075396 30.2216357 80.10337466 27.62597656 80.08666992 C23.64879307 80.06526629 19.67341625 80.08646517 15.69628906 80.11206055 C13.17545173 80.10941732 10.65461553 80.10429245 8.13378906 80.09643555 C6.34618164 80.10858093 6.34618164 80.10858093 4.52246094 80.12097168 C3.41451172 80.10836304 2.3065625 80.09575439 1.16503906 80.08276367 C0.19115234 80.0795813 -0.78273438 80.07639893 -1.78613281 80.07312012 C-5.22171606 79.39676405 -6.35748273 78.42279296 -8.36621094 75.56518555 C-8.87414551 72.41564941 -8.87414551 72.41564941 -8.88378906 68.65698242 C-8.89079834 67.97031998 -8.89780762 67.28365753 -8.9050293 66.57618713 C-8.92260106 64.31168904 -8.91099089 62.04844582 -8.89746094 59.78393555 C-8.90015612 58.20739503 -8.90403877 56.63085613 -8.90905762 55.05432129 C-8.9149515 51.75228021 -8.90639372 48.45067232 -8.88769531 45.14868164 C-8.86490525 40.91817494 -8.878029 36.68868327 -8.90198517 32.45821381 C-8.91644645 29.20335252 -8.91183577 25.94873148 -8.901474 22.69386292 C-8.8988076 21.13415913 -8.90207348 19.57443347 -8.91139221 18.01475525 C-8.92156396 15.83371292 -8.90605135 13.65430908 -8.88378906 11.47338867 C-8.88060669 10.23302856 -8.87742432 8.99266846 -8.87414551 7.71472168 C-8.36621094 4.56518555 -8.36621094 4.56518555 -6.60675049 2.16874695 C-4.13614759 0.40052847 -2.99775791 0.04897599 0 0 Z " fill="#F4F3F3" transform="translate(8.3662109375,-0.565185546875)"/>
<path d="M0 0 C1.28218414 -0.03343758 1.28218414 -0.03343758 2.590271 -0.06755066 C3.50697571 -0.0688649 4.42368042 -0.07017914 5.36816406 -0.0715332 C6.79615326 -0.08794609 6.79615326 -0.08794609 8.25299072 -0.10469055 C10.26691276 -0.12054829 12.28094279 -0.12575425 14.29492188 -0.12109375 C17.36024885 -0.12230515 20.42075988 -0.18198829 23.48535156 -0.24536133 C25.44627744 -0.25350697 27.40722145 -0.25817577 29.36816406 -0.2590332 C30.27677185 -0.28261398 31.18537964 -0.30619476 32.121521 -0.33049011 C38.24610477 -0.24306209 41.38858079 1.19117045 45.68579102 5.55809021 C46.65005005 6.5516024 46.65005005 6.5516024 47.63378906 7.56518555 C48.74258423 8.43585411 48.74258423 8.43585411 49.8737793 9.32411194 C53.25551649 12.11596167 55.31300927 14.21705164 56.34509277 18.55456543 C56.62523828 22.17307873 56.6385242 25.70244222 56.55566406 29.33081055 C56.55291473 31.29724518 56.55291473 31.29724518 56.55010986 33.30340576 C56.54388586 36.06439386 56.5110102 38.82328065 56.45703125 41.58374023 C56.38879945 45.11708535 56.37378287 48.64814467 56.37681198 52.18207169 C56.37546225 55.5652897 56.34012168 58.94776105 56.30566406 62.33081055 C56.30121277 63.59749573 56.29676147 64.86418091 56.29217529 66.16925049 C56.26665588 67.34437195 56.24113647 68.51949341 56.21484375 69.73022461 C56.19197296 71.27954681 56.19197296 71.27954681 56.16864014 72.86016846 C55.48343259 76.32561559 54.48331772 77.50747295 51.63378906 79.56518555 C49.05371094 80.07312012 49.05371094 80.07312012 46.10253906 80.08276367 C44.99458984 80.09537231 43.88664062 80.10798096 42.74511719 80.12097168 C41.55337891 80.11287476 40.36164062 80.10477783 39.13378906 80.09643555 C37.29204102 80.1021759 37.29204102 80.1021759 35.41308594 80.10803223 C32.81737447 80.11075396 30.2216357 80.10337466 27.62597656 80.08666992 C23.64879307 80.06526629 19.67341625 80.08646517 15.69628906 80.11206055 C13.17545173 80.10941732 10.65461553 80.10429245 8.13378906 80.09643555 C6.34618164 80.10858093 6.34618164 80.10858093 4.52246094 80.12097168 C3.41451172 80.10836304 2.3065625 80.09575439 1.16503906 80.08276367 C0.19115234 80.0795813 -0.78273438 80.07639893 -1.78613281 80.07312012 C-5.22171606 79.39676405 -6.35748273 78.42279296 -8.36621094 75.56518555 C-8.87414551 72.41564941 -8.87414551 72.41564941 -8.88378906 68.65698242 C-8.89079834 67.97031998 -8.89780762 67.28365753 -8.9050293 66.57618713 C-8.92260106 64.31168904 -8.91099089 62.04844582 -8.89746094 59.78393555 C-8.90015612 58.20739503 -8.90403877 56.63085613 -8.90905762 55.05432129 C-8.9149515 51.75228021 -8.90639372 48.45067232 -8.88769531 45.14868164 C-8.86490525 40.91817494 -8.878029 36.68868327 -8.90198517 32.45821381 C-8.91644645 29.20335252 -8.91183577 25.94873148 -8.901474 22.69386292 C-8.8988076 21.13415913 -8.90207348 19.57443347 -8.91139221 18.01475525 C-8.92156396 15.83371292 -8.90605135 13.65430908 -8.88378906 11.47338867 C-8.88060669 10.23302856 -8.87742432 8.99266846 -8.87414551 7.71472168 C-8.36621094 4.56518555 -8.36621094 4.56518555 -6.60675049 2.16874695 C-4.13614759 0.40052847 -2.99775791 0.04897599 0 0 Z M-5.36621094 5.56518555 C-5.68099027 8.49876349 -5.68099027 8.49876349 -5.64086914 11.98681641 C-5.64598007 12.64553238 -5.651091 13.30424835 -5.65635681 13.98292542 C-5.67028288 16.16538522 -5.6692938 18.34753028 -5.66699219 20.5300293 C-5.6708776 22.04456195 -5.67521195 23.55909352 -5.67997742 25.07362366 C-5.68744619 28.25045298 -5.68714374 31.42717118 -5.68188477 34.60400391 C-5.67609053 38.67755212 -5.69301641 42.7506456 -5.71622944 46.82411861 C-5.73095333 49.95279099 -5.73184032 53.08135352 -5.72871971 56.2100544 C-5.72923365 57.71197981 -5.73448498 59.21391125 -5.74453163 60.71580315 C-5.75685267 62.81555691 -5.75013147 64.91442091 -5.73852539 67.01416016 C-5.73915482 68.20947861 -5.73978424 69.40479706 -5.74043274 70.63633728 C-5.58422119 73.52074177 -5.58422119 73.52074177 -4.15959167 75.45036316 C-1.76244106 76.94050806 -0.11775312 76.94596237 2.70019531 76.95336914 C4.24694946 76.96755386 4.24694946 76.96755386 5.82495117 76.98202515 C7.49376343 76.97291611 7.49376343 76.97291611 9.19628906 76.96362305 C10.33912354 76.96649323 11.48195801 76.9693634 12.65942383 76.97232056 C15.07699071 76.97436312 17.49457405 76.96881993 19.91210938 76.95629883 C23.61918991 76.94024875 27.32518007 76.95614195 31.03222656 76.9753418 C33.37858314 76.9733594 35.72493904 76.9695158 38.07128906 76.96362305 C39.18383057 76.96969574 40.29637207 76.97576843 41.44262695 76.98202515 C42.47379639 76.97256866 43.50496582 76.96311218 44.56738281 76.95336914 C45.47544678 76.95098236 46.38351074 76.94859558 47.3190918 76.94613647 C49.66149497 76.7235872 49.66149497 76.7235872 51.42221069 75.37556458 C53.07361445 72.90798443 53.0410647 71.17175586 53.08544922 68.2109375 C53.10781647 67.11582352 53.13018372 66.02070953 53.15322876 64.89241028 C53.15970428 63.70805893 53.16617981 62.52370758 53.17285156 61.3034668 C53.18520844 60.08370651 53.19756531 58.86394623 53.21029663 57.60722351 C53.22988669 55.0223776 53.24109913 52.4374568 53.24462891 49.85253906 C53.25867476 45.90977077 53.32594521 41.97020376 53.39550781 38.02807617 C53.40791104 35.51572046 53.41712815 33.0033466 53.42285156 30.4909668 C53.4495694 29.3167366 53.47628723 28.14250641 53.5038147 26.93269348 C53.4576905 21.33555466 53.21806862 17.5015357 49.52197266 13.13232422 C48.25015795 11.91737858 46.95413285 10.72720871 45.63378906 9.56518555 C45.08077621 8.97328934 44.52776337 8.38139313 43.95799255 7.77156067 C40.05237001 3.82756091 36.99466915 2.87373939 31.4884491 2.83410645 C30.17400566 2.87114685 30.17400566 2.87114685 28.83300781 2.90893555 C27.45662895 2.91455505 27.45662895 2.91455505 26.05244446 2.92028809 C24.12522711 2.93366833 22.19806128 2.96137693 20.27124023 3.00268555 C17.31280411 3.06536532 14.35649726 3.08466902 11.39746094 3.09643555 C9.52178374 3.11476304 7.64612828 3.1355106 5.77050781 3.15893555 C4.88409103 3.1674353 3.99767426 3.17593506 3.08439636 3.18469238 C-1.62470347 3.07719878 -1.62470347 3.07719878 -5.36621094 5.56518555 Z " fill="#FE2F25" transform="translate(8.3662109375,-0.565185546875)"/>
<path d="M0 0 C0.33 0 0.66 0 1 0 C0.93039063 0.78503906 0.86078125 1.57007812 0.7890625 2.37890625 C0.33924445 9.747413 0.33924445 9.747413 3.5625 16.125 C6.74086026 19.24267558 9.66871204 20.22036817 14 21 C13.67 20.34 13.34 19.68 13 19 C9.97065509 18.34227572 9.97065509 18.34227572 7 18 C7 17.67 7 17.34 7 17 C13.75 16.875 13.75 16.875 16 18 C15.67 19.65 15.34 21.3 15 23 C8.375 22.25 8.375 22.25 5 20 C2.4745777 19.9744911 2.4745777 19.9744911 -0.1875 20.375 C-1.08855469 20.48585938 -1.98960938 20.59671875 -2.91796875 20.7109375 C-3.60503906 20.80632813 -4.29210938 20.90171875 -5 21 C-5.20625 21.721875 -5.4125 22.44375 -5.625 23.1875 C-7.49491703 27.01233029 -9.50232093 28.57303901 -13 31 C-13.99 30.67 -14.98 30.34 -16 30 C-15.195625 29.4225 -14.39125 28.845 -13.5625 28.25 C-10.87420949 25.8895498 -10.65812049 25.29060243 -10 22 C-9.01 21.34 -8.02 20.68 -7 20 C-3.71815052 13.67002325 -1.47238944 6.96038643 0 0 Z " fill="#FD3E35" transform="translate(32,17)"/>
<path d="M0 0 C5 0 5 0 6.8125 1.0625 C8.646921 4.05550269 8.31107576 6.57816663 8 10 C7.34 10.66 6.68 11.32 6 12 C4.02 12 2.04 12 0 12 C0 8.04 0 4.08 0 0 Z " fill="#3B3B3B" transform="translate(28,55)"/>
<path d="M0 0 C5.71428571 3.76623377 5.71428571 3.76623377 8.0625 5.6875 C10.35126065 7.23795076 12.28371419 7.62273808 15 8 C14.67 7.34 14.34 6.68 14 6 C10.97065509 5.34227572 10.97065509 5.34227572 8 5 C8 4.67 8 4.34 8 4 C14.75 3.875 14.75 3.875 17 5 C16.67 6.65 16.34 8.3 16 10 C9.375 9.25 9.375 9.25 6 7 C3.93089407 6.97250522 3.93089407 6.97250522 1.8125 7.375 C-0.0746875 7.684375 -0.0746875 7.684375 -2 8 C-2.33 7.34 -2.66 6.68 -3 6 C-2.06553465 3.96855359 -1.06775224 1.96466413 0 0 Z " fill="#FB675F" transform="translate(31,30)"/>
<path d="M0 0 C2.31 0.33 4.62 0.66 7 1 C7 2.98 7 4.96 7 7 C5.35 7.33 3.7 7.66 2 8 C2 9.32 2 10.64 2 12 C1.34 12 0.68 12 0 12 C0 8.04 0 4.08 0 0 Z " fill="#666666" transform="translate(19,55)"/>
<path d="M0 0 C2.31 0 4.62 0 7 0 C7 0.66 7 1.32 7 2 C5.35 2 3.7 2 2 2 C2 3.32 2 4.64 2 6 C3.32 6.33 4.64 6.66 6 7 C4.68 7 3.36 7 2 7 C2 8.65 2 10.3 2 12 C1.34 12 0.68 12 0 12 C0 8.04 0 4.08 0 0 Z " fill="#474747" transform="translate(38,55)"/>
<path d="M0 0 C1.98 0.495 1.98 0.495 4 1 C3.01 4.96 2.02 8.92 1 13 C-1.3638665 8.27226701 -1.25393971 6.16344069 -1 1 C-0.67 0.67 -0.34 0.34 0 0 Z " fill="#F99893" transform="translate(29,15)"/>
<path d="M0 0 C1.32 0.33 2.64 0.66 4 1 C4.125 6.75 4.125 6.75 3 9 C2.01 9 1.02 9 0 9 C0 6.03 0 3.06 0 0 Z " fill="#E6E6E6" transform="translate(30,57)"/>
<path d="M0 0 C-1.15173355 2.46800047 -2.04783565 4.04783565 -4 6 C-5.32 6 -6.64 6 -8 6 C-6.24081631 1.94034532 -4.71412298 0 0 0 Z " fill="#F7B8B5" transform="translate(23,40)"/>
<path d="M0 0 C1.32 1.32 2.64 2.64 4 4 C3.34 4.66 2.68 5.32 2 6 C0.68 6 -0.64 6 -2 6 C-1.34 4.02 -0.68 2.04 0 0 Z " fill="#F5EAE9" transform="translate(31,30)"/>
<path d="M0 0 C2.64 0.33 5.28 0.66 8 1 C8.33 1.99 8.66 2.98 9 4 C5.625 3.6875 5.625 3.6875 2 3 C1.34 2.01 0.68 1.02 0 0 Z " fill="#F6D9D8" transform="translate(37,34)"/>
<path d="M0 0 C0.99 0.33 1.98 0.66 3 1 C-1.39453125 5.00390625 -1.39453125 5.00390625 -3 6 C-3.99 5.67 -4.98 5.34 -6 5 C-5.195625 4.360625 -4.39125 3.72125 -3.5625 3.0625 C-1.7249496 1.59396498 -1.7249496 1.59396498 0 0 Z " fill="#FD4D44" transform="translate(22,42)"/>
<path d="M0 0 C0.33 0 0.66 0 1 0 C1.08096803 1.45742463 1.13917774 2.91612807 1.1875 4.375 C1.22230469 5.18710937 1.25710937 5.99921875 1.29296875 6.8359375 C1.19628906 7.55007812 1.09960938 8.26421875 1 9 C0.01 9.66 -0.98 10.32 -2 11 C-1.34 7.37 -0.68 3.74 0 0 Z " fill="#FE3026" transform="translate(32,17)"/>
</svg>
