<svg width="22" height="22" viewBox="0 0 22 22" fill="none" xmlns="http://www.w3.org/2000/svg">
<path d="M11.0001 0.655273C5.28645 0.655273 0.655273 5.28645 0.655273 11.0001C0.655273 16.7138 5.28645 21.3449 11.0001 21.3449C16.7138 21.3449 21.3449 16.7138 21.3449 11.0001C21.3449 5.28645 16.7138 0.655273 11.0001 0.655273ZM16.3794 11.8277H11.8277V16.3794C11.8277 16.5989 11.7405 16.8094 11.5853 16.9646C11.4301 17.1198 11.2196 17.207 11.0001 17.207C10.7806 17.207 10.5701 17.1198 10.4149 16.9646C10.2597 16.8094 10.1725 16.5989 10.1725 16.3794V11.8277H5.62079C5.4013 11.8277 5.1908 11.7405 5.0356 11.5853C4.8804 11.4301 4.7932 11.2196 4.7932 11.0001C4.7932 10.7806 4.8804 10.5701 5.0356 10.4149C5.1908 10.2597 5.4013 10.1725 5.62079 10.1725H10.1725V5.62079C10.1725 5.4013 10.2597 5.1908 10.4149 5.0356C10.5701 4.8804 10.7806 4.7932 11.0001 4.7932C11.2196 4.7932 11.4301 4.8804 11.5853 5.0356C11.7405 5.1908 11.8277 5.4013 11.8277 5.62079V10.1725H16.3794C16.5989 10.1725 16.8094 10.2597 16.9646 10.4149C17.1198 10.5701 17.207 10.7806 17.207 11.0001C17.207 11.2196 17.1198 11.4301 16.9646 11.5853C16.8094 11.7405 16.5989 11.8277 16.3794 11.8277Z" fill="black"/>
</svg>
