<svg width="22" height="23" viewBox="0 0 22 23" fill="none" xmlns="http://www.w3.org/2000/svg">
<path fill-rule="evenodd" clip-rule="evenodd" d="M8.1343 1.02409C8.69638 0.837672 9.30362 0.837672 9.8657 1.02409C10.1583 1.12113 10.4089 1.27504 10.6567 1.45922C10.8931 1.63494 11.1628 1.86617 11.4839 2.14134L11.4839 2.14135L11.503 2.15778C12.0495 2.62617 12.2022 2.74591 12.3557 2.81077C12.5522 2.89381 12.7667 2.92518 12.9788 2.90188C13.1444 2.88368 13.325 2.8127 13.9828 2.52038L16.6954 1.31476C16.9274 1.21165 17.1958 1.23291 17.4087 1.37125C17.6216 1.5096 17.75 1.74624 17.75 2.00012V11.2501H17.8H17.8304C18.3646 11.2501 18.8104 11.2501 19.1747 11.2799C19.5546 11.3109 19.9112 11.378 20.2485 11.5499C20.7659 11.8135 21.1866 12.2342 21.4503 12.7516C21.6221 13.0889 21.6892 13.4456 21.7203 13.8255C21.75 14.1897 21.75 14.6355 21.75 15.1697V15.2001V20.0001C21.75 21.5189 20.5188 22.7501 19 22.7501H7.4H7.36698C6.27484 22.7501 5.40935 22.7501 4.71173 22.6931C3.99835 22.6348 3.39472 22.5132 2.84355 22.2324C1.94978 21.777 1.22312 21.0503 0.76772 20.1566C0.486882 19.6054 0.365275 19.0018 0.306988 18.2884C0.249991 17.5908 0.249995 16.7253 0.25 15.6331V15.6331V15.6001V2.00012C0.25 1.74624 0.378439 1.5096 0.591316 1.37125C0.804192 1.23291 1.07261 1.21165 1.3046 1.31476L4.01725 2.52038C4.67495 2.8127 4.85557 2.88368 5.0212 2.90188C5.23327 2.92518 5.44777 2.89381 5.64429 2.81077C5.79777 2.74591 5.9505 2.62617 6.49696 2.15778L6.5161 2.14137C6.83714 1.86618 7.1069 1.63495 7.34333 1.45922C7.59113 1.27504 7.84172 1.12113 8.1343 1.02409ZM19 21.2501C19.6904 21.2501 20.25 20.6905 20.25 20.0001V15.2001C20.25 14.6277 20.2494 14.2435 20.2252 13.9476C20.2018 13.6605 20.1599 13.5232 20.1138 13.4326C19.9939 13.1974 19.8027 13.0062 19.5675 12.8864C19.4769 12.8402 19.3396 12.7983 19.0525 12.7749C18.7566 12.7507 18.3724 12.7501 17.8 12.7501H17.75V20.0001C17.75 20.6905 18.3096 21.2501 19 21.2501ZM16.5499 21.2501H7.4C6.26752 21.2501 5.46327 21.2495 4.83388 21.1981C4.21325 21.1474 3.829 21.051 3.52453 20.8959C2.913 20.5843 2.41582 20.0871 2.10423 19.4756C1.94909 19.1711 1.85271 18.7869 1.80201 18.1662C1.75058 17.5369 1.75 16.7326 1.75 15.6001V3.15419L3.40804 3.8911L3.50051 3.93225C4.02099 4.16406 4.42922 4.34587 4.85739 4.39291C5.32394 4.44417 5.79584 4.37516 6.22818 4.19246C6.62494 4.02479 6.96403 3.73369 7.39634 3.36257L7.47315 3.29666C7.81834 3.00078 8.04856 2.804 8.23813 2.66311C8.421 2.52719 8.52574 2.47461 8.6065 2.44783C8.86199 2.36309 9.13801 2.36309 9.3935 2.44783C9.47426 2.47461 9.579 2.52719 9.76188 2.66311C9.95144 2.804 10.1817 3.00078 10.5269 3.29666L10.6037 3.36257C11.036 3.73369 11.3751 4.02479 11.7718 4.19246C12.2042 4.37516 12.6761 4.44417 13.1426 4.39291C13.5708 4.34587 13.979 4.16406 14.4995 3.93226L14.592 3.8911L16.25 3.15419V12.0001V20.0001C16.25 20.4502 16.3581 20.8751 16.5499 21.2501ZM5.25 9.00012C5.25 8.58591 5.58579 8.25012 6 8.25012H10C10.4142 8.25012 10.75 8.58591 10.75 9.00012C10.75 9.41434 10.4142 9.75012 10 9.75012H6C5.58579 9.75012 5.25 9.41434 5.25 9.00012ZM8.25 13.0001C8.25 12.5859 8.58579 12.2501 9 12.2501H12C12.4142 12.2501 12.75 12.5859 12.75 13.0001C12.75 13.4143 12.4142 13.7501 12 13.7501H9C8.58579 13.7501 8.25 13.4143 8.25 13.0001ZM9 16.2501C8.58579 16.2501 8.25 16.5859 8.25 17.0001C8.25 17.4143 8.58579 17.7501 9 17.7501H12C12.4142 17.7501 12.75 17.4143 12.75 17.0001C12.75 16.5859 12.4142 16.2501 12 16.2501H9ZM7 13.0001C7 13.5524 6.55229 14.0001 6 14.0001C5.44772 14.0001 5 13.5524 5 13.0001C5 12.4478 5.44772 12.0001 6 12.0001C6.55229 12.0001 7 12.4478 7 13.0001ZM6 18.0001C6.55229 18.0001 7 17.5524 7 17.0001C7 16.4478 6.55229 16.0001 6 16.0001C5.44772 16.0001 5 16.4478 5 17.0001C5 17.5524 5.44772 18.0001 6 18.0001Z" fill="#A5A5A5"/>
</svg>
