<svg width="34" height="34" viewBox="0 0 34 34" fill="none" xmlns="http://www.w3.org/2000/svg">
<rect width="34" height="34" rx="5" fill="#C32B43"/>
<path fill-rule="evenodd" clip-rule="evenodd" d="M15.7298 6.25021L15.621 6.25011C15.1084 6.24934 14.6585 6.24867 14.2576 6.40634C13.9071 6.5442 13.5968 6.76786 13.3551 7.05682C13.0788 7.38727 12.9371 7.81431 12.7758 8.30085L12.7415 8.4041L12.4594 9.25021H9H7C6.58579 9.25021 6.25 9.586 6.25 10.0002C6.25 10.4144 6.58579 10.7502 7 10.7502H8.29282L8.89693 21.0201L8.89881 21.052C8.95958 22.0851 9.0078 22.9051 9.09968 23.5654C9.19376 24.2415 9.34057 24.8115 9.63159 25.3289C10.1047 26.1699 10.8227 26.847 11.6901 27.2698C12.2237 27.53 12.8013 27.6431 13.4818 27.6973C14.1463 27.7502 14.9677 27.7502 16.0027 27.7502H16.0346H17.9654H17.9973C19.0323 27.7502 19.8537 27.7502 20.5182 27.6973C21.1987 27.6431 21.7763 27.53 22.3099 27.2698C23.1773 26.847 23.8953 26.1699 24.3684 25.3289C24.6594 24.8115 24.8062 24.2415 24.9003 23.5654C24.9922 22.9051 25.0404 22.0853 25.1012 21.0522V21.0522L25.1012 21.0521L25.1031 21.0201L25.7072 10.7502H27C27.4142 10.7502 27.75 10.4144 27.75 10.0002C27.75 9.586 27.4142 9.25021 27 9.25021H25H21.5406L21.2585 8.4041L21.2242 8.30084C21.0629 7.8143 20.9212 7.38727 20.6449 7.05682C20.4032 6.76786 20.0929 6.5442 19.7424 6.40634C19.3415 6.24867 18.8916 6.24934 18.379 6.25011L18.2702 6.25021H15.7298ZM20.9825 10.7502C20.9941 10.7505 21.0057 10.7505 21.0173 10.7502H24.2046L23.6057 20.932C23.5426 22.0042 23.4973 22.7645 23.4146 23.3587C23.3332 23.9439 23.2226 24.3063 23.061 24.5935C22.7373 25.169 22.2461 25.6322 21.6526 25.9215C21.3564 26.0659 20.9881 26.1551 20.3991 26.202C19.8011 26.2497 19.0394 26.2502 17.9654 26.2502H16.0346C14.9606 26.2502 14.1989 26.2497 13.6009 26.202C13.0119 26.1551 12.6436 26.0659 12.3474 25.9215C11.7539 25.6322 11.2627 25.169 10.939 24.5935C10.7774 24.3063 10.6668 23.9439 10.5854 23.3587C10.5027 22.7645 10.4574 22.0042 10.3943 20.932L9.79541 10.7502H12.9827C12.9943 10.7505 13.0059 10.7505 13.0175 10.7502H20.9825ZM19.9594 9.25021L19.8355 8.87844C19.6186 8.22761 19.5633 8.10174 19.4942 8.01908C19.4137 7.92276 19.3102 7.84821 19.1934 7.80225C19.0931 7.76282 18.9562 7.75021 18.2702 7.75021H15.7298C15.0438 7.75021 14.9069 7.76282 14.8066 7.80225C14.6898 7.84821 14.5863 7.92276 14.5058 8.01908C14.4367 8.10174 14.3814 8.22761 14.1645 8.87844L14.0406 9.25021H19.9594ZM15.75 15.0002C15.75 14.586 15.4142 14.2502 15 14.2502C14.5858 14.2502 14.25 14.586 14.25 15.0002V22.0002C14.25 22.4144 14.5858 22.7502 15 22.7502C15.4142 22.7502 15.75 22.4144 15.75 22.0002V15.0002ZM19 14.2502C19.4142 14.2502 19.75 14.586 19.75 15.0002V19.0002C19.75 19.4144 19.4142 19.7502 19 19.7502C18.5858 19.7502 18.25 19.4144 18.25 19.0002V15.0002C18.25 14.586 18.5858 14.2502 19 14.2502Z" fill="white"/>
</svg>
