<svg width="24" height="24" viewBox="0 0 24 24" fill="none" xmlns="http://www.w3.org/2000/svg">
<path fill-rule="evenodd" clip-rule="evenodd" d="M4.5303 0.46967C4.82319 0.762563 4.82319 1.23744 4.5303 1.53033L1.5303 4.53033C1.23741 4.82322 0.762533 4.82322 0.469639 4.53033C0.176746 4.23744 0.176746 3.76256 0.469639 3.46967L3.46964 0.46967C3.76253 0.176777 4.23741 0.176777 4.5303 0.46967ZM2.74997 12C2.74997 6.89137 6.89134 2.75 12 2.75C17.1086 2.75 21.25 6.89137 21.25 12C21.25 17.1086 17.1086 21.25 12 21.25C6.89134 21.25 2.74997 17.1086 2.74997 12ZM12 1.25C6.06291 1.25 1.24997 6.06294 1.24997 12C1.24997 17.9371 6.06291 22.75 12 22.75C17.937 22.75 22.75 17.9371 22.75 12C22.75 6.06294 17.937 1.25 12 1.25ZM12.75 8C12.75 7.58579 12.4142 7.25 12 7.25C11.5858 7.25 11.25 7.58579 11.25 8V12C11.25 12.2508 11.3753 12.4849 11.5839 12.624L14.5839 14.624C14.9286 14.8538 15.3942 14.7607 15.624 14.416C15.8538 14.0714 15.7606 13.6057 15.416 13.376L12.75 11.5986V8ZM19.4696 1.53033C19.1767 1.23744 19.1767 0.762563 19.4696 0.46967C19.7625 0.176777 20.2374 0.176777 20.5303 0.46967L23.5303 3.46967C23.8232 3.76256 23.8232 4.23744 23.5303 4.53033C23.2374 4.82322 22.7625 4.82322 22.4696 4.53033L19.4696 1.53033Z" fill="#A5A5A5"/>
</svg>
