<svg width="22" height="22" viewBox="0 0 22 22" fill="none" xmlns="http://www.w3.org/2000/svg">
<path d="M18.875 12.75C18.6429 12.75 18.4204 12.8422 18.2563 13.0063C18.0922 13.1704 18 13.3929 18 13.625V17.125C18 17.3571 17.9078 17.5796 17.7437 17.7437C17.5796 17.9078 17.3571 18 17.125 18H4.875C4.64294 18 4.42038 17.9078 4.25628 17.7437C4.09219 17.5796 4 17.3571 4 17.125V13.625C4 13.3929 3.90781 13.1704 3.74372 13.0063C3.57962 12.8422 3.35706 12.75 3.125 12.75C2.89294 12.75 2.67038 12.8422 2.50628 13.0063C2.34219 13.1704 2.25 13.3929 2.25 13.625V17.125C2.25 17.8212 2.52656 18.4889 3.01884 18.9812C3.51113 19.4734 4.17881 19.75 4.875 19.75H17.125C17.8212 19.75 18.4889 19.4734 18.9812 18.9812C19.4734 18.4889 19.75 17.8212 19.75 17.125V13.625C19.75 13.3929 19.6578 13.1704 19.4937 13.0063C19.3296 12.8422 19.1071 12.75 18.875 12.75Z" fill="#455A64"/>
<path d="M11.3326 2.32024C11.44 2.36189 11.5381 2.42433 11.6213 2.50399L15.1213 6.00399C15.2029 6.08558 15.2676 6.18243 15.3118 6.28903C15.3559 6.39562 15.3787 6.50987 15.3787 6.62524C15.3787 6.74062 15.3559 6.85487 15.3118 6.96146C15.2676 7.06806 15.2029 7.16491 15.1213 7.24649C15.0397 7.32808 14.9429 7.39279 14.8363 7.43695C14.7297 7.4811 14.6155 7.50382 14.5001 7.50382C14.3847 7.50382 14.2705 7.4811 14.1639 7.43695C14.0573 7.39279 13.9604 7.32808 13.8788 7.24649L11.8751 5.23399L11.8751 13.6252C11.8751 13.8573 11.7829 14.0799 11.6188 14.244C11.4547 14.4081 11.2321 14.5002 11.0001 14.5002C10.768 14.5002 10.5455 14.4081 10.3814 14.244C10.2173 14.0799 10.1251 13.8573 10.1251 13.6252L10.1251 5.23399L8.12133 7.24649C7.95657 7.41126 7.7331 7.50382 7.50008 7.50382C7.26707 7.50382 7.0436 7.41126 6.87883 7.24649C6.71407 7.08173 6.6215 6.85826 6.6215 6.62524C6.6215 6.39223 6.71407 6.16876 6.87883 6.00399L10.3788 2.50399C10.462 2.42433 10.5602 2.36189 10.6676 2.32024C10.7723 2.27395 10.8856 2.25004 11.0001 2.25004C11.1146 2.25004 11.2278 2.27395 11.3326 2.32024Z" fill="#455A64"/>
</svg>
