<svg width="24" height="25" viewBox="0 0 24 25" fill="none" xmlns="http://www.w3.org/2000/svg">
<path d="M12.0002 17.0524C13.5999 17.0524 14.8967 15.7556 14.8967 14.1558C14.8967 12.5561 13.5999 11.2593 12.0002 11.2593C10.4004 11.2593 9.10358 12.5561 9.10358 14.1558C9.10358 15.7556 10.4004 17.0524 12.0002 17.0524Z" fill="#3734CA"/>
<path d="M20.692 7.12143H17.9783C17.8045 7.12147 17.6352 7.06682 17.4942 6.96522C17.3532 6.86362 17.2478 6.72022 17.1929 6.55536L16.9314 5.76998C16.8214 5.44042 16.6105 5.15381 16.3286 4.95076C16.0467 4.74772 15.708 4.63853 15.3606 4.63867H8.64302C8.29563 4.63876 7.95707 4.74815 7.67531 4.95134C7.39354 5.15453 7.18285 5.44122 7.07307 5.77081L6.81155 6.55536C6.75664 6.72022 6.65123 6.86362 6.51027 6.96522C6.3693 7.06682 6.19993 7.12147 6.02616 7.12143H3.31248C2.87349 7.12143 2.45249 7.29581 2.14208 7.60622C1.83167 7.91663 1.65729 8.33762 1.65729 8.7766V18.7076C1.65729 19.1466 1.83167 19.5676 2.14208 19.878C2.45249 20.1884 2.87349 20.3628 3.31248 20.3628H20.692C21.131 20.3628 21.552 20.1884 21.8624 19.878C22.1728 19.5676 22.3472 19.1466 22.3472 18.7076V8.7766C22.3472 8.33762 22.1728 7.91663 21.8624 7.60622C21.552 7.29581 21.131 7.12143 20.692 7.12143ZM12.0022 18.7076C9.49296 18.7076 7.45045 16.6652 7.45045 14.1559C7.45045 11.6467 9.49296 9.60419 12.0022 9.60419C14.5115 9.60419 16.554 11.6467 16.554 14.1559C16.554 16.6652 14.5115 18.7076 12.0022 18.7076ZM16.9678 10.4318C16.7483 10.4318 16.5378 10.3446 16.3826 10.1894C16.2274 10.0342 16.1402 9.82368 16.1402 9.60419C16.1402 9.3847 16.2274 9.1742 16.3826 9.019C16.5378 8.8638 16.7483 8.7766 16.9678 8.7766C17.1873 8.7766 17.3978 8.8638 17.553 9.019C17.7082 9.1742 17.7954 9.3847 17.7954 9.60419C17.7954 9.82368 17.7082 10.0342 17.553 10.1894C17.3978 10.3446 17.1873 10.4318 16.9678 10.4318Z" fill="#3734CA"/>
<path d="M4.55342 6.29389H2.89823C2.78849 6.29389 2.68324 6.2503 2.60563 6.1727C2.52803 6.0951 2.48444 5.98985 2.48444 5.8801C2.48444 5.77036 2.52803 5.66511 2.60563 5.58751C2.68324 5.5099 2.78849 5.46631 2.89823 5.46631H4.55342C4.66317 5.46631 4.76842 5.5099 4.84602 5.58751C4.92363 5.66511 4.96722 5.77036 4.96722 5.8801C4.96722 5.98985 4.92363 6.0951 4.84602 6.1727C4.76842 6.2503 4.66317 6.29389 4.55342 6.29389Z" fill="#3734CA"/>
</svg>
