<svg width="12" height="23" viewBox="0 0 12 23" fill="none" xmlns="http://www.w3.org/2000/svg">
<path d="M2.32515 0.000114441C2.55996 -0.000720978 2.79196 0.053442 3.00411 0.158623C3.21626 0.263802 3.40316 0.417328 3.55109 0.607914L11.1425 10.4641C11.3736 10.7581 11.5 11.1268 11.5 11.5072C11.5 11.8877 11.3736 12.2564 11.1425 12.5504L3.2839 22.4066C3.01712 22.742 2.63376 22.953 2.21816 22.993C1.80256 23.0331 1.38875 22.899 1.06778 22.6201C0.746814 22.3413 0.544969 21.9406 0.506651 21.5062C0.468332 21.0719 0.596681 20.6394 0.863461 20.3039L7.88901 11.499L1.09922 2.69414C0.907024 2.45302 0.784939 2.1594 0.747407 1.84803C0.709875 1.53666 0.758468 1.22056 0.887436 0.937153C1.0164 0.65374 1.22035 0.414873 1.47514 0.248812C1.72993 0.0827503 2.0249 -0.00355339 2.32515 0.000114441Z" fill="white"/>
</svg>
