<?xml version="1.0" encoding="UTF-8"?>
<svg version="1.1" xmlns="http://www.w3.org/2000/svg" width="64" height="60">
<path d="M0 0 C16.17 0 32.34 0 49 0 C49.02094549 7.66837567 49.04098358 15.33664831 49.05175018 23.00502777 C49.0570399 26.57571125 49.06411339 30.14637115 49.07543945 33.71704102 C49.08834176 37.81006097 49.09322906 41.9030558 49.09765625 45.99609375 C49.10281754 47.28148544 49.10797882 48.56687714 49.11329651 49.89122009 C49.11337204 51.07236893 49.11344757 52.25351776 49.11352539 53.47045898 C49.115746 54.51636703 49.11796661 55.56227509 49.12025452 56.63987732 C49 59 49 59 48 60 C46.53743823 60.1034125 45.06995736 60.13850321 43.60375977 60.14526367 C42.66931534 60.15164352 41.73487091 60.15802338 40.77210999 60.16459656 C39.75547775 60.16570938 38.73884552 60.1668222 37.69140625 60.16796875 C36.65435043 60.17129715 35.61729462 60.17462555 34.54881287 60.17805481 C32.35049891 60.1831286 30.15217723 60.185463 27.95385742 60.18530273 C24.58043799 60.18748838 21.20734583 60.20563714 17.83398438 60.22460938 C15.70312612 60.2275433 13.57226631 60.2295281 11.44140625 60.23046875 C10.42679825 60.23765427 9.41219025 60.24483978 8.36683655 60.25224304 C7.42923996 60.24916641 6.49164337 60.24608978 5.52563477 60.24291992 C4.69814224 60.24434494 3.87064972 60.24576996 3.01808167 60.24723816 C1 60 1 60 -1 58 C-1.1953125 55.3984375 -1.1953125 55.3984375 -1.125 52.375 C-1.10695313 51.37210938 -1.08890625 50.36921875 -1.0703125 49.3359375 C-1.04710937 48.56507812 -1.02390625 47.79421875 -1 47 C-1.84304688 47.01160156 -2.68609375 47.02320313 -3.5546875 47.03515625 C-4.65039062 47.04417969 -5.74609375 47.05320313 -6.875 47.0625 C-7.96554688 47.07410156 -9.05609375 47.08570313 -10.1796875 47.09765625 C-13 47 -13 47 -15 46 C-15.02465392 41.46102295 -15.04283789 36.92208457 -15.05493164 32.38305664 C-15.0599714 30.83780234 -15.0668032 29.29255284 -15.07543945 27.74731445 C-15.08752076 25.53074971 -15.09323173 23.31424782 -15.09765625 21.09765625 C-15.10281754 20.4028566 -15.10797882 19.70805695 -15.11329651 18.99220276 C-15.11349277 17.3277067 -15.06189129 15.66334501 -15 14 C-14 13 -14 13 -11.05859375 12.90234375 C-9.26615234 12.91974609 -9.26615234 12.91974609 -7.4375 12.9375 C-5.64119141 12.95103516 -5.64119141 12.95103516 -3.80859375 12.96484375 C-2.88175781 12.97644531 -1.95492188 12.98804688 -1 13 C-1.01160156 12.22914062 -1.02320313 11.45828125 -1.03515625 10.6640625 C-1.04869141 9.15972656 -1.04869141 9.15972656 -1.0625 7.625 C-1.07410156 6.62726562 -1.08570313 5.62953125 -1.09765625 4.6015625 C-1 2 -1 2 0 0 Z " fill="#1D5CBB" transform="translate(15,0)"/>
<path d="M0 0 C10.23 0 20.46 0 31 0 C31.02290513 6.24801086 31.04283339 12.49587715 31.05493164 18.74389648 C31.05997298 20.87118014 31.06680591 22.99846031 31.07543945 25.12573242 C31.08751379 28.17627826 31.09323014 31.22677845 31.09765625 34.27734375 C31.10281754 35.23462875 31.10797882 36.19191376 31.11329651 37.1782074 C31.11337204 38.05904495 31.11344757 38.93988251 31.11352539 39.84741211 C31.115746 40.62684677 31.11796661 41.40628143 31.12025452 42.20933533 C31 44 31 44 30 45 C28.53743823 45.1034125 27.06995736 45.13850321 25.60375977 45.14526367 C24.66931534 45.15164352 23.73487091 45.15802338 22.77210999 45.16459656 C21.75547775 45.16570938 20.73884552 45.1668222 19.69140625 45.16796875 C18.65435043 45.17129715 17.61729462 45.17462555 16.54881287 45.17805481 C14.35049891 45.1831286 12.15217723 45.185463 9.95385742 45.18530273 C6.58043799 45.18748838 3.20734583 45.20563714 -0.16601562 45.22460938 C-2.29687388 45.2275433 -4.42773369 45.2295281 -6.55859375 45.23046875 C-7.57320175 45.23765427 -8.58780975 45.24483978 -9.63316345 45.25224304 C-10.57076004 45.24916641 -11.50835663 45.24608978 -12.47436523 45.24291992 C-13.30185776 45.24434494 -14.12935028 45.24576996 -14.98191833 45.24723816 C-17 45 -17 45 -19 43 C-19.1953125 40.1796875 -19.1953125 40.1796875 -19.125 36.875 C-19.10695313 35.77929688 -19.08890625 34.68359375 -19.0703125 33.5546875 C-19.04710937 32.71164063 -19.02390625 31.86859375 -19 31 C-17.17662109 30.90912109 -17.17662109 30.90912109 -15.31640625 30.81640625 C-13.73175772 30.73201668 -12.14712298 30.6473679 -10.5625 30.5625 C-9.35883789 30.50352539 -9.35883789 30.50352539 -8.13085938 30.44335938 C-4.24760439 30.5945704 -4.24760439 30.5945704 -1 29 C-0.84141158 26.85613343 -0.74870702 24.70733162 -0.68359375 22.55859375 C-0.64548584 21.38353271 -0.60737793 20.20847168 -0.56811523 18.99780273 C-0.52501221 17.49290283 -0.48190918 15.98800293 -0.4375 14.4375 C-0.293125 9.673125 -0.14875 4.90875 0 0 Z " fill="#2A7AD0" transform="translate(33,15)"/>
<path d="M0 0 C0.33 0 0.66 0 1 0 C1.66 9.57 2.32 19.14 3 29 C16.86 29.495 16.86 29.495 31 30 C31 34.62 31 39.24 31 44 C29.41641396 45.58358604 27.8000964 45.13513663 25.60375977 45.14526367 C24.66931534 45.15164352 23.73487091 45.15802338 22.77210999 45.16459656 C21.75547775 45.16570938 20.73884552 45.1668222 19.69140625 45.16796875 C18.65435043 45.17129715 17.61729462 45.17462555 16.54881287 45.17805481 C14.35049891 45.1831286 12.15217723 45.185463 9.95385742 45.18530273 C6.58043799 45.18748838 3.20734583 45.20563714 -0.16601562 45.22460938 C-2.29687388 45.2275433 -4.42773369 45.2295281 -6.55859375 45.23046875 C-7.57320175 45.23765427 -8.58780975 45.24483978 -9.63316345 45.25224304 C-10.57076004 45.24916641 -11.50835663 45.24608978 -12.47436523 45.24291992 C-13.30185776 45.24434494 -14.12935028 45.24576996 -14.98191833 45.24723816 C-17 45 -17 45 -19 43 C-19.1953125 40.1796875 -19.1953125 40.1796875 -19.125 36.875 C-19.10695313 35.77929688 -19.08890625 34.68359375 -19.0703125 33.5546875 C-19.04710937 32.71164063 -19.02390625 31.86859375 -19 31 C-17.17662109 30.90912109 -17.17662109 30.90912109 -15.31640625 30.81640625 C-13.73175772 30.73201668 -12.14712298 30.6473679 -10.5625 30.5625 C-9.35883789 30.50352539 -9.35883789 30.50352539 -8.13085938 30.44335938 C-4.24760439 30.5945704 -4.24760439 30.5945704 -1 29 C-0.84141158 26.85613343 -0.74870702 24.70733162 -0.68359375 22.55859375 C-0.64169922 21.25341797 -0.59980469 19.94824219 -0.55664062 18.60351562 C-0.51682392 17.2148467 -0.47711175 15.82617478 -0.4375 14.4375 C-0.39432011 13.04490817 -0.350706 11.65232972 -0.30664062 10.25976562 C-0.20014124 6.83995199 -0.09813077 3.42006237 0 0 Z " fill="#103F8F" transform="translate(33,15)"/>
<path d="M0 0 C16.17 0 32.34 0 49 0 C49 4.95 49 9.9 49 15 C44.76409271 15.02293813 40.52840035 15.04285661 36.29248047 15.05493164 C34.8510668 15.05996474 33.40965824 15.06679173 31.96826172 15.07543945 C29.89809915 15.08754983 27.82800399 15.09323847 25.7578125 15.09765625 C24.5114502 15.10289307 23.26508789 15.10812988 21.98095703 15.11352539 C19 15 19 15 17 14 C15.6265365 13.84995027 14.2471474 13.75161994 12.8671875 13.68359375 C12.06152344 13.64169922 11.25585938 13.59980469 10.42578125 13.55664062 C9.58402344 13.51732422 8.74226563 13.47800781 7.875 13.4375 C7.02550781 13.39431641 6.17601562 13.35113281 5.30078125 13.30664062 C3.20071777 13.20045764 1.10038052 13.09971503 -1 13 C-1.02696365 11.20841511 -1.04637917 9.41671527 -1.0625 7.625 C-1.07410156 6.62726562 -1.08570313 5.62953125 -1.09765625 4.6015625 C-1 2 -1 2 0 0 Z " fill="#40A4EC" transform="translate(15,0)"/>
<path d="M0 0 C9.57 0 19.14 0 29 0 C29 4.95 29 9.9 29 15 C25.0306345 15.02291487 21.0614368 15.04284015 17.09204102 15.05493164 C15.74079614 15.05997057 14.38955674 15.06680177 13.03833008 15.07543945 C11.09979566 15.08752419 9.161222 15.09269828 7.22265625 15.09765625 C5.47094116 15.10551147 5.47094116 15.10551147 3.68383789 15.11352539 C1 15 1 15 0 14 C0 9.38 0 4.76 0 0 Z " fill="#1759BB" transform="translate(35,30)"/>
<path d="M0 0 C1.32 0 2.64 0 4 0 C4.66 3.3 5.32 6.6 6 10 C6.99 6.7 7.98 3.4 9 0 C10.65 0 12.3 0 14 0 C14.99 3.3 15.98 6.6 17 10 C17.66 6.7 18.32 3.4 19 0 C19.99 0 20.98 0 22 0 C21.51679152 6.2054142 20.66681876 11.99945246 19 18 C17.35 17.67 15.7 17.34 14 17 C13.34 14.03 12.68 11.06 12 8 C11.67 8 11.34 8 11 8 C10.34 10.97 9.68 13.94 9 17 C7.35 17.33 5.7 17.66 4 18 C3.32873871 15.5636811 2.66283646 13.12611117 2 10.6875 C1.71382813 9.65206055 1.71382813 9.65206055 1.421875 8.59570312 C0.62283816 5.64212051 0 3.07440781 0 0 Z " fill="#E5ECF7" transform="translate(5,21)"/>
<path d="M0 0 C0.042721 1.66611905 0.04063832 3.33382885 0 5 C-1 6 -1 6 -2.85766602 6.11352539 C-3.64842529 6.10828857 -4.43918457 6.10305176 -5.25390625 6.09765625 C-6.10791016 6.09443359 -6.96191406 6.09121094 -7.84179688 6.08789062 C-8.73962891 6.07951172 -9.63746094 6.07113281 -10.5625 6.0625 C-11.46419922 6.05798828 -12.36589844 6.05347656 -13.29492188 6.04882812 C-15.53001314 6.03700225 -17.76497437 6.0205222 -20 6 C-20 4.35 -20 2.7 -20 1 C-16.85418896 0.83291073 -13.7083476 0.66639937 -10.5625 0.5 C-9.66466797 0.45230469 -8.76683594 0.40460937 -7.84179688 0.35546875 C-6.98779297 0.31035156 -6.13378906 0.26523437 -5.25390625 0.21875 C-4.46314697 0.17685547 -3.6723877 0.13496094 -2.85766602 0.09179688 C-1.90578081 0.04475931 -0.95304668 0 0 0 Z " fill="#0B2C66" transform="translate(34,45)"/>
<path d="M0 0 C0.99 0 1.98 0 3 0 C2.67 3.3 2.34 6.6 2 10 C1.01 9.34 0.02 8.68 -1 8 C-0.67 5.36 -0.34 2.72 0 0 Z " fill="#E0E9F6" transform="translate(24,21)"/>
</svg>
