<svg width="24" height="25" viewBox="0 0 24 25" fill="none" xmlns="http://www.w3.org/2000/svg">
<g clip-path="url(#clip0_220_2546)">
<path d="M11.1276 20.8083L11.0871 19.8696C11.1165 19.9911 11.1276 20.1162 11.1276 20.2414V20.8083Z" fill="#3734CA"/>
<path d="M18.2249 11.4201C17.9718 11.4201 17.7375 11.4921 17.5314 11.6085C17.4869 10.8646 16.8734 10.2712 16.1185 10.2712C15.8319 10.2712 15.5659 10.358 15.3424 10.5045C15.1429 9.96033 14.6244 9.56878 14.012 9.56878C13.7624 9.56878 13.531 9.63914 13.3268 9.75267V6.66998C13.3268 5.88633 12.6893 5.24864 11.9056 5.24864C11.122 5.24864 10.4843 5.88633 10.4843 6.66998V13.0745L9.61148 12.0053C8.91933 11.1577 7.707 10.9696 6.79087 11.5696C6.39862 11.8263 6.31134 12.3662 6.60361 12.7332L7.82348 14.2674C8.19033 14.7283 8.43961 15.3096 8.54475 15.9491C8.75686 17.2371 9.27591 18.2184 10.1317 18.9493C10.5316 19.2904 10.7609 19.7617 10.7609 20.2419V20.5043C10.2351 20.6677 9.84966 21.1529 9.84966 21.732V23.9111C9.84966 24.1146 10.0145 24.2792 10.2178 24.2792H18.8287C19.032 24.2792 19.1969 24.1146 19.1969 23.9111V21.732C19.1969 21.1526 18.8109 20.6671 18.2845 20.504V19.8372C18.2845 19.5104 18.3852 19.1729 18.5757 18.8616C19.4189 17.4826 19.5553 15.7694 19.6462 13.6571V12.8414C19.6462 12.0578 19.0085 11.4201 18.2249 11.4201ZM18.4607 21.732V23.543H10.5858V21.732C10.5858 21.4285 10.831 21.1816 11.1336 21.1777H17.9127C18.2155 21.1816 18.4607 21.4285 18.4607 21.732ZM17.9477 18.4777C17.6864 18.9044 17.5483 19.3746 17.5483 19.8372V20.4408H11.4971V20.242C11.4971 19.546 11.1735 18.8709 10.6097 18.3892C9.8917 17.776 9.45384 16.9387 9.27122 15.8298C9.14578 15.0666 8.84433 14.3678 8.39948 13.8092L7.17961 12.275C7.1572 12.247 7.16391 12.2052 7.19419 12.1854C7.79381 11.7932 8.58787 11.9158 9.04116 12.4712L10.5673 14.3405C10.6364 14.4259 10.767 14.4851 10.9026 14.4655C11.0983 14.4388 11.2205 14.247 11.2205 14.1076V6.66998C11.2205 6.29217 11.5279 5.98481 11.9057 5.98481C12.2833 5.98481 12.5907 6.29217 12.5907 6.66998C12.5907 6.92981 12.5907 14.5995 12.5907 14.1075C12.5907 14.311 12.7555 14.4757 12.9588 14.4757C13.1621 14.4757 13.3269 14.311 13.3269 14.1075C13.3269 14.0162 13.3269 10.8067 13.3269 10.9902C13.3269 10.6124 13.6342 10.305 14.0121 10.305C14.3899 10.305 14.6972 10.6124 14.6972 10.9902C14.6972 11.0867 14.6972 14.1448 14.6972 14.1075C14.6972 14.311 14.862 14.4757 15.0653 14.4757C15.2686 14.4757 15.4335 14.311 15.4335 14.1075C15.4335 14.0219 15.4335 11.6548 15.4335 11.6926C15.4335 11.3148 15.7408 11.0074 16.1186 11.0074C16.4964 11.0074 16.8038 11.3148 16.8038 11.6926C16.8038 11.7304 16.8038 14.1703 16.8038 14.1075C16.8038 14.311 16.9686 14.4757 17.1719 14.4757C17.3752 14.4757 17.54 14.311 17.54 14.1075C17.54 13.9964 17.54 12.7963 17.54 12.8415C17.54 12.4636 17.8474 12.1563 18.225 12.1563C18.6028 12.1563 18.9102 12.4636 18.9102 12.8415L18.9105 13.6413C18.8214 15.6964 18.7005 17.2465 17.9477 18.4777ZM8.31356 4.76981C8.31356 2.53711 6.49945 0.720703 4.26984 0.720703C2.03714 0.720703 0.220734 2.53711 0.220734 4.76981C0.220734 7.00251 2.03714 8.81892 4.26984 8.81892C6.4995 8.81892 8.31356 7.00251 8.31356 4.76981ZM4.26984 8.08275C2.44317 8.08275 0.956905 6.59667 0.956905 4.76981C0.956905 2.94295 2.44317 1.45687 4.26984 1.45687C6.09366 1.45687 7.57739 2.94295 7.57739 4.76981C7.57739 6.59667 6.09366 8.08275 4.26984 8.08275Z" fill="#3734CA"/>
<path d="M5.43616 3.6008C5.29234 3.45698 5.05942 3.45698 4.91566 3.6008L4.26719 4.24931L3.61867 3.6008C3.47486 3.45698 3.24194 3.45698 3.09817 3.6008C2.95436 3.74461 2.95436 3.97753 3.09817 4.1213L3.74664 4.76981L3.09812 5.41833C2.95431 5.56214 2.95431 5.79506 3.09812 5.93883C3.24189 6.08259 3.47486 6.08264 3.61862 5.93883L4.26714 5.29031L4.91566 5.93883C5.05942 6.08259 5.29239 6.08264 5.43616 5.93883C5.57997 5.79502 5.57997 5.56209 5.43616 5.41833L4.78769 4.76981L5.4362 4.1213C5.57997 3.97753 5.57997 3.74461 5.43616 3.6008ZM19.7356 0.720703C17.5029 0.720703 15.6865 2.53711 15.6865 4.76981C15.6865 7.00252 17.5029 8.81892 19.7356 8.81892C21.9652 8.81892 23.7793 7.00252 23.7793 4.76981C23.7793 2.53711 21.9652 0.720703 19.7356 0.720703ZM19.7356 8.08275C17.9089 8.08275 16.4226 6.59667 16.4226 4.76981C16.4226 2.94295 17.9089 1.45688 19.7356 1.45688C21.5594 1.45688 23.0431 2.94295 23.0431 4.76981C23.0431 6.59667 21.5594 8.08275 19.7356 8.08275Z" fill="#3734CA"/>
<path d="M20.8356 3.6005L19.2784 5.15745L18.6301 4.50927C18.4863 4.36545 18.2534 4.36545 18.1096 4.50927C17.9658 4.65308 17.9658 4.886 18.1096 5.02977L19.0168 5.93689C19.0173 5.93741 19.0174 5.93806 19.0179 5.93853C19.1597 6.08042 19.3933 6.08567 19.5396 5.93923C19.5414 5.93755 19.5418 5.93511 19.5435 5.93333L21.3561 4.121C21.4999 3.97719 21.4999 3.74427 21.3561 3.6005C21.2122 3.45673 20.9793 3.45673 20.8356 3.6005Z" fill="#3734CA"/>
</g>
<defs>
<clipPath id="clip0_220_2546">
<rect width="24" height="24" fill="white" transform="translate(0 0.5)"/>
</clipPath>
</defs>
</svg>
