<svg width="24" height="24" viewBox="0 0 24 24" fill="none" xmlns="http://www.w3.org/2000/svg">
<path fill-rule="evenodd" clip-rule="evenodd" d="M14.25 20.0002C14.25 21.519 15.4812 22.7502 17 22.7502C20.1757 22.7502 22.75 20.1758 22.75 17.0002V11.8452L22.75 11.7301C22.7502 10.4281 22.7503 9.62683 22.5435 8.87617C22.3606 8.21209 22.0598 7.58628 21.6555 7.02858C21.1985 6.39817 20.5727 5.89767 19.556 5.0845L19.4661 5.01259L17.4661 3.41259L17.4432 3.39427C16.5708 2.69634 15.8841 2.14698 15.2918 1.74046C14.6866 1.32504 14.1388 1.02902 13.5332 0.861479C12.5299 0.583934 11.4701 0.583934 10.4669 0.861479C9.86129 1.02902 9.31342 1.32504 8.70819 1.74046C8.11594 2.14698 7.42925 2.69634 6.55686 3.39426L6.53394 3.41259L4.53394 5.01259L4.44404 5.0845L4.44403 5.08451C3.4273 5.89767 2.8015 6.39817 2.34453 7.02858C1.94025 7.58628 1.63947 8.21209 1.45653 8.87617C1.24973 9.62683 1.24984 10.4282 1.25001 11.7301L1.25002 11.8452V17.0002C1.25002 20.1758 3.82438 22.7502 7.00002 22.7502C8.5188 22.7502 9.75002 21.519 9.75002 20.0002V16.0001C9.75002 14.7575 10.7574 13.7501 12 13.7501C13.2427 13.7501 14.25 14.7575 14.25 16.0001V20.0002Z" fill="#DCDCDC"/>
</svg>
