<svg width="24" height="24" viewBox="0 0 24 24" fill="none" xmlns="http://www.w3.org/2000/svg">
<path d="M2.2593 8.00875C2.3776 8.33735 2.5415 8.62535 2.7244 8.89265L2.5596 10.0919C2.3872 11.3185 2.2998 12.5899 2.2998 13.8702C2.2998 15.3526 2.4185 16.8341 2.6523 18.2677C2.9326 20.0284 4.2876 21.3839 6.0249 21.6398C7.6758 21.882 9.3374 22.0021 10.9995 22.0021C12.6621 22.0021 14.3247 21.881 15.9761 21.6398C17.7124 21.3839 19.0674 20.0285 19.3477 18.2677C19.7694 15.6459 19.8039 12.9822 19.4652 10.3383C20.5292 9.91615 21.3657 9.08305 21.7378 8.01575C21.9116 7.54485 22 7.03515 22 6.49995C22 5.96475 21.9116 5.45505 21.7441 5.00095C21.2529 3.59175 19.936 2.56145 18.3891 2.37695C14.2241 1.87695 9.7753 1.87695 5.6113 2.37695C4.064 2.56145 2.7471 3.59175 2.2622 4.98435C2.0884 5.45505 2 5.96475 2 6.49995C2 7.03515 2.0884 7.54485 2.2593 8.00875ZM17.3726 17.9512L17.3721 17.9532C17.2325 18.8331 16.5381 19.5352 15.6851 19.6612C12.5777 20.1163 9.4244 20.1163 6.316 19.6612C5.462 19.5352 4.7677 18.8331 4.627 17.9493C4.4102 16.6182 4.2999 15.2452 4.2999 13.8702C4.2999 12.6827 4.381 11.505 4.5406 10.3673L4.5426 10.3517C4.6161 10.3813 4.6938 10.4003 4.7691 10.4256C4.8312 10.4464 4.892 10.4684 4.9552 10.4863C5.1699 10.5473 5.3883 10.5971 5.6129 10.6231C6.6354 10.7436 7.6614 10.8321 8.6891 10.8945C9.0516 10.9165 9.4147 10.9182 9.7776 10.933C10.445 10.9601 11.112 10.989 11.7799 10.9917C11.8531 10.9919 11.9265 10.998 12 10.998C12.3493 10.998 12.6981 10.974 13.0474 10.9673C13.6573 10.9556 14.2668 10.9458 14.876 10.9137C15.3169 10.8905 15.7559 10.8502 16.1961 10.8163C16.6325 10.7827 17.07 10.7638 17.5054 10.7197C17.8027 13.127 17.7578 15.5586 17.3726 17.9512ZM12 3.99995C14.0771 3.99995 16.147 4.12205 18.1514 4.36325C18.9453 4.45795 19.6143 4.96675 19.8618 5.67575C19.9546 5.92865 20 6.19815 20 6.49995C20 6.80175 19.9546 7.07125 19.856 7.33975C19.6216 8.00965 18.9795 8.51265 18.2198 8.62005C18.1876 8.62495 18.1514 8.63175 18.1168 8.64055C16.0815 8.87975 14.0318 8.99835 11.9822 8.99745C10.3785 8.99675 8.777 8.90085 7.1803 8.75425C7.7315 7.90545 7.8832 7.10705 7.8862 6.49605C7.89 5.70975 7.6516 4.95135 7.2011 4.24255C8.7811 4.09605 10.3835 3.99995 12 3.99995ZM4.1445 5.65915C4.29 5.24155 4.6021 4.90555 4.9924 4.67205C5.4653 5.14035 5.89 5.76175 5.8862 6.48625C5.8828 7.21835 5.4422 7.84435 4.955 8.31505C4.7899 8.21215 4.634 8.09435 4.5034 7.95015C4.3545 7.78905 4.229 7.57515 4.1382 7.32415C4.0454 7.07125 4 6.80175 4 6.49995C4 6.19815 4.0454 5.92865 4.1445 5.65915Z" fill="#DCDCDC"/>
<path d="M8 15H10C10.5522 15 11 14.5527 11 14C11 13.4473 10.5522 13 10 13H8C7.4478 13 7 13.4473 7 14C7 14.5527 7.4478 15 8 15ZM14 16H8C7.4478 16 7 16.4473 7 17C7 17.5527 7.4478 18 8 18H14C14.5522 18 15 17.5527 15 17C15 16.4473 14.5522 16 14 16Z" fill="#DCDCDC"/>
</svg>
