<svg width="24" height="24" viewBox="0 0 24 24" fill="none" xmlns="http://www.w3.org/2000/svg">
<path fill-rule="evenodd" clip-rule="evenodd" d="M17.2507 6.375C17.2507 5.87772 17.0532 5.40081 16.7016 5.04917C16.3499 4.69754 15.873 4.5 15.3757 4.5H8.62575C8.37946 4.4999 8.13556 4.54833 7.90799 4.64251C7.68042 4.73669 7.47363 4.87479 7.29944 5.04891C7.12525 5.22303 6.98707 5.42976 6.8928 5.6573C6.79852 5.88483 6.75 6.12871 6.75 6.375V7.125C6.75 7.37123 6.7985 7.61505 6.89273 7.84253C6.98695 8.07002 7.12506 8.27672 7.29917 8.45083C7.65081 8.80246 8.12772 9 8.625 9H15.375C15.6212 9 15.865 8.9515 16.0925 8.85727C16.32 8.76305 16.5267 8.62494 16.7008 8.45083C16.8749 8.27672 17.013 8.07002 17.1073 7.84253C17.2015 7.61505 17.25 7.37123 17.25 7.125L17.2507 6.375ZM15.7507 6.375V7.125C15.7507 7.22446 15.7112 7.31984 15.6409 7.39017C15.5706 7.46049 15.4752 7.5 15.3757 7.5H8.62575C8.52642 7.4996 8.43126 7.45997 8.36102 7.38973C8.29078 7.31949 8.25115 7.22433 8.25075 7.125V6.375C8.25075 6.27554 8.29026 6.18016 8.36058 6.10983C8.43091 6.03951 8.52629 6 8.62575 6H15.3757C15.4751 6.0004 15.5702 6.04003 15.6405 6.11027C15.7107 6.18051 15.7504 6.27567 15.7507 6.375Z" fill="#3734CA"/>
<path fill-rule="evenodd" clip-rule="evenodd" d="M10.5 5.25V3.375C10.5 3.27525 10.5397 3.18 10.6095 3.1095C10.6801 3.03949 10.7755 3.00015 10.875 3H13.125C13.2248 3 13.32 3.03975 13.3905 3.1095C13.4605 3.18015 13.4999 3.27554 13.5 3.375V5.25C13.5 5.44891 13.579 5.63968 13.7197 5.78033C13.8603 5.92098 14.0511 6 14.25 6C14.4489 6 14.6397 5.92098 14.7803 5.78033C14.921 5.63968 15 5.44891 15 5.25V3.375C15 2.87772 14.8025 2.40081 14.4508 2.04917C14.0992 1.69754 13.6223 1.5 13.125 1.5H10.875C10.3777 1.5 9.90081 1.69754 9.54917 2.04917C9.19754 2.40081 9 2.87772 9 3.375V5.25C9 5.44891 9.07902 5.63968 9.21967 5.78033C9.36032 5.92098 9.55109 6 9.75 6C9.94891 6 10.1397 5.92098 10.2803 5.78033C10.421 5.63968 10.5 5.44891 10.5 5.25Z" fill="#3734CA"/>
<path fill-rule="evenodd" clip-rule="evenodd" d="M19.461 7.49925L19.5 7.5H19.5015C19.9155 7.5 20.2507 7.83525 20.2507 8.2485V20.25C20.2507 20.4487 20.1713 20.64 20.0303 20.7803C19.9607 20.85 19.878 20.9053 19.787 20.943C19.6961 20.9807 19.5985 21.0001 19.5 21H4.5C4.4015 21.0001 4.30395 20.9807 4.21295 20.943C4.12195 20.9053 4.0393 20.85 3.96975 20.7803C3.9 20.7107 3.84468 20.628 3.80697 20.537C3.76926 20.4461 3.7499 20.3485 3.75 20.25V8.25C3.7497 8.15143 3.7689 8.05376 3.80649 7.96264C3.84407 7.87151 3.8993 7.78871 3.96901 7.71901C4.03871 7.64931 4.12151 7.59407 4.21264 7.55649C4.30377 7.5189 4.40143 7.4997 4.5 7.5C4.5 7.5 4.491 6.57 4.5 6C4.20447 5.9998 3.9118 6.05787 3.63873 6.17087C3.36566 6.28387 3.11754 6.4496 2.90857 6.65857C2.6996 6.86754 2.53387 7.11566 2.42087 7.38873C2.30787 7.6618 2.2498 7.95447 2.25 8.25V20.25C2.25 20.847 2.487 21.4193 2.91 21.8407C3.11875 22.0497 3.3666 22.2154 3.63942 22.3285C3.91224 22.4417 4.20466 22.4999 4.5 22.5H19.5C19.7955 22.5002 20.0882 22.4421 20.3613 22.3291C20.6343 22.2161 20.8825 22.0504 21.0914 21.8414C21.3004 21.6325 21.4661 21.3843 21.5791 21.1113C21.6921 20.8382 21.7502 20.5455 21.75 20.25V8.2485C21.75 7.65216 21.5131 7.08025 21.0914 6.65857C20.6698 6.2369 20.0978 6 19.5015 6C19.1265 6 19.0343 6.21225 19.0635 6.477C18.8737 6.27525 18.75 6.498 18.75 6.75C18.75 7.15125 19.0658 7.479 19.4625 7.49925H19.461Z" fill="#3734CA"/>
<path fill-rule="evenodd" clip-rule="evenodd" d="M6.75 12.75H17.25C17.4489 12.75 17.6397 12.671 17.7803 12.5303C17.921 12.3897 18 12.1989 18 12C18 11.8011 17.921 11.6103 17.7803 11.4697C17.6397 11.329 17.4489 11.25 17.25 11.25H6.75C6.55109 11.25 6.36032 11.329 6.21967 11.4697C6.07902 11.6103 6 11.8011 6 12C6 12.1989 6.07902 12.3897 6.21967 12.5303C6.36032 12.671 6.55109 12.75 6.75 12.75ZM6.75 15.75H17.25C17.4489 15.75 17.6397 15.671 17.7803 15.5303C17.921 15.3897 18 15.1989 18 15C18 14.8011 17.921 14.6103 17.7803 14.4697C17.6397 14.329 17.4489 14.25 17.25 14.25H6.75C6.55109 14.25 6.36032 14.329 6.21967 14.4697C6.07902 14.6103 6 14.8011 6 15C6 15.1989 6.07902 15.3897 6.21967 15.5303C6.36032 15.671 6.55109 15.75 6.75 15.75ZM6.75 18.75H17.25C17.4489 18.75 17.6397 18.671 17.7803 18.5303C17.921 18.3897 18 18.1989 18 18C18 17.8011 17.921 17.6103 17.7803 17.4697C17.6397 17.329 17.4489 17.25 17.25 17.25H6.75C6.55109 17.25 6.36032 17.329 6.21967 17.4697C6.07902 17.6103 6 17.8011 6 18C6 18.1989 6.07902 18.3897 6.21967 18.5303C6.36032 18.671 6.55109 18.75 6.75 18.75Z" fill="#3734CA"/>
<path d="M4.5 7.5C4.91421 7.5 5.25 7.16421 5.25 6.75C5.25 6.33579 4.91421 6 4.5 6C4.08579 6 3.75 6.33579 3.75 6.75C3.75 7.16421 4.08579 7.5 4.5 7.5Z" fill="#3734CA"/>
<path d="M19.5 7.5C19.9142 7.5 20.25 7.16421 20.25 6.75C20.25 6.33579 19.9142 6 19.5 6C19.0858 6 18.75 6.33579 18.75 6.75C18.75 7.16421 19.0858 7.5 19.5 7.5Z" fill="#3734CA"/>
</svg>
